<svg xmlns="http://www.w3.org/2000/svg" xmlns:xlink="http://www.w3.org/1999/xlink" width="84" height="84" viewBox="0 0 84 84">
  <defs>
    <clipPath id="clip-path">
      <rect id="Rectángulo_462034" data-name="Rectángulo 462034" width="57.16" height="58.126" fill="#c0f1e1"/>
    </clipPath>
  </defs>
  <g id="Grupo_1195531" data-name="Grupo 1195531" transform="translate(-331.711 -1230)">
    <g id="Grupo_1195172" data-name="Grupo 1195172" transform="translate(-374 -788)">
      <g id="Grupo_1194737" data-name="Grupo 1194737" transform="translate(705.711 2018)" style="isolation: isolate">
        <g id="Grupo_1119665" data-name="Grupo 1119665" transform="translate(0)">
          <rect id="Rectángulo_402006" data-name="Rectángulo 402006" width="84" height="84" rx="5" fill="#104936"/>
        </g>
      </g>
    </g>
    <g id="Grupo_1195174" data-name="Grupo 1195174" transform="translate(345.676 1243.05)">
      <g id="Grupo_1195173" data-name="Grupo 1195173" transform="translate(0 0)" clip-path="url(#clip-path)">
        <path id="Trazado_1015272" data-name="Trazado 1015272" d="M51.678,0H13.7A5.487,5.487,0,0,0,8.22,5.481v2.91H5.482A5.489,5.489,0,0,0,0,13.873V43.726a5.488,5.488,0,0,0,5.482,5.482H7.4l2.379,6.474a3.735,3.735,0,0,0,7.009,0l2.381-6.474H43.46a5.487,5.487,0,0,0,5.481-5.482v-2.91h2.738a5.489,5.489,0,0,0,5.482-5.482V5.481A5.489,5.489,0,0,0,51.678,0ZM45.534,43.726A2.079,2.079,0,0,1,43.459,45.8H17.977a1.7,1.7,0,0,0-1.6,1.115l-2.791,7.589a.294.294,0,0,1-.307.214.3.3,0,0,1-.308-.214l-2.79-7.589a1.7,1.7,0,0,0-1.6-1.115h-3.1a2.079,2.079,0,0,1-2.076-2.077V13.873A2.079,2.079,0,0,1,5.482,11.8H43.459a2.078,2.078,0,0,1,2.075,2.075Zm8.22-8.392a2.078,2.078,0,0,1-2.076,2.076H48.94V13.873a5.488,5.488,0,0,0-5.481-5.481H11.625V5.481A2.078,2.078,0,0,1,13.7,3.406H51.678a2.078,2.078,0,0,1,2.076,2.075Z" transform="translate(0 0)" fill="#c0f1e1"/>
        <path id="Trazado_1015273" data-name="Trazado 1015273" d="M33.751,26.524,26.024,34.25,25.349,33.2A5.109,5.109,0,0,0,16.364,38c.2.471-.067.039,4.5,7.111a5.111,5.111,0,0,0,7.906.843l12.2-12.2a5.109,5.109,0,0,0-7.225-7.225Zm4.817,4.815-12.2,12.2a1.705,1.705,0,0,1-2.636-.28L19.624,36.9a1.7,1.7,0,0,1,2.862-1.847l1.819,2.819a1.7,1.7,0,0,0,2.635.281l9.218-9.218a1.7,1.7,0,0,1,2.409,2.407" transform="translate(-4.738 -7.436)" fill="#c0f1e1"/>
      </g>
    </g>
  </g>
</svg>
