<svg id="Grupo_1195163" data-name="Grupo 1195163" xmlns="http://www.w3.org/2000/svg" xmlns:xlink="http://www.w3.org/1999/xlink" width="141.252" height="121.313" viewBox="0 0 141.252 121.313">
  <defs>
    <clipPath id="clip-path">
      <rect id="Rectángulo_462002" data-name="Rectángulo 462002" width="141.252" height="121.313" fill="none"/>
    </clipPath>
  </defs>
  <rect id="Rectángulo_462000" data-name="Rectángulo 462000" width="7.002" height="38.852" transform="translate(132.986 41.23)" fill="#2ed19b"/>
  <g id="Grupo_1195162" data-name="Grupo 1195162">
    <g id="Grupo_1195161" data-name="Grupo 1195161" clip-path="url(#clip-path)">
      <path id="Trazado_1015224" data-name="Trazado 1015224" d="M112.5,73.006h-7a1.263,1.263,0,0,1-1.264-1.264V32.892a1.263,1.263,0,0,1,1.264-1.264h7a1.263,1.263,0,0,1,1.264,1.264v38.85a1.263,1.263,0,0,1-1.264,1.264m-5.738-2.527h4.475V34.155h-4.475Z" transform="translate(27.485 8.339)" fill="#122353"/>
      <path id="Trazado_1015225" data-name="Trazado 1015225" d="M100.289,48.466v52.372a6.449,6.449,0,0,1-6.466,6.432h11.521v-58.8Z" transform="translate(22.706 12.779)" fill="#3f4d81"/>
      <path id="Trazado_1015226" data-name="Trazado 1015226" d="M108.592,8.464H36.569A6.449,6.449,0,0,0,30.1,14.9v14.2a30.072,30.072,0,0,1,14.172,3.527l7.1-7.061,12.364,12.3-7.1,7.061a29.651,29.651,0,0,1,3.546,14.1A30,30,0,0,1,30.1,88.935v22.45a6.449,6.449,0,0,0,6.466,6.432h72.023a6.449,6.449,0,0,0,6.466-6.432V14.9a6.451,6.451,0,0,0-6.467-6.432" transform="translate(7.937 2.232)" fill="#bbc4dc"/>
      <path id="Trazado_1015227" data-name="Trazado 1015227" d="M103.9,8.464H39.037a4.71,4.71,0,0,0-4.722,4.7V29.567a30.015,30.015,0,0,1,8.849,3.051l7.1-7.061,12.364,12.3-7.1,7.061a29.651,29.651,0,0,1,3.546,14.1A29.968,29.968,0,0,1,34.316,88.457V107.1a4.71,4.71,0,0,0,4.722,4.7H96.531V99.767h12.1V13.161a4.713,4.713,0,0,0-4.724-4.7" transform="translate(9.048 2.232)" fill="#e0e8fc"/>
      <path id="Trazado_1015228" data-name="Trazado 1015228" d="M62,32.221l-6.466,6.432a29.651,29.651,0,0,1,3.546,14.1A29.968,29.968,0,0,1,34.317,82.194v4.115A29.982,29.982,0,0,0,61.6,56.52a29.651,29.651,0,0,0-3.546-14.1l7.1-7.061Z" transform="translate(9.048 8.496)" fill="#122353"/>
      <path id="Trazado_1015229" data-name="Trazado 1015229" d="M80.73,5.716V1H56.317V5.716H45.489v9.433H91.56V5.716Z" transform="translate(11.994 0.264)" fill="#f59e0b"/>
      <rect id="Rectángulo_462001" data-name="Rectángulo 462001" width="46.072" height="4.716" transform="translate(57.483 10.696)" fill="#f79559"/>
      <path id="Trazado_1015230" data-name="Trazado 1015230" d="M83.548,92.75V80.717h12.1Z" transform="translate(22.029 21.283)" fill="#122353"/>
      <path id="Trazado_1015231" data-name="Trazado 1015231" d="M70.014,34.289l-12.364-12.3-7.1,7.061A29.895,29.895,0,1,0,66.461,55.447a29.651,29.651,0,0,0-3.546-14.1Z" transform="translate(1.661 5.798)" fill="#334155"/>
      <path id="Trazado_1015232" data-name="Trazado 1015232" d="M27.5,83.288l.013.025a29.908,29.908,0,0,1,8.858-58.526c.834,0,1.655.038,2.477.1A29.882,29.882,0,0,0,27.5,81.327Z" transform="translate(1.661 6.536)" fill="#f8f8f8"/>
      <path id="Trazado_1015233" data-name="Trazado 1015233" d="M48.46,38.528a20.12,20.12,0,0,0-28.348,0,19.9,19.9,0,0,0,5.3,31.976V81.209L34.1,72.561A19.936,19.936,0,0,0,48.46,38.528" transform="translate(3.755 8.619)" fill="#bbc4dc"/>
      <path id="Trazado_1015234" data-name="Trazado 1015234" d="M30.107,53.675a1.345,1.345,0,1,1-1.351,1.345,1.348,1.348,0,0,1,1.351-1.345" transform="translate(7.582 14.153)" fill="#122353"/>
      <path id="Trazado_1015235" data-name="Trazado 1015235" d="M105.238,34.08h7V30.6a3.5,3.5,0,0,0-7,0V34.08Z" transform="translate(27.748 7.149)" fill="#7184af"/>
      <path id="Trazado_1015236" data-name="Trazado 1015236" d="M105.238,63.373l3.5,6.964,3.5-6.964Z" transform="translate(27.748 16.71)" fill="#f79559"/>
      <path id="Trazado_1015237" data-name="Trazado 1015237" d="M85.534,49.993H60.908a1.264,1.264,0,0,1,0-2.527H85.534a1.264,1.264,0,0,1,0,2.527" transform="translate(15.726 12.515)" fill="#122353"/>
      <path id="Trazado_1015238" data-name="Trazado 1015238" d="M85.534,58.722H60.908a1.264,1.264,0,0,1,0-2.527H85.534a1.264,1.264,0,0,1,0,2.527" transform="translate(15.726 14.817)" fill="#122353"/>
      <path id="Trazado_1015239" data-name="Trazado 1015239" d="M86.824,67.451H56.016a1.264,1.264,0,0,1,0-2.527H86.824a1.264,1.264,0,0,1,0,2.527" transform="translate(14.437 17.119)" fill="#122353"/>
      <path id="Trazado_1015240" data-name="Trazado 1015240" d="M89.224,76.18H46.913a1.264,1.264,0,0,1,0-2.527H89.224a1.264,1.264,0,0,1,0,2.527" transform="translate(12.036 19.42)" fill="#122353"/>
      <path id="Trazado_1015241" data-name="Trazado 1015241" d="M79.687,84.909H37.21a1.264,1.264,0,0,1,0-2.527H79.687a1.264,1.264,0,0,1,0,2.527" transform="translate(9.478 21.722)" fill="#122353"/>
      <path id="Trazado_1015242" data-name="Trazado 1015242" d="M83.812,94.277a1.277,1.277,0,0,1-.485-.1,1.265,1.265,0,0,1-.778-1.168V80.981a1.263,1.263,0,0,1,1.264-1.264h12.1a1.264,1.264,0,0,1,.891,2.16L84.7,93.909a1.258,1.258,0,0,1-.891.368m1.264-12.033v7.73l7.77-7.73Z" transform="translate(21.766 21.019)" fill="#122353"/>
      <path id="Trazado_1015243" data-name="Trazado 1015243" d="M96.793,113.328H39.3a5.979,5.979,0,0,1-5.985-5.961V88.723a1.264,1.264,0,0,1,1.043-1.243,28.6,28.6,0,0,0,20.32-41.7,1.265,1.265,0,0,1,.222-1.495l6.2-6.164L50.527,27.6,44.32,33.778a1.265,1.265,0,0,1-1.485.22,28.752,28.752,0,0,0-8.477-2.922,1.263,1.263,0,0,1-1.043-1.243V13.426A5.98,5.98,0,0,1,39.3,7.465h9.4a1.263,1.263,0,0,1,1.264,1.264v3.452H93.506V8.729A1.263,1.263,0,0,1,94.77,7.465h9.4a5.98,5.98,0,0,1,5.986,5.961v86.606a1.263,1.263,0,0,1-1.264,1.264H98.056v10.769a1.263,1.263,0,0,1-1.264,1.264M35.842,89.763v17.605A3.45,3.45,0,0,0,39.3,110.8H95.528V100.033a1.263,1.263,0,0,1,1.264-1.264h10.833V13.426a3.45,3.45,0,0,0-3.459-3.433H96.032v3.452a1.263,1.263,0,0,1-1.264,1.264H48.7a1.263,1.263,0,0,1-1.264-1.264V9.992H39.3a3.449,3.449,0,0,0-3.457,3.433V28.792a31.129,31.129,0,0,1,7.344,2.546l6.449-6.412a1.261,1.261,0,0,1,1.782,0l12.364,12.3a1.263,1.263,0,0,1,0,1.792l-6.441,6.406a31.131,31.131,0,0,1-21.5,44.341" transform="translate(8.784 1.968)" fill="#122353"/>
      <path id="Trazado_1015244" data-name="Trazado 1015244" d="M91.824,16.677H45.753a1.263,1.263,0,0,1-1.264-1.264V5.98a1.263,1.263,0,0,1,1.264-1.264h9.566V1.264A1.263,1.263,0,0,1,56.582,0H80.994a1.263,1.263,0,0,1,1.264,1.264V4.716h9.566A1.263,1.263,0,0,1,93.087,5.98v9.433a1.263,1.263,0,0,1-1.264,1.264M47.016,14.149H90.56V7.243H80.994A1.263,1.263,0,0,1,79.73,5.98V2.527H57.846V5.98a1.263,1.263,0,0,1-1.264,1.264H47.016Z" transform="translate(11.73)" fill="#122353"/>
      <path id="Trazado_1015245" data-name="Trazado 1015245" d="M108.856,119.344H36.833a7.721,7.721,0,0,1-7.73-7.7V89.2a1.263,1.263,0,0,1,1.264-1.264A28.633,28.633,0,0,0,55.788,45.778a1.265,1.265,0,0,1,.222-1.495l6.2-6.164L51.637,27.6,45.43,33.777a1.265,1.265,0,0,1-1.485.22,29,29,0,0,0-13.578-3.378A1.263,1.263,0,0,1,29.1,29.356V15.161a7.722,7.722,0,0,1,7.73-7.7H49.81a1.263,1.263,0,0,1,1.264,1.264v3.452H94.617V8.729A1.263,1.263,0,0,1,95.88,7.465h12.975a7.721,7.721,0,0,1,7.73,7.7v96.488A7.721,7.721,0,0,1,108.856,119.344ZM31.63,90.438v21.211a5.192,5.192,0,0,0,5.2,5.168h72.023a5.192,5.192,0,0,0,5.2-5.168V15.161a5.192,5.192,0,0,0-5.2-5.168H97.144v3.452a1.263,1.263,0,0,1-1.264,1.264H49.81a1.263,1.263,0,0,1-1.264-1.264V9.992H36.833a5.192,5.192,0,0,0-5.2,5.168V28.118A31.58,31.58,0,0,1,44.3,31.338l6.449-6.412a1.261,1.261,0,0,1,1.782,0l12.364,12.3a1.263,1.263,0,0,1,0,1.792l-6.441,6.406A31.159,31.159,0,0,1,31.63,90.438" transform="translate(7.674 1.968)" fill="#122353"/>
      <path id="Trazado_1015246" data-name="Trazado 1015246" d="M36.643,86.9A31.186,31.186,0,1,1,50.574,27.772l6.449-6.413a1.261,1.261,0,0,1,1.782,0l12.364,12.3a1.263,1.263,0,0,1,0,1.792l-6.441,6.406A31.165,31.165,0,0,1,36.643,86.9m0-59.844A28.7,28.7,0,1,0,62.064,42.212a1.265,1.265,0,0,1,.222-1.495l6.2-6.164L57.913,24.037l-6.207,6.174a1.265,1.265,0,0,1-1.485.22,28.994,28.994,0,0,0-13.578-3.378" transform="translate(1.397 5.535)" fill="#122353"/>
      <path id="Trazado_1015247" data-name="Trazado 1015247" d="M25.674,82.734a1.278,1.278,0,0,1-.485-.1,1.265,1.265,0,0,1-.778-1.168V71.537a21.242,21.242,0,1,1,25.2-33.643,21.2,21.2,0,0,1-14.723,36.19l-8.326,8.282a1.263,1.263,0,0,1-.891.368m8.875-48.514a18.777,18.777,0,0,0-13.284,5.464,18.6,18.6,0,0,0,0,26.4A18.708,18.708,0,0,0,26.23,69.63a1.265,1.265,0,0,1,.706,1.134v7.665l6.54-6.5a1.262,1.262,0,0,1,.891-.368c.053,0,.125,0,.187,0A18.689,18.689,0,0,0,47.83,66.089a18.6,18.6,0,0,0,0-26.4,18.772,18.772,0,0,0-13.281-5.464" transform="translate(3.491 8.358)" fill="#122353"/>
      <path id="Trazado_1015248" data-name="Trazado 1015248" d="M30.933,56.138a1.263,1.263,0,0,1-1.264-1.264,7.11,7.11,0,0,1,3.5-6.4c1.222-.9,1.81-1.39,1.81-2.631a3.528,3.528,0,0,0-1.051-2.52,3.612,3.612,0,0,0-5.085,0,3.548,3.548,0,0,0,0,5.04,1.263,1.263,0,1,1-1.782,1.792,6.074,6.074,0,0,1,0-8.623,6.147,6.147,0,0,1,8.65,0,6.041,6.041,0,0,1,1.8,4.312c0,2.574-1.573,3.733-2.837,4.664-1.379,1.016-2.468,1.818-2.468,4.366a1.264,1.264,0,0,1-1.264,1.264" transform="translate(6.66 10.482)" fill="#122353"/>
      <path id="Trazado_1015249" data-name="Trazado 1015249" d="M72.456,34.916a1.264,1.264,0,0,1-.891-2.16,7.4,7.4,0,0,0,0-10.506,7.518,7.518,0,0,0-10.582,0l-8,7.959A1.263,1.263,0,1,1,51.2,28.417l8-7.959a10.05,10.05,0,0,1,14.146,0,9.927,9.927,0,0,1,0,14.09,1.259,1.259,0,0,1-.891.368" transform="translate(13.402 4.627)" fill="#122353"/>
      <path id="Trazado_1015250" data-name="Trazado 1015250" d="M62.25,38.211a1.264,1.264,0,0,1-.891-2.16l2.251-2.238a1.263,1.263,0,0,1,1.782,1.792l-2.251,2.238a1.257,1.257,0,0,1-.891.368" transform="translate(16.08 8.819)" fill="#122353"/>
      <path id="Trazado_1015251" data-name="Trazado 1015251" d="M65.162,33.917A1.263,1.263,0,0,1,63.9,32.653V29.488a1.264,1.264,0,0,1,2.527,0v3.165a1.263,1.263,0,0,1-1.264,1.264" transform="translate(16.848 7.442)" fill="#122353"/>
      <path id="Trazado_1015252" data-name="Trazado 1015252" d="M65.162,39.6A1.263,1.263,0,0,1,63.9,38.34V35.175a1.264,1.264,0,0,1,2.527,0V38.34A1.263,1.263,0,0,1,65.162,39.6" transform="translate(16.848 8.941)" fill="#122353"/>
      <path id="Trazado_1015253" data-name="Trazado 1015253" d="M68.543,38.211a1.259,1.259,0,0,1-.891-.368L65.4,35.605a1.263,1.263,0,0,1,1.782-1.792l2.251,2.238a1.264,1.264,0,0,1-.891,2.16" transform="translate(17.146 8.819)" fill="#122353"/>
      <path id="Trazado_1015254" data-name="Trazado 1015254" d="M64.5,34.188a1.259,1.259,0,0,1-.891-.368L61.36,31.583a1.263,1.263,0,0,1,1.782-1.792l2.251,2.238a1.264,1.264,0,0,1-.891,2.16" transform="translate(16.08 7.758)" fill="#122353"/>
      <path id="Trazado_1015255" data-name="Trazado 1015255" d="M69.945,34.847H66.762a1.264,1.264,0,0,1,0-2.527h3.183a1.264,1.264,0,0,1,0,2.527" transform="translate(17.27 8.522)" fill="#122353"/>
      <path id="Trazado_1015256" data-name="Trazado 1015256" d="M64.227,34.847H61.044a1.264,1.264,0,1,1,0-2.527h3.183a1.264,1.264,0,1,1,0,2.527" transform="translate(15.762 8.522)" fill="#122353"/>
      <path id="Trazado_1015257" data-name="Trazado 1015257" d="M88.1,40.8H76a1.264,1.264,0,0,1,0-2.527H88.1a1.264,1.264,0,0,1,0,2.527" transform="translate(19.706 10.091)" fill="#122353"/>
      <path id="Trazado_1015258" data-name="Trazado 1015258" d="M88.1,32.069H76a1.264,1.264,0,0,1,0-2.527H88.1a1.264,1.264,0,0,1,0,2.527" transform="translate(19.706 7.789)" fill="#122353"/>
      <path id="Trazado_1015259" data-name="Trazado 1015259" d="M88.1,23.34H76a1.264,1.264,0,0,1,0-2.527H88.1a1.264,1.264,0,0,1,0,2.527" transform="translate(19.706 5.488)" fill="#122353"/>
      <path id="Trazado_1015260" data-name="Trazado 1015260" d="M112.5,35.609h-7a1.263,1.263,0,0,1-1.264-1.264V30.862a4.765,4.765,0,0,1,9.529,0v3.483a1.263,1.263,0,0,1-1.264,1.264m-5.738-2.527h4.475V30.862a2.237,2.237,0,0,0-4.475,0Z" transform="translate(27.485 6.886)" fill="#122353"/>
      <path id="Trazado_1015261" data-name="Trazado 1015261" d="M109,71.865a1.265,1.265,0,0,1-1.13-.7l-3.5-6.965a1.264,1.264,0,0,1,1.128-1.832h7a1.264,1.264,0,0,1,1.128,1.832l-3.5,6.965a1.259,1.259,0,0,1-1.127.7M107.552,64.9,109,67.787l1.451-2.887Z" transform="translate(27.484 16.445)" fill="#122353"/>
      <path id="Trazado_1015262" data-name="Trazado 1015262" d="M23.93,90.226a1.26,1.26,0,0,1-.48-.095c-.81-.335-1.611-.7-2.379-1.077a1.263,1.263,0,1,1,1.118-2.266c.718.354,1.466.692,2.223,1a1.264,1.264,0,0,1-.481,2.433m-6.667-3.577a1.258,1.258,0,0,1-.706-.217c-.718-.485-1.429-1-2.113-1.539A1.264,1.264,0,0,1,16,82.9c.638.5,1.3.982,1.97,1.436a1.263,1.263,0,0,1-.71,2.31m-5.8-4.869a1.263,1.263,0,0,1-.909-.385c-.608-.629-1.2-1.283-1.753-1.944a1.264,1.264,0,0,1,1.937-1.624c.517.614,1.065,1.225,1.633,1.811a1.263,1.263,0,0,1-.909,2.142M6.8,75.824a1.262,1.262,0,0,1-1.07-.59c-.463-.734-.9-1.495-1.315-2.259a1.264,1.264,0,0,1,2.228-1.2c.383.713.795,1.422,1.227,2.107A1.266,1.266,0,0,1,6.8,75.824M3.45,69.037a1.265,1.265,0,0,1-1.185-.824c-.3-.815-.579-1.649-.824-2.481a1.263,1.263,0,1,1,2.424-.713c.229.776.488,1.554.77,2.315a1.263,1.263,0,0,1-.744,1.624,1.248,1.248,0,0,1-.44.078m-1.89-7.328A1.261,1.261,0,0,1,.312,60.632c-.129-.858-.229-1.731-.3-2.6a1.264,1.264,0,0,1,2.52-.2c.063.809.157,1.624.277,2.422A1.264,1.264,0,0,1,1.75,61.695a1.4,1.4,0,0,1-.191.014m-.294-7.559c-.032,0-.064,0-.1,0A1.263,1.263,0,0,1,0,52.791c.066-.866.162-1.74.287-2.6a1.264,1.264,0,0,1,2.5.363c-.116.8-.207,1.618-.268,2.425a1.266,1.266,0,0,1-1.26,1.169M2.611,46.7A1.265,1.265,0,0,1,1.4,45.086c.241-.831.517-1.668.815-2.483a1.263,1.263,0,0,1,2.373.868c-.279.762-.535,1.543-.761,2.32a1.265,1.265,0,0,1-1.213.911m2.846-7.011a1.247,1.247,0,0,1-.591-.148,1.264,1.264,0,0,1-.523-1.71c.409-.771.849-1.533,1.305-2.263A1.263,1.263,0,1,1,7.79,36.909c-.425.682-.835,1.393-1.218,2.113a1.262,1.262,0,0,1-1.116.67m4.222-6.28a1.263,1.263,0,0,1-.97-2.072c.555-.666,1.141-1.322,1.741-1.949a1.264,1.264,0,0,1,1.825,1.75c-.56.584-1.107,1.2-1.625,1.817a1.257,1.257,0,0,1-.97.454M15.1,28.133a1.264,1.264,0,0,1-.783-2.256c.676-.533,1.385-1.054,2.107-1.548a1.264,1.264,0,0,1,1.425,2.089c-.674.459-1.334.945-1.965,1.444a1.268,1.268,0,0,1-.783.27m6.392-4.05a1.265,1.265,0,0,1-.565-2.4C21.7,21.3,22.5,20.937,23.3,20.6a1.264,1.264,0,1,1,.973,2.333q-1.135.474-2.222,1.016a1.255,1.255,0,0,1-.561.131" transform="translate(0 5.406)" fill="#122353"/>
    </g>
  </g>
</svg>
