<svg id="Grupo_1195166" data-name="Grupo 1195166" xmlns="http://www.w3.org/2000/svg" xmlns:xlink="http://www.w3.org/1999/xlink" width="127.34" height="127.34" viewBox="0 0 127.34 127.34">
  <defs>
    <clipPath id="clip-path">
      <rect id="Rectángulo_462029" data-name="Rectángulo 462029" width="127.34" height="127.34" fill="none"/>
    </clipPath>
  </defs>
  <rect id="Rectángulo_462003" data-name="Rectángulo 462003" width="73.939" height="123.232" transform="translate(2.054 2.054)" fill="#adb3bb"/>
  <g id="Grupo_1195165" data-name="Grupo 1195165">
    <g id="Grupo_1195164" data-name="Grupo 1195164" clip-path="url(#clip-path)">
      <path id="Trazado_1015263" data-name="Trazado 1015263" d="M2.054,2.054v106.8H48.387a6.162,6.162,0,0,0,6.162-6.162V2.054Z" fill="#c1c6cc"/>
      <rect id="Rectángulo_462004" data-name="Rectángulo 462004" width="57.508" height="34.916" transform="translate(10.269 82.155)" fill="#ccc"/>
      <path id="Trazado_1015264" data-name="Trazado 1015264" d="M10.269,82.155v26.7H48.387a6.161,6.161,0,0,0,6.161-6.161V82.155Z" fill="#f2f2f2"/>
      <rect id="Rectángulo_462005" data-name="Rectángulo 462005" width="57.508" height="34.916" transform="translate(10.269 10.27)" fill="#ccc"/>
      <rect id="Rectángulo_462006" data-name="Rectángulo 462006" width="57.508" height="36.97" transform="translate(10.269 45.185)" fill="#adb3bb"/>
      <rect id="Rectángulo_462007" data-name="Rectángulo 462007" width="36.97" height="44.279" transform="translate(9.218 80.817) rotate(-86.619)" fill="#d6d9dd"/>
      <rect id="Rectángulo_462008" data-name="Rectángulo 462008" width="44.279" height="34.916" transform="translate(10.269 10.27)" fill="#eaecee"/>
      <rect id="Rectángulo_462009" data-name="Rectángulo 462009" width="16.431" height="4.108" transform="translate(30.808 24.647)" fill="#686868"/>
      <rect id="Rectángulo_462010" data-name="Rectángulo 462010" width="16.431" height="4.108" transform="translate(30.808 61.616)" fill="#686868"/>
      <rect id="Rectángulo_462011" data-name="Rectángulo 462011" width="16.431" height="4.108" transform="translate(30.808 98.586)" fill="#686868"/>
      <path id="Trazado_1015265" data-name="Trazado 1015265" d="M125.286,51.347v73.939H63.67V39.024h49.293Z" fill="#e2e7f6"/>
      <path id="Trazado_1015266" data-name="Trazado 1015266" d="M63.67,117.071h55.454V45.186l-6.161-6.162H63.67Z" fill="#f2f2f2"/>
      <path id="Trazado_1015267" data-name="Trazado 1015267" d="M112.963,39.024V51.347h12.323Z" fill="#c8cded"/>
      <path id="Trazado_1015268" data-name="Trazado 1015268" d="M94.478,47.239A14.377,14.377,0,1,1,80.1,61.616,14.377,14.377,0,0,1,94.478,47.239" fill="#f4a93c"/>
      <path id="Trazado_1015269" data-name="Trazado 1015269" d="M104.747,59.562a14.346,14.346,0,0,0-6.02-11.684A14.377,14.377,0,0,0,86.12,73.3a14.376,14.376,0,0,0,18.627-13.738Z" fill="#f6b940"/>
      <rect id="Rectángulo_462012" data-name="Rectángulo 462012" width="4.108" height="10.269" transform="translate(92.424 53.401)" fill="#474747"/>
      <rect id="Rectángulo_462013" data-name="Rectángulo 462013" width="4.108" height="4.108" transform="translate(92.424 65.724)" fill="#474747"/>
      <rect id="Rectángulo_462014" data-name="Rectángulo 462014" width="28.754" height="4.108" transform="translate(78.047 84.209)" fill="#c8cded"/>
      <rect id="Rectángulo_462015" data-name="Rectángulo 462015" width="8.215" height="4.108" transform="translate(110.909 84.209)" fill="#c8cded"/>
      <rect id="Rectángulo_462016" data-name="Rectángulo 462016" width="49.293" height="4.108" transform="translate(69.831 92.424)" fill="#c8cded"/>
      <rect id="Rectángulo_462017" data-name="Rectángulo 462017" width="49.293" height="4.108" transform="translate(69.831 100.64)" fill="#c8cded"/>
      <rect id="Rectángulo_462018" data-name="Rectángulo 462018" width="49.293" height="4.108" transform="translate(69.831 108.855)" fill="#c8cded"/>
      <rect id="Rectángulo_462019" data-name="Rectángulo 462019" width="16.431" height="4.108" transform="translate(30.808 24.647)" fill="#122353"/>
      <rect id="Rectángulo_462020" data-name="Rectángulo 462020" width="16.431" height="4.108" transform="translate(30.808 61.616)" fill="#122353"/>
      <rect id="Rectángulo_462021" data-name="Rectángulo 462021" width="16.431" height="4.108" transform="translate(30.808 98.586)" fill="#122353"/>
      <path id="Trazado_1015270" data-name="Trazado 1015270" d="M126.738,49.9,114.415,37.571a2.054,2.054,0,0,0-1.452-.6H78.047V2.054A2.055,2.055,0,0,0,75.993,0H2.054A2.055,2.055,0,0,0,0,2.054V125.286a2.055,2.055,0,0,0,2.054,2.054H125.286a2.054,2.054,0,0,0,2.054-2.054V51.347a2.054,2.054,0,0,0-.6-1.452m-11.721-5.913,5.311,5.311h-5.311ZM4.108,4.108H73.939V36.97H69.831v-26.7a2.054,2.054,0,0,0-2.053-2.054H10.269a2.054,2.054,0,0,0-2.053,2.054v106.8a2.053,2.053,0,0,0,2.053,2.054H61.616v4.108H4.108Zm8.215,80.1H61.616v30.808H12.323Zm0-36.97H61.616V80.1H12.323Zm49.293-8.216v4.108H12.323V12.323h53.4V36.97H63.67a2.054,2.054,0,0,0-2.054,2.053m61.616,84.209H65.724V41.077h45.185v10.27a2.054,2.054,0,0,0,2.054,2.054h10.269Z" fill="#122353"/>
      <path id="Trazado_1015271" data-name="Trazado 1015271" d="M94.478,78.047A16.431,16.431,0,1,0,78.047,61.616,16.43,16.43,0,0,0,94.478,78.047m0-28.754A12.323,12.323,0,1,1,82.155,61.616,12.323,12.323,0,0,1,94.478,49.293" fill="#122353"/>
      <rect id="Rectángulo_462022" data-name="Rectángulo 462022" width="4.108" height="10.269" transform="translate(92.424 53.401)" fill="#122353"/>
      <rect id="Rectángulo_462023" data-name="Rectángulo 462023" width="4.108" height="4.108" transform="translate(92.424 65.724)" fill="#122353"/>
      <rect id="Rectángulo_462024" data-name="Rectángulo 462024" width="28.754" height="4.108" transform="translate(78.047 84.209)" fill="#122353"/>
      <rect id="Rectángulo_462025" data-name="Rectángulo 462025" width="8.215" height="4.108" transform="translate(110.909 84.209)" fill="#122353"/>
      <rect id="Rectángulo_462026" data-name="Rectángulo 462026" width="49.293" height="4.108" transform="translate(69.831 92.424)" fill="#122353"/>
      <rect id="Rectángulo_462027" data-name="Rectángulo 462027" width="49.293" height="4.108" transform="translate(69.831 100.64)" fill="#122353"/>
      <rect id="Rectángulo_462028" data-name="Rectángulo 462028" width="49.293" height="4.108" transform="translate(69.831 108.855)" fill="#122353"/>
    </g>
  </g>
</svg>
