<svg xmlns="http://www.w3.org/2000/svg" xmlns:xlink="http://www.w3.org/1999/xlink" width="396" height="318" viewBox="0 0 396 318">
  <defs>
    <clipPath id="clip-path">
      <rect id="Rectángulo_461822" data-name="Rectángulo 461822" width="396" height="316" transform="translate(185.711 1354)" fill="#fff" stroke="#707070" stroke-width="1"/>
    </clipPath>
    <clipPath id="clip-path-2">
      <rect id="Rectángulo_461821" data-name="Rectángulo 461821" width="318.08" height="297.821" fill="none"/>
    </clipPath>
  </defs>
  <g id="Grupo_1195522" data-name="Grupo 1195522" transform="translate(-185.711 -1354)">
    <rect id="Rectángulo_461737" data-name="Rectángulo 461737" width="396" height="318" transform="translate(185.711 1354)" fill="#bbc3dc"/>
    <g id="Enmascarar_grupo_1193127" data-name="Enmascarar grupo 1193127" clip-path="url(#clip-path)">
      <path id="Trazado_994571" data-name="Trazado 994571" d="M0,97Z" transform="translate(186 1485.515)" fill="#e0e8fc"/>
      <g id="Grupo_1194854" data-name="Grupo 1194854" transform="translate(229.311 1364)">
        <g id="Grupo_1194853" data-name="Grupo 1194853" clip-path="url(#clip-path-2)">
          <path id="Trazado_1014782" data-name="Trazado 1014782" d="M209.258,122.124s1.191,54.086-75.042,16.226-160.8-14.062-126.261,34.615,35.734,49.759,23.823,88.7,20.249,100.6,67.895,65.985,65.513-35.7,120.305-20.553,81-48.677,83.38-99.518-60.6-100.722-80.33-107.151-13.77,21.7-13.77,21.7" transform="translate(0 -40.005)" fill="#e8ebf3"/>
          <path id="Trazado_1014783" data-name="Trazado 1014783" d="M154.157,240.21A7.125,7.125,0,0,1,147,247.3H79.252a7.125,7.125,0,0,1-7.16-7.09V36.554a7.125,7.125,0,0,1,7.16-7.09H147a7.125,7.125,0,0,1,7.16,7.09Z" transform="translate(-28.993 -11.85)" fill="#293444"/>
          <rect id="Rectángulo_461816" data-name="Rectángulo 461816" width="120.268" height="218.201" rx="11.977" transform="translate(47.931 17.729)" fill="#1e3a8a"/>
          <path id="Rectángulo_461817" data-name="Rectángulo 461817" d="M11.977,0H89.391a11.978,11.978,0,0,1,11.978,11.978V152.962a11.977,11.977,0,0,1-11.977,11.977H11.977A11.977,11.977,0,0,1,0,152.962V11.977A11.977,11.977,0,0,1,11.977,0Z" transform="translate(57.237 47.797)" fill="#e0e8fc"/>
          <path id="Trazado_1014784" data-name="Trazado 1014784" d="M192.4,371.785a3.007,3.007,0,0,1-3.006,3.007H155.029a3.006,3.006,0,1,1,0-6.013h34.363a3.006,3.006,0,0,1,3.006,3.006" transform="translate(-61.139 -148.312)" fill="#adb3bb"/>
          <path id="Trazado_1014785" data-name="Trazado 1014785" d="M188.962,50.335a3.436,3.436,0,0,1-3.436,3.436H155.459a3.436,3.436,0,1,1,0-6.873h30.067a3.436,3.436,0,0,1,3.436,3.436" transform="translate(-61.139 -18.861)" fill="#152860"/>
          <rect id="Rectángulo_461818" data-name="Rectángulo 461818" width="13.06" height="39.656" transform="translate(82.287 87.226)" fill="#2ed19b"/>
          <rect id="Rectángulo_461819" data-name="Rectángulo 461819" width="13.06" height="55.803" transform="translate(106.745 71.078)" fill="#2ed19b"/>
          <rect id="Rectángulo_461820" data-name="Rectángulo 461820" width="13.06" height="70.051" transform="translate(133.104 56.83)" fill="#2ed19b"/>
          <path id="Trazado_1014786" data-name="Trazado 1014786" d="M181.879,159.134l1.425,5.224-36.569,10.686-3.562-12.586L107.7,174.51l1.731,4.906,31.842-10.308,3.562,11.4L184.491,168.4l2.612,5.936,5.462-13.535Z" transform="translate(-43.314 -63.999)" fill="#f59e0b"/>
          <path id="Trazado_1014787" data-name="Trazado 1014787" d="M243.709,319.475c-14.015-14.757-14.016-35.722-14.016-35.722s-21.912-14.608-17.186,16.757a75.7,75.7,0,0,0,8.669,24.976h15.465a7.161,7.161,0,0,0,7.068-6.011" transform="translate(-85.195 -112.751)" fill="#876baa"/>
          <path id="Trazado_1014788" data-name="Trazado 1014788" d="M252.413,99.266l-3.669-6.2s-22.772,49.84-39.1,64.878-59.293,36.092-64.879,38.24a4.538,4.538,0,0,0-2.01,2.169c.774,12.266,5.558,30.052,24.747,41.867,13.222-4.816,26.712-22.414,58.9-25.991,31.576-3.508,63.626-1.571,78.046-.34Z" transform="translate(-57.413 -37.428)" fill="#a3b4c6"/>
          <path id="Trazado_1014789" data-name="Trazado 1014789" d="M368.345,137.68c15.506,35.644,19.371,68.326,8.632,73s-32.016-20.436-47.522-56.079-19.372-68.326-8.632-73,32.015,20.436,47.522,56.079" transform="translate(-126.581 -32.592)" fill="#6f7e8e"/>
          <path id="Trazado_1014790" data-name="Trazado 1014790" d="M368.686,142.752c13.551,31.149,17.907,59.284,9.728,62.843s-25.795-18.808-39.346-49.958-17.907-59.284-9.728-62.842,25.795,18.808,39.346,49.957" transform="translate(-130.791 -37.17)" fill="#8f9cad"/>
          <path id="Trazado_1014791" data-name="Trazado 1014791" d="M362.038,171.922c-5.969-13.721-17.9-21.759-26.648-17.953a11.212,11.212,0,0,0-2.2,1.27,215,215,0,0,0,9.084,24.771A213.565,213.565,0,0,0,354.7,204.375a11.243,11.243,0,0,0,2.3-.717c8.748-3.806,11-18.014,5.031-31.736" transform="translate(-134.001 -61.542)" fill="#353d48"/>
          <path id="Trazado_1014792" data-name="Trazado 1014792" d="M175.606,239.407c-14.425,8.046-27.879,14.493-30.838,15.63a4.543,4.543,0,0,0-2.01,2.17c.774,12.266,5.559,30.052,24.747,41.867,9.227-3.36,18.587-12.945,34.337-19.646-11.679-9.981-20.909-27.87-26.235-40.02" transform="translate(-57.413 -96.282)" fill="#1e3a8a"/>
          <path id="Trazado_1014793" data-name="Trazado 1014793" d="M158.594,228.684a.859.859,0,0,1-.859.86H111.761a.86.86,0,0,1,0-1.719h45.974a.859.859,0,0,1,.859.86" transform="translate(-44.601 -91.624)" fill="#beb2ce"/>
          <path id="Trazado_1014794" data-name="Trazado 1014794" d="M159.312,238.027a.859.859,0,0,1-.859.859H112.479a.859.859,0,0,1,0-1.719h45.974a.859.859,0,0,1,.859.86" transform="translate(-44.89 -95.382)" fill="#beb2ce"/>
          <path id="Trazado_1014795" data-name="Trazado 1014795" d="M379.694,52.848,408.482,0,426.1,12.46Z" transform="translate(-152.702 0)" fill="#fce2b5"/>
          <path id="Trazado_1014796" data-name="Trazado 1014796" d="M389.038,154.278l61.871-27.069,9.023,23.631Z" transform="translate(-156.459 -51.16)" fill="#fce2b5"/>
          <path id="Trazado_1014797" data-name="Trazado 1014797" d="M438.628,254.419,494.483,275.9l-13.749,15.9Z" transform="translate(-176.403 -102.32)" fill="#fce2b5"/>
          <path id="Trazado_1014798" data-name="Trazado 1014798" d="M86.5,464s-9.025,8.9-12.513,6.254S84.24,459.9,84.24,459.9l4.121.106Z" transform="translate(-29.529 -184.956)" fill="#1b1833"/>
          <path id="Trazado_1014799" data-name="Trazado 1014799" d="M233.8,469.266s11.062,6.183,13.723,2.711-12.629-7.266-12.629-7.266l-3.946,1.2Z" transform="translate(-92.879 -186.893)" fill="#1b1833"/>
          <path id="Trazado_1014800" data-name="Trazado 1014800" d="M118.841,430.343s-64.578-8.4-66.242-4.6-1.426,11.412,3.566,13.076,107.7,15.453,107.7,15.453l-.713-6.182Z" transform="translate(-20.781 -170.825)" fill="#623f04"/>
          <path id="Trazado_1014801" data-name="Trazado 1014801" d="M112.859,311.288a3.37,3.37,0,0,1-3.329-2.932c-.4-2.932,4.517-4.755,7.609-7.053s5.706-4.359,9.589-4.042,4.993,5.468,7.053,9.431,5.548,9.59-.792,14.424-20.13-9.827-20.13-9.827" transform="translate(-44.041 -119.536)" fill="#2d3233"/>
          <path id="Trazado_1014802" data-name="Trazado 1014802" d="M107.288,413.906,100,415.068l3.91,2.959,7.291.423-.74-3.276Z" transform="translate(-40.216 -166.461)" fill="#f49290"/>
          <path id="Trazado_1014803" data-name="Trazado 1014803" d="M127.929,354.1s-9.481,25.34-11.838,29.119,9.132,7.928,9.132,7.928,13.116-28.717,13.674-31.119-.067-5.609-4.263-7.535a5.4,5.4,0,0,0-6.706,1.607" transform="translate(-46.56 -141.533)" fill="#eac081"/>
          <path id="Trazado_1014804" data-name="Trazado 1014804" d="M124.334,408.816s-4.943-1.889-7.759-4.759-3.537-4.3-3.834-1.208-.983,2.41-2.25,4.226,2.37,6.145,6.713,7.893,4.014-.016,4.748-.9,1.981-.805,2.678-2.438a2.791,2.791,0,0,0-.3-2.813" transform="translate(-44.334 -161.314)" fill="#e5a24a"/>
          <path id="Trazado_1014805" data-name="Trazado 1014805" d="M139.734,345.613s-4.438,2.709-5.389,4.334,2.113,12.571,4.966,18.423,7.186,21.131,7.925,23.623,4.121,5.527,4.544,5.527,27.685-1.193,27.685-1.193-8.453-37.711-11.307-44.863-11.412-11.487-15.217-11.27-13.208,5.419-13.208,5.419" transform="translate(-53.959 -136.813)" fill="#fbd89d"/>
          <path id="Trazado_1014806" data-name="Trazado 1014806" d="M149.22,349.687s-1.479,3.7-3.276,4.227-5.706-7.714-3.064-10.039,4.755-1.48,4.755-1.48Z" transform="translate(-57.104 -137.641)" fill="#dc8e0a"/>
          <path id="Trazado_1014807" data-name="Trazado 1014807" d="M152.139,347.679s2.959,3.91,5.072,4.227,4.861-8.453,4.332-11.624-6.552-2.747-6.552-2.747Z" transform="translate(-61.186 -135.739)" fill="#dc8e0a"/>
          <path id="Trazado_1014808" data-name="Trazado 1014808" d="M150.253,322.267a83.582,83.582,0,0,0,4.438,8.876c1.479,2.114-1.8,11.413-5.073,10.25s-2.641-8.031-2.747-9.087-.211-10.356-.211-10.356l1.8-1.9Z" transform="translate(-58.983 -128.714)" fill="#f29997"/>
          <path id="Trazado_1014809" data-name="Trazado 1014809" d="M148.966,318.292s-.106-4.332,2.219-3.487,0,8.982-1.48,8.665-.74-5.178-.74-5.178" transform="translate(-59.835 -126.561)" fill="#f9a6a0"/>
          <path id="Trazado_1014810" data-name="Trazado 1014810" d="M134.334,413.376s-18.175,2.431-23.459,2.959-11.835-1.9-15.85-.211a20.459,20.459,0,0,0-6.34,4.121s6.552,2.536,7.185,2.536,38.57,1.057,42.479,0,5.283-6.446,5.283-6.446Z" transform="translate(-35.666 -166.248)" fill="#f9a6a0"/>
          <path id="Trazado_1014811" data-name="Trazado 1014811" d="M171.624,346.279s-3.592,27.58-5.072,31.912S177.541,384,177.541,384s6.446-31.806,6.446-34.342-1.373-5.6-6.023-6.552a5.554,5.554,0,0,0-6.34,3.17" transform="translate(-66.933 -137.931)" fill="#eac081"/>
          <path id="Trazado_1014812" data-name="Trazado 1014812" d="M176.766,404.058s-5.389-.74-8.876-2.959-4.544-3.487-4.121-.317-.423,2.641-1.268,4.755,3.8,5.6,8.559,6.34,4.016-.951,4.544-2.008,1.8-1.267,2.113-3.064a2.869,2.869,0,0,0-.951-2.748" transform="translate(-65.313 -160.417)" fill="#e5a24a"/>
          <path id="Trazado_1014813" data-name="Trazado 1014813" d="M87.618,379.573l1.832.864,10.372,29.722-2.245,1.084s-2.786-1.548-2.786-2.013-8.2-26.393-8.2-26.393Z" transform="translate(-34.822 -152.653)" fill="#9fbace"/>
          <path id="Trazado_1014814" data-name="Trazado 1014814" d="M25.871,409.995H69.648L58.863,379.573H15.086Z" transform="translate(-6.067 -152.653)" fill="#bac7d3"/>
          <path id="Trazado_1014815" data-name="Trazado 1014815" d="M95.5,430.919a1.625,1.625,0,0,1-1.625,1.625H34.193a1.625,1.625,0,1,1,0-3.251H93.875a1.626,1.626,0,0,1,1.625,1.625" transform="translate(-13.098 -172.649)" fill="#a3b4c1"/>
          <path id="Trazado_1014816" data-name="Trazado 1014816" d="M62.56,402.64c0,2.073-3,3.754-6.7,3.754s-6.7-1.681-6.7-3.754,3-3.754,6.7-3.754,6.7,1.68,6.7,3.754" transform="translate(-19.775 -160.42)" fill="#fff"/>
          <path id="Trazado_1014817" data-name="Trazado 1014817" d="M133.723,312.884c-.528-1.214-2.1-1.549-3.935-3.134a12.581,12.581,0,0,1-3.276-5.389,8.906,8.906,0,0,1-5.706,5.5,53,53,0,0,1-7.185,1.9s-.74,1.691,1.585,5.178,2.642,3.381,3.17,6.763c.392,2.513,2.535,5.025,3.915,6.367a12.638,12.638,0,0,0,4.541,3.586c3.566,1.268,8.4-3.962,9.272-8.559.844-4.447-1.577-11.267-2.381-12.209" transform="translate(-45.65 -122.405)" fill="#f9a6a0"/>
          <path id="Trazado_1014818" data-name="Trazado 1014818" d="M130.749,317.317a6.476,6.476,0,0,1,4.28-.555c2.3.555,1.03-1.585-1.744-1.664s-2.536,2.219-2.536,2.219" transform="translate(-52.581 -126.722)" fill="#2d3233"/>
          <path id="Trazado_1014819" data-name="Trazado 1014819" d="M119.731,319.987s-2.061-.08-2.774,1.426-1.664.158-.317-1.188,1.981-1.823,2.456-1.585.634,1.348.634,1.348" transform="translate(-46.636 -128.124)" fill="#2d3233"/>
          <path id="Trazado_1014820" data-name="Trazado 1014820" d="M135.828,322.355c.207.553.127,1.1-.181,1.211s-.725-.24-.933-.793-.127-1.1.181-1.211.725.24.932.793" transform="translate(-54.132 -129.314)" fill="#2d3233"/>
          <path id="Trazado_1014821" data-name="Trazado 1014821" d="M123.566,326.4c.207.553.127,1.1-.181,1.211s-.725-.24-.933-.793-.127-1.1.181-1.211.725.24.932.793" transform="translate(-49.201 -130.94)" fill="#2d3233"/>
          <path id="Trazado_1014822" data-name="Trazado 1014822" d="M129.961,332.955c-1.056-.155-2.155-.189-2.321-1.472-.1-.737-.059-1.5-.136-2.243-.094-.9-.223-1.8-.28-2.71-.013-.2-.329-.2-.317,0,.063,1.008.206,2.007.311,3.011a14.938,14.938,0,0,0,.213,2.5c.294,1.043,1.568,1.09,2.446,1.22.2.03.286-.276.084-.305" transform="translate(-51.038 -131.259)" fill="#2d3233"/>
          <path id="Trazado_1014823" data-name="Trazado 1014823" d="M134.783,340.537c-.173,1.135-1.088,1.529-2.146,1.469-.2-.012-.2.305,0,.317a2.1,2.1,0,0,0,2.452-1.7c.03-.2-.275-.286-.306-.084" transform="translate(-53.281 -136.908)" fill="#2d3233"/>
          <path id="Trazado_1014824" data-name="Trazado 1014824" d="M132.489,316.689l-.416-.634-2.3-.009-9.546,4.328.063.143c.005.014.032.075.075.17-.1-.017-.6-.087-.813.162a.761.761,0,0,0-.166.3c-.056-.167-.094-.274-.1-.293l-.052-.147-9.927,3.363.106.17c.1.158,2.458,3.878,5.52,3.958l.155,0a5.782,5.782,0,0,0,4.147-1.752,2.923,2.923,0,0,0,.932-1.985,13.014,13.014,0,0,0-.57-2.66.563.563,0,0,1,.313-.421,2.781,2.781,0,0,1,.718-.138,13.75,13.75,0,0,0,1.487,2.508,2.922,2.922,0,0,0,2.037.811,5.782,5.782,0,0,0,4.224-1.554h0l.112-.108c1.859-1.835,1.537-5.25,1.38-6.33Zm-12.641,7.8a2.619,2.619,0,0,1-.847,1.748,5.461,5.461,0,0,1-3.916,1.652l-.147,0c-2.534-.066-4.648-2.913-5.147-3.641l9.245-3.133a16.076,16.076,0,0,1,.812,3.375m8.415-1.807-.106.1a5.459,5.459,0,0,1-3.988,1.469,2.618,2.618,0,0,1-1.813-.7,16.135,16.135,0,0,1-1.713-3.019l8.89-4.031c.133.873.534,4.4-1.27,6.176" transform="translate(-43.959 -127.104)" fill="#2d3233"/>
          <path id="Trazado_1014825" data-name="Trazado 1014825" d="M109.707,329.168l4.458-1.01.258.376-4.339,1.07Z" transform="translate(-44.121 -131.975)" fill="#2d3233"/>
          <path id="Trazado_1014826" data-name="Trazado 1014826" d="M124.339,432.142s59.713-13.986,62.844-8.764-.36,15.065-12.727,16.03-80.928,9.434-80.928,9.434-3.291-4.044-2.52-4.42,33.331-12.281,33.331-12.281" transform="translate(-36.553 -169.8)" fill="#623f04"/>
        </g>
      </g>
    </g>
  </g>
</svg>
