<svg xmlns="http://www.w3.org/2000/svg" xmlns:xlink="http://www.w3.org/1999/xlink" width="84" height="84" viewBox="0 0 84 84">
  <defs>
    <clipPath id="clip-path">
      <rect id="Rectángulo_461824" data-name="Rectángulo 461824" width="61.731" height="61.742" fill="#c0f1e1"/>
    </clipPath>
  </defs>
  <g id="Grupo_1195523" data-name="Grupo 1195523" transform="translate(-656 -2018)">
    <g id="Grupo_1194738" data-name="Grupo 1194738" transform="translate(-49.711)">
      <g id="Grupo_1194737" data-name="Grupo 1194737" transform="translate(705.711 2018)" style="isolation: isolate">
        <g id="Grupo_1119665" data-name="Grupo 1119665" transform="translate(0)">
          <rect id="Rectángulo_402006" data-name="Rectángulo 402006" width="84" height="84" rx="5" fill="#104936"/>
        </g>
      </g>
    </g>
    <g id="Grupo_1194858" data-name="Grupo 1194858" transform="translate(665.094 2029.629)">
      <g id="Grupo_1194857" data-name="Grupo 1194857" clip-path="url(#clip-path)">
        <path id="Trazado_1014828" data-name="Trazado 1014828" d="M57.635,42.176h1.009a3.091,3.091,0,0,0,3.087-3.087v-36A3.091,3.091,0,0,0,58.644,0H57.635a3.091,3.091,0,0,0-3.087,3.087v.738A30.214,30.214,0,0,1,46.57,9.357c-.491-.584-.976-1.126-1.466-1.617a26.418,26.418,0,1,0-5.9,41.81l2.356,2.356a3.338,3.338,0,0,0,4.72,0l.444-.444,9.3,9.3a3.338,3.338,0,1,0,4.72-4.72l-9.3-9.3.445-.445a3.338,3.338,0,0,0,0-4.72l-2.365-2.364a26.491,26.491,0,0,0,1.791-3.963,35.811,35.811,0,0,1,3.228,3.368,3.157,3.157,0,0,0,3.087,3.559ZM56.606,3.087a1.031,1.031,0,0,1,1.029-1.029h1.009a1.03,1.03,0,0,1,1.029,1.029v36a1.031,1.031,0,0,1-1.029,1.029H57.635a1.031,1.031,0,0,1-1.029-1.029ZM59.3,57.5a1.28,1.28,0,0,1-1.81,1.81l-9.3-9.3,1.81-1.81ZM50.44,43.031a1.281,1.281,0,0,1,0,1.81l-5.61,5.61a1.311,1.311,0,0,1-1.81,0l-2-2a26.213,26.213,0,0,0,7.411-7.429l2,2Zm-6.79.63a24.37,24.37,0,1,1,0-34.464c.321.321.64.668.96,1.032-.9.365-1.786.681-2.653.955a21.332,21.332,0,0,0-15.54-6.555A21.817,21.817,0,1,0,47.464,32.1c.781.562,1.506,1.127,2.173,1.681a24.371,24.371,0,0,1-5.987,9.886ZM29.494,15v.015l.191,9.129H21.872a1.3,1.3,0,0,1-1.3-1.3V16.306a1.305,1.305,0,0,1,1.3-1.3h7.621ZM23.565,26.2h6.142v7.638a3.638,3.638,0,0,1-3.634,3.635H23.565V26.2Zm6.987-13.258h-8.68a3.365,3.365,0,0,0-3.361,3.362v6.537a3.354,3.354,0,0,0,3,3.324V38.507a1.029,1.029,0,0,0,1.029,1.029h3.537a5.7,5.7,0,0,0,5.693-5.693V26.233a28.367,28.367,0,0,1,13.882,4.635,19.761,19.761,0,1,1-5.966-19.041,35.446,35.446,0,0,1-9.131,1.121Zm1.193,11.22-.191-9.151c3.446-.042,14.173-.826,23-8.4V35.539c-3.493-3.641-11.827-10.945-22.8-11.373Z" transform="translate(0)" fill="#c0f1e1"/>
      </g>
    </g>
  </g>
</svg>
