<svg xmlns="http://www.w3.org/2000/svg" xmlns:xlink="http://www.w3.org/1999/xlink" width="292" height="765" viewBox="0 0 292 765">
  <defs>
    <clipPath id="clip-path">
      <rect id="Rectángulo_461837" data-name="Rectángulo 461837" width="292" height="765" transform="translate(1121.711 6456)" fill="#fff" stroke="#707070" stroke-width="1"/>
    </clipPath>
    <clipPath id="clip-path-2">
      <rect id="Rectángulo_461835" data-name="Rectángulo 461835" width="283.367" height="640.55" fill="none"/>
    </clipPath>
    <clipPath id="clip-path-4">
      <rect id="Rectángulo_461831" data-name="Rectángulo 461831" width="112.261" height="112.262" fill="none"/>
    </clipPath>
    <clipPath id="clip-path-5">
      <rect id="Rectángulo_461832" data-name="Rectángulo 461832" width="106.563" height="66.439" fill="none"/>
    </clipPath>
    <clipPath id="clip-path-6">
      <rect id="Rectángulo_461833" data-name="Rectángulo 461833" width="104.533" height="53.704" fill="none"/>
    </clipPath>
    <clipPath id="clip-path-7">
      <rect id="Rectángulo_461836" data-name="Rectángulo 461836" width="118.165" height="277.19" fill="none"/>
    </clipPath>
  </defs>
  <g id="Enmascarar_grupo_1193128" data-name="Enmascarar grupo 1193128" transform="translate(-1121.711 -6456)" clip-path="url(#clip-path)">
    <g id="Grupo_1194871" data-name="Grupo 1194871" transform="translate(1126.633 6456)">
      <g id="Grupo_1194870" data-name="Grupo 1194870" clip-path="url(#clip-path-2)">
        <g id="Grupo_1194869" data-name="Grupo 1194869">
          <g id="Grupo_1194868" data-name="Grupo 1194868" clip-path="url(#clip-path-2)">
            <path id="Trazado_1014829" data-name="Trazado 1014829" d="M147.964,190.277a1.42,1.42,0,0,0,.68-.761,171.358,171.358,0,0,0,8.654-89.378,171.352,171.352,0,0,0-37.771-81.465,1.422,1.422,0,1,0-2.176,1.832,168.506,168.506,0,0,1,37.143,80.112,168.506,168.506,0,0,1-8.511,87.893,1.422,1.422,0,0,0,1.98,1.768" transform="translate(-8.884 -1.379)" fill="#bbc4dc"/>
            <path id="Trazado_1014830" data-name="Trazado 1014830" d="M107.058,1.335A8.014,8.014,0,0,0,103.707.017a3.413,3.413,0,0,0-3.187,1.338,4.459,4.459,0,0,0-.164,3.633c1.2,4.159,4.23,7.6,7.757,10.117a32.671,32.671,0,0,0,8.263,4.475c3.576,1.176,2.306-2.965,1.538-5.007A26.6,26.6,0,0,0,107.058,1.335" transform="translate(-7.596 0)" fill="#bbc4dc"/>
            <path id="Trazado_1014831" data-name="Trazado 1014831" d="M143.6,15.422a5.552,5.552,0,0,0-.731-3.86c-1.273-1.634-3.857-1.46-5.7-.515-3.258,1.672-5.336,5.126-6.09,8.71a27.964,27.964,0,0,0,.344,10.91c.288,1.519.868,8.4,2.618,8.272,1.6-.119,4.181-5.787,4.861-7.091a42.3,42.3,0,0,0,4.7-16.426" transform="translate(-9.922 -0.785)" fill="#bbc4dc"/>
            <path id="Trazado_1014832" data-name="Trazado 1014832" d="M119.294,55.5a5.55,5.55,0,0,1-2.711-2.842c-.587-1.988,1.06-3.986,2.9-4.933,3.257-1.675,7.274-1.352,10.627.125a27.955,27.955,0,0,1,8.667,6.634c1.067,1.12,6.324,5.6,5.2,6.948-1.028,1.228-7.138.026-8.6-.181A42.3,42.3,0,0,1,119.294,55.5" transform="translate(-8.842 -3.538)" fill="#bbc4dc"/>
            <path id="Trazado_1014833" data-name="Trazado 1014833" d="M128.625,71.6a5.55,5.55,0,0,1-2.087-3.328c-.177-2.064,1.836-3.693,3.831-4.253,3.526-.989,7.4.131,10.387,2.248a27.956,27.956,0,0,1,7.164,8.234c.822,1.31,5.076,6.753,3.7,7.847-1.253,1-7-1.4-8.386-1.9A42.3,42.3,0,0,1,128.625,71.6" transform="translate(-9.606 -4.833)" fill="#bbc4dc"/>
            <path id="Trazado_1014834" data-name="Trazado 1014834" d="M136.888,93.772a5.546,5.546,0,0,1-1.452-3.65c.2-2.062,2.473-3.3,4.536-3.49,3.647-.335,7.252,1.467,9.809,4.088a27.955,27.955,0,0,1,5.559,9.393c.571,1.438,3.771,7.56,2.224,8.388-1.412.755-6.631-2.645-7.9-3.381a42.277,42.277,0,0,1-12.773-11.348" transform="translate(-10.281 -6.574)" fill="#bbc4dc"/>
            <path id="Trazado_1014835" data-name="Trazado 1014835" d="M178.869,100.233a5.548,5.548,0,0,0,.968-3.807c-.463-2.019-2.879-2.953-4.948-2.875-3.66.138-7,2.39-9.2,5.32a27.948,27.948,0,0,0-4.3,10.033c-.382,1.5-2.765,7.983-1.124,8.6,1.5.567,6.234-3.478,7.4-4.373a42.3,42.3,0,0,0,11.2-12.9" transform="translate(-12.124 -7.102)" fill="#bbc4dc"/>
            <path id="Trazado_1014836" data-name="Trazado 1014836" d="M139.1,120.262a5.55,5.55,0,0,1-1.66-3.56c.079-2.07,2.279-3.438,4.327-3.745,3.622-.546,7.325,1.045,10.029,3.516a27.968,27.968,0,0,1,6.091,9.058c.653,1.4,4.2,7.329,2.7,8.245-1.367.836-6.773-2.258-8.087-2.919a42.3,42.3,0,0,1-13.4-10.594" transform="translate(-10.434 -8.568)" fill="#bbc4dc"/>
            <path id="Trazado_1014837" data-name="Trazado 1014837" d="M182.029,141.788a5.55,5.55,0,0,0,1.772-3.506c-.014-2.072-2.169-3.508-4.206-3.881-3.6-.66-7.355.812-10.136,3.2a27.974,27.974,0,0,0-6.375,8.86c-.7,1.381-4.432,7.192-2.964,8.155,1.339.879,6.841-2.041,8.175-2.661a42.3,42.3,0,0,0,13.735-10.162" transform="translate(-12.131 -10.192)" fill="#bbc4dc"/>
            <path id="Trazado_1014838" data-name="Trazado 1014838" d="M121.99,28.762a19.514,19.514,0,0,0-11.8-3.027,9.258,9.258,0,0,0-5.274,2.075,5.311,5.311,0,0,0-1.76,5.179c.726,2.643,3.684,3.923,6.341,4.6a44.9,44.9,0,0,0,17.64.908c7.842-1.188-2.243-8-5.144-9.731" transform="translate(-7.82 -1.948)" fill="#bbc4dc"/>
            <path id="Trazado_1014839" data-name="Trazado 1014839" d="M158.964,149.14a19.517,19.517,0,0,0-6.6-10.244,9.251,9.251,0,0,0-5.278-2.063,5.311,5.311,0,0,0-4.813,2.6c-1.264,2.431.035,5.381,1.527,7.681a44.912,44.912,0,0,0,12.316,12.66c6.559,4.46,3.792-7.389,2.845-10.634" transform="translate(-10.763 -10.388)" fill="#bbc4dc"/>
            <path id="Trazado_1014840" data-name="Trazado 1014840" d="M145.339,51.686A19.512,19.512,0,0,1,150.3,40.557a9.25,9.25,0,0,1,4.9-2.843,5.315,5.315,0,0,1,5.153,1.839c1.62,2.211.785,5.324-.339,7.824a44.9,44.9,0,0,1-10.247,14.386c-5.8,5.406-4.873-6.725-4.43-10.077" transform="translate(-11.009 -2.857)" fill="#bbc4dc"/>
            <path id="Trazado_1014841" data-name="Trazado 1014841" d="M154.872,77.733A19.513,19.513,0,0,1,159.834,66.6a9.25,9.25,0,0,1,4.9-2.843,5.315,5.315,0,0,1,5.153,1.839c1.62,2.211.785,5.324-.339,7.824A44.9,44.9,0,0,1,159.3,87.81c-5.8,5.406-4.873-6.725-4.43-10.077" transform="translate(-11.732 -4.834)" fill="#bbc4dc"/>
            <path id="Trazado_1014842" data-name="Trazado 1014842" d="M172.457,197.118c2.214-13.383-3.95-26.888-13.314-36.71-6.145-6.445-14.337-10.134-18.724-18.374-5.162-9.7-4.263-20.8-5-31.762s-2.612-22.131-12.51-28.657c-7.345-4.842-17.3-4.474-25.248-7.639-8.989-3.583-14.8-11.088-21.379-17.123S61.614,47.142,54.55,53.2C49.288,57.709,50.53,65.152,52.333,70.9s5.739,11.056,5.477,17.113c-.336,7.8-6.53,12.63-6.734,20.594-.214,8.325,6.614,13.98,13.391,18.208s14.95,6.233,19.07,13.784c6.5,11.917-1.065,23.851-1.953,36.539-1.211,17.308,3.207,33.731,18.641,44.466,25.948,18.047,66.383,10.859,72.231-24.489" transform="translate(-3.855 -3.803)" fill="#abedd7"/>
            <path id="Trazado_1014843" data-name="Trazado 1014843" d="M144.557,222.9c-2.3-7.551-4.866-15.012-7.434-22.474q-3.956-11.157-8.184-22.218c-2.781-7.389-5.79-14.688-8.838-21.971s-6.192-14.528-9.479-21.71c-3.341-7.158-6.76-14.281-10.387-21.3-.885-1.766-1.815-3.51-2.739-5.255s-1.831-3.5-2.8-5.226L91.832,97.56l-3.005-5.112C84.762,85.668,80.5,79,75.862,72.593A124.229,124.229,0,0,0,60.316,54.736,135.314,135.314,0,0,1,75,73.2c4.438,6.5,8.523,13.227,12.395,20.076,7.725,13.711,14.762,27.811,21.274,42.151,6.661,14.273,12.779,28.8,18.738,43.389q4.488,10.936,8.732,21.975c2.9,7.333,5.664,14.717,8.417,22.11" transform="translate(-4.579 -4.156)" fill="#25a77c"/>
            <path id="Trazado_1014844" data-name="Trazado 1014844" d="M105.639,78.713c-.808,2.271-1.469,4.548-2.093,6.83s-1.21,4.561-1.812,6.831c-.558,2.283-1.178,4.541-1.789,6.8a54.634,54.634,0,0,1-2.211,6.708,19.7,19.7,0,0,0,3.793-6.147,47.266,47.266,0,0,0,2.289-6.823,63.206,63.206,0,0,0,1.369-7.033,43.879,43.879,0,0,0,.455-7.164" transform="translate(-7.42 -5.976)" fill="#25a77c"/>
            <path id="Trazado_1014845" data-name="Trazado 1014845" d="M57.049,102.649a55.255,55.255,0,0,0,9.431,8.167,70.07,70.07,0,0,0,10.875,6.213c1.9.889,3.862,1.618,5.822,2.352.991.341,2,.616,3,.926l1.5.45,1.535.337c1.025.216,2.042.457,3.068.651l3.11.4c.518.055,1.034.128,1.553.171l1.564.055q1.564.047,3.117.048a107.871,107.871,0,0,1-11.972-2.949,90.436,90.436,0,0,1-11.408-4.4,114.823,114.823,0,0,1-10.864-5.665c-3.524-2.092-6.968-4.334-10.337-6.76" transform="translate(-4.331 -7.793)" fill="#25a77c"/>
            <path id="Trazado_1014846" data-name="Trazado 1014846" d="M139.384,112.556c-2.717,7.479-5.121,14.985-7.847,22.37-1.323,3.706-2.738,7.373-4.286,10.977a76.413,76.413,0,0,1-5.333,10.528,40.02,40.02,0,0,0,6.847-9.8c.978-1.751,1.751-3.591,2.6-5.4.754-1.845,1.517-3.691,2.194-5.563,1.347-3.75,2.541-7.55,3.512-11.407a95.514,95.514,0,0,0,2.316-11.7" transform="translate(-9.256 -8.545)" fill="#25a77c"/>
            <path id="Trazado_1014847" data-name="Trazado 1014847" d="M88.341,176.073a52.137,52.137,0,0,0,9.333,3.919,68.917,68.917,0,0,0,9.874,2.364,56.849,56.849,0,0,0,10.167.626,35.234,35.234,0,0,0,9.987-1.828,85.046,85.046,0,0,1-9.978.15c-3.3-.228-6.579-.554-9.845-1.072-6.539-1.028-12.993-2.54-19.538-4.158" transform="translate(-6.707 -13.368)" fill="#25a77c"/>
            <path id="Trazado_1014848" data-name="Trazado 1014848" d="M69.113,165.232c-3.312-2.579-6.877-5.024-10.96-6s-8.812-.209-11.661,2.874c-3.62,3.915-3.1,10.332-.353,14.9s7.221,7.774,11.433,11.044a179.267,179.267,0,0,1,41.86,46.27c2.664,4.25,6.488,10.253,12.167,10.061,3.231-12.3-6.786-32.754-12.536-43.458a113.171,113.171,0,0,0-29.949-35.693" transform="translate(-3.335 -12.059)" fill="#86c3f2"/>
            <path id="Trazado_1014849" data-name="Trazado 1014849" d="M102.371,223.484a171.02,171.02,0,0,0-9.76-16.415,190.647,190.647,0,0,0-11.349-15.394,134.805,134.805,0,0,0-13.075-14,70.164,70.164,0,0,0-15.524-11.153q1.916,1.443,3.841,2.817c1.27.94,2.425,2.039,3.636,3.046,1.236.979,2.353,2.105,3.5,3.19s2.314,2.14,3.382,3.308L70.3,182.29l3.166,3.522c1.073,1.155,2.065,2.39,3.1,3.581s2.051,2.4,3.029,3.645c4.042,4.86,7.857,9.914,11.643,14.992.96,1.261,1.873,2.556,2.813,3.832s1.865,2.565,2.791,3.854c1.889,2.553,3.686,5.169,5.525,7.768" transform="translate(-3.998 -12.643)" fill="#b6d8f3"/>
            <rect id="Rectángulo_461825" data-name="Rectángulo 461825" width="38.476" height="14.112" transform="translate(134.565 123.061)" fill="#a5b0d0"/>
            <path id="Trazado_1014850" data-name="Trazado 1014850" d="M250.654,432H62.188a18.25,18.25,0,0,1-18.25-18.25V177.173a18.25,18.25,0,0,1,18.25-18.25H250.654a18.25,18.25,0,0,1,18.25,18.25V413.755A18.25,18.25,0,0,1,250.654,432" transform="translate(-3.336 -12.066)" fill="#a5b0d0"/>
            <path id="Trazado_1014851" data-name="Trazado 1014851" d="M251.562,422.991H62.609a9.916,9.916,0,0,1-9.916-9.916V179.467a9.916,9.916,0,0,1,9.916-9.916H251.562a9.916,9.916,0,0,1,9.916,9.916V413.075a9.916,9.916,0,0,1-9.916,9.916" transform="translate(-4.001 -12.873)" fill="#e0e8fc"/>
            <rect id="Rectángulo_461826" data-name="Rectángulo 461826" width="9.872" height="41.754" transform="translate(138.182 325.302)" fill="#a5b0d0"/>
            <path id="Trazado_1014852" data-name="Trazado 1014852" d="M177.555,332.991v49.06l-9.872,7.841v-56.9Z" transform="translate(-12.731 -25.281)" fill="#a5b0d0"/>
            <path id="Trazado_1014853" data-name="Trazado 1014853" d="M195.7,317.822v73.363h-5.555V371.993l-4.317,3.429v-57.6Z" transform="translate(-14.109 -24.13)" fill="#a5b0d0"/>
            <path id="Trazado_1014854" data-name="Trazado 1014854" d="M213.851,383V304.7h-9.872v85.486h.787Z" transform="translate(-15.486 -23.134)" fill="#a5b0d0"/>
            <path id="Trazado_1014855" data-name="Trazado 1014855" d="M232,295.34v73.691l-9.872,7.807v-81.5Z" transform="translate(-16.864 -22.423)" fill="#a5b0d0"/>
            <path id="Trazado_1014856" data-name="Trazado 1014856" d="M250.146,279.512V363.04l-3.5,6.139-.457-11.482-5.915,4.678V279.512Z" transform="translate(-18.242 -21.221)" fill="#a5b0d0"/>
            <path id="Trazado_1014857" data-name="Trazado 1014857" d="M256.355,340.562,240.9,367.675l-3.5,6.139-.457-11.483-5.915,4.679-6.9,5.455-9.872,7.808-6.9,5.455-9.085,7.185-13.24,10.471V373.718l-4.318,3.429-6.9,5.478-9.872,7.841-40.69,32.315-4.808-9.03,28.728-22.815,9.872-7.84,6.9-5.479,9.872-7.84,6.9-5.478,9.873-7.841,3.265-2.593v29.708l3.633-2.873,9.873-7.807,6.9-5.456,9.872-7.807,6.9-5.456,1.121-.887-1.121-.695-6.9-4.278-.37-.23.37-.086,6.9-1.591,9.872-2.28Z" transform="translate(-8.993 -25.856)" fill="#a5b0d0"/>
            <rect id="Rectángulo_461827" data-name="Rectángulo 461827" width="76.747" height="25.464" transform="translate(69.651 181.86)" fill="#a5b0d0"/>
            <rect id="Rectángulo_461828" data-name="Rectángulo 461828" width="76.747" height="12.233" transform="translate(69.651 215.147)" fill="#a5b0d0"/>
            <rect id="Rectángulo_461829" data-name="Rectángulo 461829" width="76.747" height="12.233" transform="translate(69.651 234.453)" fill="#a5b0d0"/>
            <path id="Trazado_1014858" data-name="Trazado 1014858" d="M200.022,185.984l14.455,29.957-17.034,28.567a33.263,33.263,0,0,1,2.579-58.524" transform="translate(-13.758 -14.12)" fill="#a5b0d0"/>
            <path id="Trazado_1014859" data-name="Trazado 1014859" d="M252.21,223.448l-32.4-7.56,9.331-31.929a33.3,33.3,0,0,1,23.067,39.489" transform="translate(-16.688 -13.966)" fill="#a5b0d0"/>
            <path id="Trazado_1014860" data-name="Trazado 1014860" d="M216.77,212.4l-14.455-29.957a33.282,33.282,0,0,1,23.787-1.972Z" transform="translate(-15.36 -13.6)" fill="#a5b0d0"/>
            <path id="Trazado_1014861" data-name="Trazado 1014861" d="M245.773,237.518a33.26,33.26,0,0,1-45.206,12.992q-.469-.259-.927-.532l17.035-28.567,32.4,7.56a33.329,33.329,0,0,1-3.3,8.548" transform="translate(-15.157 -16.81)" fill="#a5b0d0"/>
            <rect id="Rectángulo_461830" data-name="Rectángulo 461830" width="101.908" height="28.736" transform="translate(102.131 133.828)" fill="#787884"/>
            <path id="Trazado_1014862" data-name="Trazado 1014862" d="M173.605,131.536a8.654,8.654,0,1,1-8.653-8.653A8.654,8.654,0,0,1,173.605,131.536Z" transform="translate(-11.866 -9.329)" fill="none" stroke="#9e9eaf" stroke-miterlimit="10" stroke-width="4.712"/>
            <path id="Trazado_1014863" data-name="Trazado 1014863" d="M271.856,445.031H187.662c-6.686,0-11.094,10.155-8.231,18.966s-1.545,18.967-8.232,18.967H51.894c-6.63,0-11.039,10-8.286,18.795L46.42,634.2c1.48,4.731,4.718,7.767,8.285,7.767H277.5c6.364,0,10.766-9.273,8.525-17.958L280.38,453.635c-1.335-5.177-4.731-8.6-8.525-8.6" transform="translate(-3.248 -33.787)" fill="#f59e0b"/>
            <path id="Trazado_1014864" data-name="Trazado 1014864" d="M283.88,635.709H57.831L42.77,454.783H268.819Z" transform="translate(-3.247 -34.528)" fill="#f0f4f7"/>
            <path id="Trazado_1014865" data-name="Trazado 1014865" d="M282.643,636.588H56.594L26.472,466.368H252.521Z" transform="translate(-2.01 -35.408)" fill="#d6d9dd"/>
            <path id="Trazado_1014866" data-name="Trazado 1014866" d="M281.968,637.248H55.919L17.582,475.057H243.631Z" transform="translate(-1.335 -36.067)" fill="#f0f4f7"/>
            <path id="Trazado_1014867" data-name="Trazado 1014867" d="M229.081,484.906H144.887c-6.686,0-11.094,8.662-8.231,16.178s-1.545,16.178-8.232,16.178H9.119c-6.63,0-11.039,8.529-8.286,16.031L40.439,641.225c1.481,4.035,4.719,6.625,8.286,6.625H271.516c6.363,0,10.765-7.909,8.525-15.318L237.605,492.245c-1.335-4.415-4.731-7.339-8.525-7.339" transform="translate(0 -36.815)" fill="#f59e0b"/>
            <path id="Trazado_1014868" data-name="Trazado 1014868" d="M44.722,426.964c-.444-.628-5.477-7.232-16.268-.686,0,0,5.6-2.779,7.985-1.083,0,0-5.379-.507-7.663,2.283s-.676,8.939.393,10.608,6.166,5.97,8.291,5.229a6.667,6.667,0,0,0,2.214-1.445,29.7,29.7,0,0,0,.238,3.459c1.446,11.4,11.32,17.009,14.274,13.741,1.9-2.095,5.1,1.384,5.1,1.384l10.446-32.527s-19.21-11.545-25-.965" transform="translate(-2.097 -32.077)" fill="#623f04"/>
            <path id="Trazado_1014869" data-name="Trazado 1014869" d="M61.988,668.227a7.317,7.317,0,0,1,.424,5.487c-1.029,2.8-2.245,6.311-2.249,8.746s-1.86,7.051-5.666,8.4-6.121-.657-5.931-3.8,3.529-7.6,3.529-7.6Z" transform="translate(-3.686 -50.733)" fill="#152860"/>
            <path id="Trazado_1014870" data-name="Trazado 1014870" d="M70.545,584.9c-.148,3.769-.346,7.711-.346,7.711A58.9,58.9,0,0,1,67.723,600c4.23,1.325,8.563,1.165,12.576,3.033.143-.94,1.18-9.232,4.9-12.887a4.662,4.662,0,0,0,.59-1.744c-5.069-1.213-10.191-2.219-15.244-3.5" transform="translate(-5.142 -44.407)" fill="#fbc0a4"/>
            <path id="Trazado_1014871" data-name="Trazado 1014871" d="M80.3,602.733a6.51,6.51,0,1,1-6.888-6.108,6.509,6.509,0,0,1,6.888,6.108" transform="translate(-5.109 -45.296)" fill="#fbc0a4"/>
            <path id="Trazado_1014872" data-name="Trazado 1014872" d="M95.03,587.1c-2.792,0-6-.61-8.922-.44.018,4.931.047,9.99.094,15.051,4.489-.139,13-.781,13-.781a98.417,98.417,0,0,0,2.341-13.842q-3.255.017-6.509.011" transform="translate(-6.537 -44.538)" fill="#fbc0a4"/>
            <path id="Trazado_1014873" data-name="Trazado 1014873" d="M99.205,601.6a6.51,6.51,0,1,1-6.888-6.108,6.509,6.509,0,0,1,6.888,6.108" transform="translate(-6.544 -45.21)" fill="#fbc0a4"/>
            <path id="Trazado_1014874" data-name="Trazado 1014874" d="M100.893,663.473a18.085,18.085,0,0,1-3.77-6.636c-1.613-4.293,2.1-27.723,3.286-40.242h0c.695-5.687-.7-12.259-1.2-14.493-4.7.506-8.265.649-13,.781.019,1.861.006,7.417.03,9.257.017,1.246.054,2.471.1,3.69l-.007,0a131.209,131.209,0,0,0,2.1,23.921c3.33,16.2,1.283,20.639,1.214,20.935,0,0,.992,4.033,2.8,4.3,4.97.725,8.2,6.671,11.228,5.869S107.2,669.2,107.2,669.2s-5-3.551-6.311-5.726" transform="translate(-6.545 -45.713)" fill="#fbc0a4"/>
            <path id="Trazado_1014875" data-name="Trazado 1014875" d="M99.205,601.6a6.51,6.51,0,1,1-6.888-6.108,6.509,6.509,0,0,1,6.888,6.108" transform="translate(-6.544 -45.21)" fill="#fbc0a4"/>
            <path id="Trazado_1014876" data-name="Trazado 1014876" d="M101.5,526.637c9.256,21.462-.274,57.318-.274,57.318s-16.805,9.063-33.075,3.284l-7.469-26.094s-5.807-21.318,6.782-31.692,34.036-2.816,34.036-2.816" transform="translate(-4.506 -39.781)" fill="#122353"/>
            <path id="Trazado_1014877" data-name="Trazado 1014877" d="M106.012,674.951c1.479-.245-2.766-4.232-2.483-4.062s9.692,6.722,10.4,8.291c.262.578-.131,1.694-1.927,1.924s-7.831-1.2-9.569-1.7-8.067-7.7-9.361-8.2-1.025,7.25-1.3,7.352l-1.028-.621s-2.215-7.885-.86-12.43c0,0,1.334.164,4.577,3.029,3.453,3.05,9.492,6.764,11.55,6.423" transform="translate(-6.791 -50.526)" fill="#152860"/>
            <path id="Trazado_1014878" data-name="Trazado 1014878" d="M92.282,493.872c3.669-4.255,3.221-7.923,1.527-10.724.056-.055.116-.105.171-.163a7.153,7.153,0,0,0-3.6-11.925l0-.018s-.5-.262-9.7-1.965c-5.463-1.108-11.466-3.929-21.111,3.029-2.15,2.211-6.9,3.968-10.559,7.9a7.167,7.167,0,0,0,4.639,12.953,7.064,7.064,0,0,0,1.051-.146c2.365,5.395,7.959,19.793,7.959,19.793l-2.022,14.96c21.85,9.787,41.839-4.329,41.839-4.329Z" transform="translate(-3.495 -35.499)" fill="#1e3a8a"/>
            <path id="Trazado_1014879" data-name="Trazado 1014879" d="M98.383,475.675a7.178,7.178,0,1,1-6.853-4.543,7.145,7.145,0,0,1,6.853,4.543" transform="translate(-6.417 -35.769)" fill="#8ed6bc"/>
            <path id="Trazado_1014880" data-name="Trazado 1014880" d="M123.749,487.092l-1.094.126c-.951.02-23.39.489-32.383-1.966l-.763-.208,3.413-13.872.757.145c10.437,2,26.529,3.409,28.727,3.491l.762.029Z" transform="translate(-6.796 -35.772)" fill="#1e3a8a"/>
            <path id="Trazado_1014881" data-name="Trazado 1014881" d="M66.6,484.362l-5.6.336s-1.158-7.166-1.447-11.915a29.531,29.531,0,0,1,22.158-3.643c1.108.231,2.209.514,3.262.817l3.2,7.367-2.8,2.083,4.292,2.44-1,26.523L64.726,489.343Z" transform="translate(-4.521 -35.562)" fill="#152860"/>
            <path id="Trazado_1014882" data-name="Trazado 1014882" d="M75.516,470.824a9.138,9.138,0,0,1-4.64,1.757c-2.707.237-3.792-1.29-4.712-1.478L56.149,451.322l16.341,6.217.078.671Z" transform="translate(-4.263 -34.265)" fill="#fbc0a4"/>
            <path id="Trazado_1014883" data-name="Trazado 1014883" d="M70.763,464.767a15.969,15.969,0,0,1-4.971-1.131,33.383,33.383,0,0,1-4.48-2.113l-5.164-10.2,16.341,6.216.077.672,1.558,6.664c-1.12-.043-2.241-.044-3.362-.108" transform="translate(-4.263 -34.265)" fill="#f9b092"/>
            <path id="Trazado_1014884" data-name="Trazado 1014884" d="M81.013,471.181l8.266,37.4L67.758,478.8s4.98-4.513,6.81-5.49a41.3,41.3,0,0,1,6.445-2.126" transform="translate(-5.144 -35.773)" fill="#f3f4f5"/>
            <path id="Trazado_1014885" data-name="Trazado 1014885" d="M51.058,444.664s-4.671-.293-3.319,4.7,5.045,4.544,6.164,4.6c0,0,3.381,8.746,14.416,6.207s7.909-10.91,6.968-16.63-1.793-15.769-9.21-15.408c-7.482.364-17.8,2.405-15.018,16.53" transform="translate(-3.606 -32.504)" fill="#fbc0a4"/>
            <path id="Trazado_1014886" data-name="Trazado 1014886" d="M64.036,467.2s7.458,5.7,9.083,5.335,1.418-6.55,1.418-6.55,4.135.866,4.9,1.639,2.282,8.4,2.282,8.4c-1.172,1.386-7.1-2.941-7.95-2.194s-4.128,6.577-4.962,6.533c0,0-7.384-8.429-7.247-9.9.059-.635,2.478-3.264,2.478-3.264" transform="translate(-4.673 -35.379)" fill="#fff"/>
            <path id="Trazado_1014887" data-name="Trazado 1014887" d="M59.989,634.859c-1.227,12.564-1.149,25.73-6.587,37.454a11.014,11.014,0,0,0-1.14,3.19,3.216,3.216,0,0,0,1.114,3.04,3.06,3.06,0,0,0,3.341-.136,6.985,6.985,0,0,0,2.208-2.732c2.986-5.724,3.129-12.45,4.6-18.735,2.113-9,6.539-17.046,9.513-25.728,2.981-8.7,4.463-18.011,6.1-27.037-4.128-1.166-8.324-2.551-12.6-2.934,0,0-3.153,7.107-3.445,7.908a46.1,46.1,0,0,0-2.16,8.112c-.974,5.779-.383,11.769-.953,17.6" transform="translate(-3.965 -45.647)" fill="#fbc0a4"/>
            <path id="Trazado_1014888" data-name="Trazado 1014888" d="M80.3,602.733a6.51,6.51,0,1,1-6.888-6.108,6.509,6.509,0,0,1,6.888,6.108" transform="translate(-5.109 -45.296)" fill="#fbc0a4"/>
            <path id="Trazado_1014889" data-name="Trazado 1014889" d="M72.36,427.85c-3.669-2.69-5.6-1.406-6.529-.082a13.092,13.092,0,0,0-15.655,6.749,22.283,22.283,0,0,1-3.829,14.553s3.828,1.2,10.959-2.692a13.373,13.373,0,0,0,5.1-5.831A43.686,43.686,0,0,1,57.372,451.3c8.043-6.522,8.488-20.124,8.513-21.556,1.361.714,4.094,2.322,5.3,4.272,1.636,2.65,3.546,8.475,5.223,7.835,0,0,1.457-9.967-4.045-14" transform="translate(-3.519 -32.363)" fill="#623f04"/>
            <path id="Trazado_1014890" data-name="Trazado 1014890" d="M113.314,447.038c.551,0,1.191,0,1.532.429a1.692,1.692,0,0,1,.269.894,2.181,2.181,0,0,1-.374,1.851,1.832,1.832,0,0,1-.572.335,12.288,12.288,0,0,1-4.788.6.663.663,0,0,1-.377-.079.672.672,0,0,1-.205-.511q-.047-.507-.1-1.015a4.36,4.36,0,0,1,.112-1.951c.373-.992.873-1.69,1.787-1.354.313.116.57.492.936.624a5.642,5.642,0,0,0,1.775.176" transform="translate(-8.249 -33.873)" fill="#fbc0a4"/>
            <path id="Trazado_1014891" data-name="Trazado 1014891" d="M110.172,306.683a66.184,66.184,0,1,1,14.122,112.146L92.04,478l-8.989-4.9,32.255-59.176a66.193,66.193,0,0,1-5.134-107.247" transform="translate(-6.305 -22.192)" fill="#f8a51e"/>
            <path id="Trazado_1014892" data-name="Trazado 1014892" d="M125.507,408.572a56.128,56.128,0,1,0-22.421-76.145,56.19,56.19,0,0,0,22.421,76.145" transform="translate(-7.307 -23.017)" fill="#eaf5ff"/>
            <g id="Grupo_1194861" data-name="Grupo 1194861" transform="translate(88.93 280.142)" opacity="0.5">
              <g id="Grupo_1194860" data-name="Grupo 1194860">
                <g id="Grupo_1194859" data-name="Grupo 1194859" clip-path="url(#clip-path-4)">
                  <path id="Trazado_1014893" data-name="Trazado 1014893" d="M133.095,412a55.929,55.929,0,1,0-21.063-13.693A56.192,56.192,0,0,0,133.095,412" transform="translate(-96.237 -303.158)" fill="#dbeffe"/>
                </g>
              </g>
            </g>
            <g id="Grupo_1194864" data-name="Grupo 1194864" transform="translate(88.93 288.582)" opacity="0.5">
              <g id="Grupo_1194863" data-name="Grupo 1194863">
                <g id="Grupo_1194862" data-name="Grupo 1194862" clip-path="url(#clip-path-5)">
                  <path id="Trazado_1014894" data-name="Trazado 1014894" d="M99.49,378.731,202.8,335.407a56.053,56.053,0,0,0-20.825-23.114L97.6,347.675a55.891,55.891,0,0,0,1.888,31.056" transform="translate(-96.237 -312.292)" fill="#fff"/>
                </g>
              </g>
            </g>
            <g id="Grupo_1194867" data-name="Grupo 1194867" transform="translate(96.639 321.59)" opacity="0.5">
              <g id="Grupo_1194866" data-name="Grupo 1194866">
                <g id="Grupo_1194865" data-name="Grupo 1194865" clip-path="url(#clip-path-6)">
                  <path id="Trazado_1014895" data-name="Trazado 1014895" d="M112.664,401.716l96.448-40.447a55.988,55.988,0,0,0-1.957-13.257L104.579,391.029a56.214,56.214,0,0,0,8.085,10.687" transform="translate(-104.579 -348.012)" fill="#fff"/>
                </g>
              </g>
            </g>
            <path id="Trazado_1014896" data-name="Trazado 1014896" d="M82.267,466.359,39.29,545.208c-3.465,6.359-1.53,14.1,4.323,17.289s13.407.623,16.874-5.737l42.977-78.849c3.466-6.359,1.53-14.1-4.323-17.29a11.561,11.561,0,0,0-9.332-.711,13.64,13.64,0,0,0-7.541,6.447" transform="translate(-2.852 -34.867)" fill="#736357" fill-rule="evenodd"/>
            <path id="Trazado_1014897" data-name="Trazado 1014897" d="M87.34,496.667c-2.637,4.838-1.165,10.731,3.29,13.16.116.063.23.121.346.176l9.542-17.507c-.109-.067-.22-.132-.335-.2-4.456-2.428-10.2-.474-12.842,4.366" transform="translate(-6.532 -37.297)" fill="#534741" fill-rule="evenodd"/>
            <path id="Trazado_1014898" data-name="Trazado 1014898" d="M74.976,519.349c-2.636,4.838-1.165,10.731,3.291,13.16.116.063.229.121.346.176l9.542-17.507c-.109-.068-.22-.132-.335-.195-4.456-2.428-10.2-.474-12.843,4.366" transform="translate(-5.593 -39.019)" fill="#534741" fill-rule="evenodd"/>
            <path id="Trazado_1014899" data-name="Trazado 1014899" d="M62.613,542.032c-2.636,4.838-1.165,10.731,3.291,13.16.116.063.229.121.346.176l9.542-17.507c-.109-.067-.22-.132-.335-.195-4.456-2.428-10.2-.474-12.843,4.366" transform="translate(-4.654 -40.741)" fill="#534741" fill-rule="evenodd"/>
            <path id="Trazado_1014900" data-name="Trazado 1014900" d="M72.865,450.389h0" transform="translate(-5.532 -34.194)" fill="#623f04"/>
            <path id="Trazado_1014901" data-name="Trazado 1014901" d="M92.163,602.777q1.832-.251,3.672-.455c.37-.041.4.535.034.577q-1.838.2-3.672.454c-.368.051-.4-.526-.034-.576" transform="translate(-6.978 -45.729)" fill="#623f04"/>
            <path id="Trazado_1014902" data-name="Trazado 1014902" d="M73,599.3a.293.293,0,0,1,.4.079,2.336,2.336,0,0,0,2.136.932.288.288,0,1,1,.035.576,2.918,2.918,0,0,1-2.65-1.187.291.291,0,0,1,.079-.4" transform="translate(-5.533 -45.496)" fill="#623f04"/>
            <path id="Trazado_1014903" data-name="Trazado 1014903" d="M59.847,542.229a2.8,2.8,0,1,1-3.864-.859,2.8,2.8,0,0,1,3.864.859" transform="translate(-4.152 -41.069)" fill="#1e3a8a"/>
            <path id="Trazado_1014904" data-name="Trazado 1014904" d="M59.917,542.336c1.556,1.418,5.467.3,7.09.7s1.986,2.59,1.986,2.59a13.487,13.487,0,0,1,1.807,2.213c.5.908-.215,1.759-1.654,1.859s-.659,1.576-1.865,2.379-2.355.166-3.078,1.819-8.6-8.054-8.6-8.054Z" transform="translate(-4.221 -41.175)" fill="#1e3a8a"/>
            <path id="Trazado_1014905" data-name="Trazado 1014905" d="M38.678,523.487a6.208,6.208,0,1,1,5.574-4.415,6.21,6.21,0,0,1-5.574,4.415" transform="translate(-2.437 -38.802)" fill="#1e3a8a"/>
            <path id="Trazado_1014906" data-name="Trazado 1014906" d="M53.216,544.694,55,546.853l5.6-5.328-2.078-1.839Z" transform="translate(-4.04 -40.974)" fill="#1e3a8a"/>
            <path id="Trazado_1014907" data-name="Trazado 1014907" d="M51.211,543.54c-3.437-3.331-17.5-21.886-18.081-22.7l-.6-1.2,10.62-6.192.432.7a79.194,79.194,0,0,1,4.6,9.122c.653,1.482,10.6,14.492,10.6,14.492l-7.05,6.319Z" transform="translate(-2.47 -38.982)" fill="#1e3a8a"/>
            <path id="Trazado_1014908" data-name="Trazado 1014908" d="M53.649,493.867a7.178,7.178,0,1,1,6.445-5.1,7.139,7.139,0,0,1-6.445,5.1" transform="translate(-3.495 -36.406)" fill="#1e3a8a"/>
            <path id="Trazado_1014909" data-name="Trazado 1014909" d="M32.146,514.406l.22-1.077c.275-.911,8.636-22.5,13.76-30.287l.435-.661,12.128,7.549-.372.674c-5.135,9.3-13.315,24.274-14.076,26.337l-.263.715Z" transform="translate(-2.441 -36.623)" fill="#1e3a8a"/>
            <path id="Trazado_1014910" data-name="Trazado 1014910" d="M38.685,523.487a6.211,6.211,0,1,1,2.955-.96,6.215,6.215,0,0,1-2.955.96" transform="translate(-2.437 -38.802)" fill="#1e3a8a"/>
            <path id="Trazado_1014911" data-name="Trazado 1014911" d="M112.731,439.979c.2.089.513.2,1.446,1.436.869,1.151,1.806,2.524,1.65,3.764a2.868,2.868,0,0,1-.429,1.112c-1.436,2.422-3.851,3.839-6.2,5.2a.912.912,0,0,1-.637.174c-.353-.067-.651-.438-.9-.774l-1.34-1.809a12.546,12.546,0,0,1-2.148-3.728c-.5-1.694-.669-3.12.1-3.731a1.9,1.9,0,0,1,.874-.31c2.494-.536,2.961-1.3,4.77-1.576a5.448,5.448,0,0,1,2.812.247" transform="translate(-7.877 -33.379)" fill="#fbc0a4"/>
            <path id="Trazado_1014912" data-name="Trazado 1014912" d="M125.636,474.994a6.209,6.209,0,1,1-6.273,3.348,6.209,6.209,0,0,1,6.273-3.348" transform="translate(-9.011 -36.059)" fill="#1e3a8a"/>
            <path id="Trazado_1014913" data-name="Trazado 1014913" d="M116.449,449.274l-1.369-2.443-6.464,4.242,1.716,2.18Z" transform="translate(-8.246 -33.924)" fill="#1e3a8a"/>
            <path id="Trazado_1014914" data-name="Trazado 1014914" d="M117.02,448.615c2.786,3.891,12.4,27.2,12.832,28.11l.379,1.289-11.556,4.194-.3-.761a79.462,79.462,0,0,1-2.892-9.8c-.378-1.576-6.939-18.7-6.939-18.7l8.064-4.959Z" transform="translate(-8.241 -34.013)" fill="#1e3a8a"/>
            <path id="Trazado_1014915" data-name="Trazado 1014915" d="M151.49,236.2c-1.519-.384,3.25-4.167,2.94-4.014s-10.68,6.154-11.559,7.727c-.323.579-.01,1.775,1.839,2.173s8.261-.566,10.115-.94,9.074-7.321,10.466-7.726.434,7.641.714,7.771l1.126-.557s2.995-8.019,1.981-12.871c0,0-1.4.055-5.033,2.756-3.862,2.876-10.476,6.217-12.59,5.682" transform="translate(-10.839 -17.292)" fill="#152860"/>
            <path id="Trazado_1014916" data-name="Trazado 1014916" d="M156.662,225.339a18.256,18.256,0,0,0,4.327-6.378c1.967-4.193.105-28.077-.088-40.774h0c-.245-5.781,1.689-12.285,2.371-14.493,4.693.885,8.269,1.314,13.02,1.825-.168,1.872-.6,7.467-.772,9.317-.116,1.253-.251,2.483-.391,3.707l.007,0a132.5,132.5,0,0,1-4.025,23.912c-4.649,16.041-2.943,20.674-2.9,20.978,0,0-1.321,3.981-3.159,4.1-5.061.333-8.794,6.059-11.774,5.009s-3.43-1.945-3.43-1.945,5.317-3.175,6.812-5.26" transform="translate(-11.377 -12.428)" fill="#fbc0a4"/>
            <path id="Trazado_1014917" data-name="Trazado 1014917" d="M164.369,163.227a6.574,6.574,0,1,0,7.423-5.6,6.574,6.574,0,0,0-7.423,5.6" transform="translate(-12.474 -11.963)" fill="#fbc0a4"/>
            <path id="Trazado_1014918" data-name="Trazado 1014918" d="M160.915,231.948a18.252,18.252,0,0,0,6.293-4.449c3.317-3.233,9.972-26.247,14.255-38.2h0c1.8-5.5,5.9-10.907,7.316-12.735,4.083,2.479,7.279,4.138,11.547,6.286-.816,1.694-3.186,6.78-4,8.451-.549,1.132-1.108,2.236-1.669,3.333l.006,0a132.449,132.449,0,0,1-12.176,20.971c-9.993,13.382-10.025,18.319-10.09,18.618,0,0-2.637,3.262-4.4,2.728-4.854-1.468-10.362,2.581-12.783.55s-2.526-3.027-2.526-3.027,6.093-1.1,8.226-2.528" transform="translate(-11.592 -13.405)" fill="#fbc0a4"/>
            <path id="Trazado_1014919" data-name="Trazado 1014919" d="M192.544,173.067a6.574,6.574,0,1,0,8.917-2.63,6.574,6.574,0,0,0-8.917,2.63" transform="translate(-14.557 -12.879)" fill="#fbc0a4"/>
            <path id="Trazado_1014920" data-name="Trazado 1014920" d="M262.059,154.1a11.063,11.063,0,1,1,4.092-15.109,11.074,11.074,0,0,1-4.092,15.109" transform="translate(-18.636 -10.131)" fill="#152860"/>
            <path id="Trazado_1014921" data-name="Trazado 1014921" d="M207.569,181.305l50.9-27.086-11.027-19.184-49.22,30.014Z" transform="translate(-15.05 -10.252)" fill="#152860"/>
            <path id="Trazado_1014922" data-name="Trazado 1014922" d="M206.953,183.8a9.374,9.374,0,1,1,3.822-12.7,9.383,9.383,0,0,1-3.822,12.7" transform="translate(-14.662 -12.615)" fill="#152860"/>
            <path id="Trazado_1014923" data-name="Trazado 1014923" d="M190.22,169.275l-26.308,53.857s5.853,5.818,12.941,7.4l29.821-52.219Z" transform="translate(-12.444 -12.852)" fill="#152860"/>
            <path id="Trazado_1014924" data-name="Trazado 1014924" d="M208.74,177.911a9.386,9.386,0,1,1-3.708-12.745,9.386,9.386,0,0,1,3.708,12.745" transform="translate(-14.511 -12.452)" fill="#152860"/>
            <path id="Trazado_1014925" data-name="Trazado 1014925" d="M161.441,156.247l-.178,59.939s7.8,2.683,14.872,1.012l4.054-60Z" transform="translate(-12.243 -11.863)" fill="#152860"/>
            <path id="Trazado_1014926" data-name="Trazado 1014926" d="M180.2,156.469a9.386,9.386,0,1,1-8.9-9.851,9.386,9.386,0,0,1,8.9,9.851" transform="translate(-12.257 -11.131)" fill="#152860"/>
            <path id="Trazado_1014927" data-name="Trazado 1014927" d="M233.719,158.958a11.063,11.063,0,1,1,9.475-12.462,11.07,11.07,0,0,1-9.475,12.462" transform="translate(-16.789 -10.396)" fill="#152860"/>
            <path id="Trazado_1014928" data-name="Trazado 1014928" d="M172.479,164.929l57.352-5.962-3-21.922-56.895,9.308Z" transform="translate(-12.902 -10.405)" fill="#152860"/>
            <path id="Trazado_1014929" data-name="Trazado 1014929" d="M171.812,165.687a9.374,9.374,0,1,1,8.028-10.56,9.38,9.38,0,0,1-8.028,10.56" transform="translate(-12.235 -11.162)" fill="#152860"/>
            <path id="Trazado_1014930" data-name="Trazado 1014930" d="M264.08,132.86l-10.989,1.577-.079.012-.1.013-22.7,3.258c-.015,0-.031,0-.045,0s-.03.006-.044.007L219.216,139.3l1.584,11.036h0a11.068,11.068,0,0,0,12.509,9.319l22.925-3.29v-.006a10.814,10.814,0,0,0,1.249-.248,11.066,11.066,0,0,0,8.132-12.206l.046-.007Z" transform="translate(-16.643 -10.087)" fill="#152860"/>
            <path id="Trazado_1014931" data-name="Trazado 1014931" d="M254.667,21.974c.291-.761,3.723-8.869,16.531-4.985,0,0-6.479-1.381-8.488.989,0,0,5.392-1.936,8.473.329s3.046,9,2.388,11-4.764,7.754-7.14,7.552a7.08,7.08,0,0,1-2.655-.9,31.443,31.443,0,0,1,.665,3.615c1.515,12.092-7.151,20.45-11.046,17.872-2.5-1.653-4.87,2.762-4.87,2.762L229.235,29.545s16.7-16.913,25.432-7.571" transform="translate(-17.404 -1.21)" fill="#623f04"/>
            <path id="Trazado_1014932" data-name="Trazado 1014932" d="M222.85,103.477c-4.888-3.405-5.394-7.291-4.39-10.614-.072-.042-.147-.078-.218-.122a7.585,7.585,0,0,1,.565-13.2l-.006-.017s.449-.4,9.444-4.57c5.319-2.574,10.743-7.053,22.483-2.443,2.79,1.706,8.134,2.259,12.923,5.335A7.591,7.591,0,0,1,261.175,92.5c-1.009,6.164-2.967,22.425-2.967,22.425l6.013,14.835c-19.869,15.8-44.116,6.562-44.116,6.562Z" transform="translate(-16.298 -5.354)" fill="#abedd7"/>
            <path id="Trazado_1014933" data-name="Trazado 1014933" d="M214.725,86.013a7.611,7.611,0,1,0,5.844-6.469,7.579,7.579,0,0,0-5.844,6.469" transform="translate(-16.298 -6.024)" fill="#8ed6bc"/>
            <path id="Trazado_1014934" data-name="Trazado 1014934" d="M236.769,74.879a9.7,9.7,0,0,0,5.228.584c2.842-.47,3.556-2.324,4.451-2.757l5.082-22.954-15.15,10.685.1.711Z" transform="translate(-17.946 -3.777)" fill="#fbc0a4"/>
            <path id="Trazado_1014935" data-name="Trazado 1014935" d="M240.056,67.407a16.927,16.927,0,0,0,4.808-2.469,35.383,35.383,0,0,0,4.046-3.35l2.621-11.836L236.38,60.437l.1.71.153,7.256c1.138-.339,2.29-.636,3.425-1" transform="translate(-17.946 -3.777)" fill="#f9b092"/>
            <path id="Trazado_1014936" data-name="Trazado 1014936" d="M254.194,41.91s4.721-1.53,4.646,3.954-3.987,6-5.121,6.348c0,0-1.172,9.874-13.174,10.169s-10.995-9.125-11.533-15.248-2.308-16.67,5.406-18.251c7.782-1.594,18.913-2.211,19.776,13.029" transform="translate(-17.344 -2.133)" fill="#fbc0a4"/>
            <path id="Trazado_1014937" data-name="Trazado 1014937" d="M189.681,135.491a2.967,2.967,0,1,0,4.047,1.106,2.967,2.967,0,0,0-4.047-1.106" transform="translate(-14.287 -10.257)" fill="#fbc0a4"/>
            <path id="Trazado_1014938" data-name="Trazado 1014938" d="M188.7,135.284c-2.161.561-5.274-2.427-7-2.852s-3.145,1.447-3.145,1.447a14.354,14.354,0,0,0-2.79,1.182c-.918.6-.668,1.757.632,2.562s-.162,1.8.573,3.153,2.125,1.32,1.987,3.229,12.05-3.3,12.05-3.3Z" transform="translate(-13.303 -10.05)" fill="#fbc0a4"/>
            <path id="Trazado_1014939" data-name="Trazado 1014939" d="M218.109,128.212a6.582,6.582,0,1,0-3.044-6.9,6.577,6.577,0,0,0,3.044,6.9" transform="translate(-16.319 -8.807)" fill="#8ed6bc"/>
            <path id="Trazado_1014940" data-name="Trazado 1014940" d="M194.61,141.009l-2.74,1.143-2.619-7.769,2.858-.7Z" transform="translate(-14.368 -10.15)" fill="#fff"/>
            <path id="Trazado_1014941" data-name="Trazado 1014941" d="M194.695,140.7c4.871-1.424,27.235-11.872,28.187-12.345l1.159-.828-6.9-11.061-.749.439a83.949,83.949,0,0,0-8.823,6.281c-1.345,1.067-17.112,8.348-17.112,8.348l3.486,9.414Z" transform="translate(-14.46 -8.842)" fill="#8ed6bc"/>
            <path id="Trazado_1014942" data-name="Trazado 1014942" d="M218.522,92.976A7.611,7.611,0,1,0,215,85a7.568,7.568,0,0,0,3.519,7.977" transform="translate(-16.313 -5.987)" fill="#8ed6bc"/>
            <path id="Trazado_1014943" data-name="Trazado 1014943" d="M227.647,122.655l.327-1.12c.192-.99,3.03-25.372,2.077-35.212l-.081-.834-15.109,1.08.016.816c.213,11.265.481,29.352.173,31.664l-.107.8Z" transform="translate(-16.313 -6.49)" fill="#8ed6bc"/>
            <path id="Trazado_1014944" data-name="Trazado 1014944" d="M218.1,128.208a6.589,6.589,0,1,0-2.3-2.363,6.589,6.589,0,0,0,2.3,2.363" transform="translate(-16.318 -8.807)" fill="#8ed6bc"/>
            <path id="Trazado_1014945" data-name="Trazado 1014945" d="M227.608,30.282c3.061-3.729,5.383-2.917,6.685-1.8,10.84-5.994,17.856,2.813,17.856,2.813a23.633,23.633,0,0,0,7.763,13.942s-3.615,2.244-11.965.118a14.181,14.181,0,0,1-6.77-4.648,46.327,46.327,0,0,0,8,9.719c-9.978-4.583-14.014-18.437-14.417-19.9-1.21,1.091-3.594,3.463-4.316,5.782-.982,3.153-1.412,9.638-3.3,9.422,0,0-4.12-9.854.47-15.445" transform="translate(-17.116 -2.004)" fill="#623f04"/>
            <path id="Trazado_1014946" data-name="Trazado 1014946" d="M209.565,144.082H167.211a3.771,3.771,0,0,1-3.557-2.518l-10.048-28.529a3.771,3.771,0,0,1,3.557-5.024h42.353a3.772,3.772,0,0,1,3.557,2.518l10.048,28.529a3.771,3.771,0,0,1-3.557,5.024" transform="translate(-11.646 -8.2)" fill="#666"/>
            <path id="Trazado_1014947" data-name="Trazado 1014947" d="M239.045,140.991H188.7l-12.705,5.6H226.34Z" transform="translate(-13.362 -10.704)" fill="#666"/>
            <path id="Trazado_1014948" data-name="Trazado 1014948" d="M245.339,140.582a2.967,2.967,0,1,0,4.2-.006,2.967,2.967,0,0,0-4.2.006" transform="translate(-18.561 -10.607)" fill="#fbc0a4"/>
            <path id="Trazado_1014949" data-name="Trazado 1014949" d="M244.355,140.58c-1.935,1.113-5.728-.942-7.5-.9s-2.648,2.229-2.648,2.229a14.3,14.3,0,0,0-2.377,1.88c-.725.826-.179,1.871,1.288,2.3s.323,1.782,1.388,2.889,2.4.71,2.772,2.587,10.744-6.377,10.744-6.377Z" transform="translate(-17.577 -10.605)" fill="#fbc0a4"/>
            <path id="Trazado_1014950" data-name="Trazado 1014950" d="M270.888,125.939a6.583,6.583,0,1,0-4.764-5.845,6.57,6.57,0,0,0,4.764,5.845" transform="translate(-20.203 -8.581)" fill="#8ed6bc"/>
            <path id="Trazado_1014951" data-name="Trazado 1014951" d="M251.828,143.77c4.319-2.664,23.114-18.666,23.906-19.375l.9-1.105-9.583-8.837-.606.622a83.956,83.956,0,0,0-6.843,8.394c-1.015,1.386-14.286,12.586-14.286,12.586l5.856,8.153Z" transform="translate(-18.625 -8.689)" fill="#8ed6bc"/>
            <path id="Trazado_1014952" data-name="Trazado 1014952" d="M261.967,91.828a7.611,7.611,0,1,0-5.507-6.758,7.588,7.588,0,0,0,5.507,6.758" transform="translate(-19.469 -5.838)" fill="#8ed6bc"/>
            <path id="Trazado_1014953" data-name="Trazado 1014953" d="M278.511,117.886l.018-1.166c-.078-1.006-3.8-25.269-7.331-34.5l-.3-.784L256.617,86.48l.232.782c3.193,10.807,8.244,28.176,8.56,30.486l.11.8Z" transform="translate(-19.483 -6.183)" fill="#8ed6bc"/>
            <path id="Trazado_1014954" data-name="Trazado 1014954" d="M270.882,125.937a6.585,6.585,0,1,0-2.841-1.669,6.588,6.588,0,0,0,2.841,1.669" transform="translate(-20.203 -8.581)" fill="#8ed6bc"/>
            <path id="Trazado_1014955" data-name="Trazado 1014955" d="M153.4,240.778c-1.365-.77,4.23-3.168,3.89-3.1s-11.921,3.136-13.181,4.424c-.465.475-.476,1.71,1.2,2.578s8.12,1.623,10.008,1.747,10.677-4.682,12.126-4.708-1.586,7.487-1.35,7.686l1.233-.242s4.994-6.952,5.289-11.9c0,0-1.369-.316-5.579,1.338-4.481,1.762-11.74,3.251-13.639,2.18" transform="translate(-10.921 -18.011)" fill="#152860"/>
            <path id="Trazado_1014956" data-name="Trazado 1014956" d="M224.151,89.883s-6.357,6.048-1.417,16.752l-2.047,20.424" transform="translate(-16.755 -6.824)" fill="#25a77c"/>
            <path id="Trazado_1014957" data-name="Trazado 1014957" d="M262.608,108.036s-3.4-11.516-4.527-15.369c-1.173-4.011,3.331-9.8,3.524-10.047l.647.507c-.045.056-4.435,5.7-3.382,9.309,1.126,3.852,4.527,15.367,4.527,15.367Z" transform="translate(-19.579 -6.273)" fill="#25a77c"/>
            <path id="Trazado_1014958" data-name="Trazado 1014958" d="M249.214,143.116l-4.474-7.09.252-.232c.155-.142,15.532-14.263,18.642-18.176,1.384-1.742,2.656-2.623,3.783-2.623h.062a1.838,1.838,0,0,1,1.412.692l-.669.479a1.011,1.011,0,0,0-.786-.35c-.591-.01-1.628.387-3.158,2.313-2.966,3.732-16.389,16.118-18.477,18.038l4.108,6.51Z" transform="translate(-18.581 -8.731)" fill="#25a77c"/>
          </g>
        </g>
      </g>
    </g>
    <g id="Grupo_1194873" data-name="Grupo 1194873" transform="translate(1268.316 6944)">
      <g id="Grupo_1194872" data-name="Grupo 1194872" clip-path="url(#clip-path-7)">
        <path id="Trazado_1014959" data-name="Trazado 1014959" d="M9.477,30.145a3,3,0,1,0-1.918,3.781,3,3,0,0,0,1.918-3.781" fill="#fbc0a4"/>
        <path id="Trazado_1014960" data-name="Trazado 1014960" d="M.987,19.516a4.184,4.184,0,0,0,.878.29c.68.05,1.154-.711,1.2-1.392s-.173-1.363-.086-2.039a1.053,1.053,0,0,1,.6-.912c.881-.3,2.088,2.026,2.7.381.382-1.034-.976-6.035-1.18-7.412a1.167,1.167,0,0,1,.141-.963A.79.79,0,0,1,6.3,7.51a2.243,2.243,0,0,1,.547,1.044,66.58,66.58,0,0,1,2.367,10.6c.1.724.3,1.589.988,1.824a1.327,1.327,0,0,0,1.184-.25c1-.742,1.479-1.8,2.85-2.008.825-.124,3.437.524,1.87,1.536l-2.015,1.3a9.718,9.718,0,0,0-2.478,2.423,17.4,17.4,0,0,0-2.138,6.167l-5.5,2.32c-.283-.185-.51-1.245-.631-1.543q-.706-1.751-1.391-3.51c-.842-2.173-1.9-4.42-1.95-6.785-.009-.431.066-.959.467-1.119a.754.754,0,0,1,.519.008" fill="#fbc0a4"/>
        <path id="Trazado_1014961" data-name="Trazado 1014961" d="M77.818,167.224c.416,4.175.9,8.538.9,8.538a65.383,65.383,0,0,0,3.241,8.037c-4.607,1.754-9.429,1.865-13.759,4.206-.222-1.035-1.925-10.171-6.3-13.981a5.168,5.168,0,0,1-.77-1.9c5.546-1.685,11.165-3.142,16.689-4.9" fill="#fbc0a4"/>
        <path id="Trazado_1014962" data-name="Trazado 1014962" d="M68.078,186.687a7.24,7.24,0,1,0,7.24-7.24,7.239,7.239,0,0,0-7.24,7.24" fill="#fbc0a4"/>
        <path id="Trazado_1014963" data-name="Trazado 1014963" d="M52.323,171.054c3.1-.187,6.615-1.077,9.875-1.082.31,5.475.614,11.093.9,16.714-4.993.146-14.48,0-14.48,0a109.475,109.475,0,0,1-3.521-15.21q3.615-.2,7.227-.422" fill="#fbc0a4"/>
        <path id="Trazado_1014964" data-name="Trazado 1014964" d="M48.617,186.687a7.24,7.24,0,1,0,7.24-7.24,7.239,7.239,0,0,0-7.24,7.24" fill="#fbc0a4"/>
        <path id="Trazado_1014965" data-name="Trazado 1014965" d="M50.835,254.931c.591-1.127,1.935-1.76,3.744-7.618,1.5-4.873-4.179-30.637-6.331-44.455h0c-1.151-6.268-.037-13.656.369-16.17,5.255.248,9.219.169,14.48,0,.1,2.068.488,8.235.583,10.279.065,1.384.106,2.747.141,4.1l.008,0s1.042,14.347-.733,26.695c-2.618,18.206-.049,23,.046,23.322,0,0-.833,4.543-2.819,4.956-5.47,1.136-8.664,7.952-12.075,7.263s-4.038-1.6-4.038-1.6,5.313-4.276,6.625-6.778" fill="#fbc0a4"/>
        <path id="Trazado_1014966" data-name="Trazado 1014966" d="M48.617,186.687a7.24,7.24,0,1,0,7.24-7.24,7.239,7.239,0,0,0-7.24,7.24" fill="#fbc0a4"/>
        <path id="Trazado_1014967" data-name="Trazado 1014967" d="M10.812,59.969a6.9,6.9,0,1,0,7.813-1.226,6.915,6.915,0,0,0-7.813,1.226" fill="#2ed19b"/>
        <path id="Trazado_1014968" data-name="Trazado 1014968" d="M2.5,33.383,2.082,30.3l8.58-.56L10.6,32.823Z" fill="#2ed19b"/>
        <path id="Trazado_1014969" data-name="Trazado 1014969" d="M1.49,33.107c.131,5.321,7.2,32.463,7.424,33.554l.527,1.4,13.07-4.011-.243-.878A88.067,88.067,0,0,0,18.28,52.535c-.72-1.651-6.357-21.251-6.357-21.251l-10.482,1Z" fill="#2ed19b"/>
        <path id="Trazado_1014970" data-name="Trazado 1014970" d="M41.627,57.326a7.983,7.983,0,1,0,7.305-5.5,7.955,7.955,0,0,0-7.305,5.5" fill="#2ed19b"/>
        <path id="Trazado_1014971" data-name="Trazado 1014971" d="M14.648,71.663l1.222.066c1.057-.04,26-1.015,35.82-4.34l.833-.282L47.81,51.935l-.829.211c-11.455,2.91-29.226,5.552-31.66,5.791l-.844.082Z" fill="#2ed19b"/>
        <path id="Trazado_1014972" data-name="Trazado 1014972" d="M9.061,62.683a6.908,6.908,0,1,0,1.864-2.91,6.911,6.911,0,0,0-1.864,2.91" fill="#2ed19b"/>
        <path id="Trazado_1014973" data-name="Trazado 1014973" d="M64.4,52.231a10.156,10.156,0,0,0,5.268,1.641c3.021.082,4.124-1.685,5.133-1.954l9.8-22.627-17.727,7.99-.041.751Z" fill="#fbc0a4"/>
        <path id="Trazado_1014974" data-name="Trazado 1014974" d="M69.27,45.19A17.763,17.763,0,0,0,74.713,43.6a37.171,37.171,0,0,0,4.832-2.645L84.6,29.291l-17.727,7.99-.041.75-1.285,7.5c1.241-.123,2.485-.2,3.725-.344" fill="#f9b092"/>
        <path id="Trazado_1014975" data-name="Trazado 1014975" d="M86.284,24.068s5.166-.637,4,5-5.3,5.38-6.537,5.518c0,0-3.171,9.935-15.59,7.851s-9.507-11.584-8.844-18,.939-17.626,9.2-17.719c8.331-.094,19.917,1.485,17.774,17.35" fill="#fbc0a4"/>
        <path id="Trazado_1014976" data-name="Trazado 1014976" d="M85.975,122.912a3.112,3.112,0,1,0,4.232-1.21,3.113,3.113,0,0,0-4.232,1.21" fill="#2ed19b"/>
        <path id="Trazado_1014977" data-name="Trazado 1014977" d="M85.975,122.912c-1.633,1.678-6.049.693-7.824,1.249s-2.033,3.008-2.033,3.008a15.054,15.054,0,0,0-1.858,2.577c-.5,1.042.356,1.94,1.961,1.954s.836,1.705,2.228,2.516,2.624.028,3.539,1.814S91,126.515,91,126.515Z" fill="#2ed19b"/>
        <path id="Trazado_1014978" data-name="Trazado 1014978" d="M106.473,103.324a6.9,6.9,0,1,0-6.482-4.53,6.891,6.891,0,0,0,6.482,4.53" fill="#2ed19b"/>
        <path id="Trazado_1014979" data-name="Trazado 1014979" d="M93.383,125.318l-1.835,2.516-6.575-5.542,2.185-2.179Z" fill="#2ed19b"/>
        <path id="Trazado_1014980" data-name="Trazado 1014980" d="M93.921,126.219c3.593-3.927,17.964-25.462,18.559-26.4l.59-1.373-12.2-6.166-.433.8a88.077,88.077,0,0,0-4.495,10.432c-.626,1.689-10.8,16.795-10.8,16.795l8.247,6.546Z" fill="#2ed19b"/>
        <path id="Trazado_1014981" data-name="Trazado 1014981" d="M89.215,74.028A7.983,7.983,0,1,0,81.72,68.79a7.946,7.946,0,0,0,7.495,5.238" fill="#2ed19b"/>
        <path id="Trazado_1014982" data-name="Trazado 1014982" d="M113.269,95.227l-.316-1.182c-.366-.992-11.086-24.4-17.294-32.7l-.526-.705L82.172,69.824l.458.723c6.321,9.986,16.4,26.06,17.382,28.3l.339.777Z" fill="#2ed19b"/>
        <path id="Trazado_1014983" data-name="Trazado 1014983" d="M106.466,103.324a6.907,6.907,0,1,0-3.345-.869,6.91,6.91,0,0,0,3.345.869" fill="#2ed19b"/>
        <path id="Trazado_1014984" data-name="Trazado 1014984" d="M91.478,220.683c2.2,13.866,2.989,28.488,9.808,41.14a12.254,12.254,0,0,1,1.479,3.466,3.575,3.575,0,0,1-1.035,3.449,3.4,3.4,0,0,1-3.718.072,7.763,7.763,0,0,1-2.633-2.885c-3.7-6.156-4.3-13.613-6.36-20.492-2.946-9.852-8.4-18.488-12.276-27.928-3.889-9.461-6.156-19.7-8.574-29.608,4.505-1.57,9.071-3.387,13.788-4.1,0,0,3.974,7.681,4.352,8.55a51.294,51.294,0,0,1,2.938,8.862c1.467,6.351,1.21,13.04,2.231,19.472" fill="#fbc0a4"/>
        <path id="Trazado_1014985" data-name="Trazado 1014985" d="M68.078,186.687a7.24,7.24,0,1,0,7.24-7.24,7.239,7.239,0,0,0-7.24,7.24" fill="#fbc0a4"/>
        <path id="Trazado_1014986" data-name="Trazado 1014986" d="M60.056,5.624c3.61-3.375,5.86-2.237,7.032-.929C72.3-1.246,84.844,9.949,84.844,9.949a24.2,24.2,0,0,0,6.012,15.2s-3.973,1.793-12.167-1.488c-6.451-2.582-10.059-12.7-11.3-16.9-1.337.909-4.189,3.044-5.262,5.359-1.421,3.068-2.728,9.6-4.619,9.122,0,0-2.861-10.559,2.552-15.618" fill="#4c320d"/>
        <path id="Trazado_1014987" data-name="Trazado 1014987" d="M46.387,77.617c-4.357-4.479-4.1-8.582-2.409-11.8-.066-.058-.136-.11-.2-.17a7.955,7.955,0,0,1,3.207-13.479l0-.019s.542-.325,10.634-2.828c5.99-1.593,12.467-5.126,23.639,1.957,2.534,2.311,7.927,3.945,12.247,8.064a7.961,7.961,0,0,1-5.463,14.6c-2.265,6.147-7.516,22.5-7.516,22.5l3.241,16.474c-23.6,12.32-46.737-2.019-46.737-2.019Z" fill="#2ed19b"/>
        <path id="Trazado_1014988" data-name="Trazado 1014988" d="M39.168,109.783c-8.845,24.443,4.123,63.613,4.123,63.613s19.26,8.942,36.937,1.442l6.553-29.466s5.026-24.053-9.641-34.731-37.972-.858-37.972-.858" fill="#152860"/>
        <path id="Trazado_1014989" data-name="Trazado 1014989" d="M90.793,258.666a7.526,7.526,0,0,0,.167-1.345,7.281,7.281,0,0,1-.224-1.747l.22.067,0-.054a1.578,1.578,0,0,1,2.676-1.167,134.1,134.1,0,0,1,9.508,9.62c.027.032,4.006,4.744,4.425,8.206s-2.015,5.852-6.332,4.612-6.682-6.241-6.849-8.944a18.592,18.592,0,0,0-1.111-4.669l-.205.105a6.426,6.426,0,0,0-3.381,5.588,1.9,1.9,0,0,1-1.484-.24c.923-3.326,1.81-6.669,2.592-10.032" fill="#302624"/>
        <path id="Trazado_1014990" data-name="Trazado 1014990" d="M48.354,257.98a7.017,7.017,0,0,0-.608.472c-3.794,3.259-10.846,6.742-10.389,9.426a2.841,2.841,0,0,0,2.267,2.007c2.009.137,8.614-1.853,10.51-2.529s8.442-9.091,9.846-9.73,1.62,7.981,1.935,8.075l1.1-.758A31.546,31.546,0,0,0,63,250.726a9.027,9.027,0,0,0-2.421.332c-4.364,1.227-5.405,3.231-8.116,5.58-.845.732-2.463.2-4.11,1.342" fill="#302624"/>
        <path id="Trazado_1014991" data-name="Trazado 1014991" d="M64.283,38.858c3.267,20.552,4.9,30.828,11.953,38.432,9.621,10.372,25,15.2,29.343,11.168.764-.709.749-1.289,3.7-7.092,1.593-3.13,2.951-5.623,3.8-7.16,0,0,13.932-19.785-4.347-29.729-9.29-5.053-9.62-12.153-9.57-18.338S94.983-6.436,77.327,1.463c0,0-2.961-1.132-4.246-.871a3.542,3.542,0,0,1,1.636.673,17.558,17.558,0,0,0-3.626.338,16.057,16.057,0,0,0-3.867,1.511c-7.906,4.5-2.941,35.744-2.941,35.744" fill="#623f04"/>
        <path id="Trazado_1014992" data-name="Trazado 1014992" d="M63.122,22.8a6.836,6.836,0,0,1,1.863-.068,1.377,1.377,0,0,1,.471.081A1.766,1.766,0,0,1,66.225,24a10.886,10.886,0,0,1,.551,3.886,5.39,5.39,0,0,1-1.431,3.487,2.66,2.66,0,0,1-3.191.523,1.429,1.429,0,0,1-.549-.55,2.411,2.411,0,0,1-.19-.959l-.24-4.049c-.1-1.745.337-3.175,1.947-3.532" fill="#fbc0a4"/>
      </g>
    </g>
  </g>
</svg>
