<svg xmlns="http://www.w3.org/2000/svg" xmlns:xlink="http://www.w3.org/1999/xlink" width="84" height="84" viewBox="0 0 84 84">
  <defs>
    <clipPath id="clip-path">
      <rect id="Rectángulo_461823" data-name="Rectángulo 461823" width="61.641" height="61.641" fill="#12263f"/>
    </clipPath>
  </defs>
  <g id="Grupo_1195521" data-name="Grupo 1195521" transform="translate(-704.63 -328)">
    <g id="Grupo_1177230" data-name="Grupo 1177230" transform="translate(704.63 328)">
      <g id="Grupo_1119665" data-name="Grupo 1119665" transform="translate(0 0)">
        <rect id="Rectángulo_402006" data-name="Rectángulo 402006" width="84" height="84" rx="5" fill="#c1c5cb"/>
      </g>
    </g>
    <g id="Grupo_1194856" data-name="Grupo 1194856" transform="translate(716.683 339.049)">
      <g id="Grupo_1194855" data-name="Grupo 1194855" transform="translate(0 0)" clip-path="url(#clip-path)">
        <path id="Trazado_1014827" data-name="Trazado 1014827" d="M30.8,46.907A16.105,16.105,0,1,1,46.907,30.8,16.12,16.12,0,0,1,30.8,46.907m-3.25-7.222a3.132,3.132,0,0,1-2.131-.867l-5.236-5.236a2.79,2.79,0,0,1-.65-3.142,3.09,3.09,0,0,1,2.817-1.95,2.83,2.83,0,0,1,2.022.9l3.142,3.142,9.714-9.714a2.871,2.871,0,0,1,2.058-.867A3.094,3.094,0,0,1,42.1,23.869a2.745,2.745,0,0,1-.686,3.142L29.574,38.855a2.84,2.84,0,0,1-2.022.831m-5.236-9.244a1.229,1.229,0,0,0-1.011.722.893.893,0,0,0,.253,1.047l5.236,5.272a1.1,1.1,0,0,0,1.444,0L40.083,25.675a.918.918,0,0,0,.253-1.047,1.209,1.209,0,0,0-1.047-.758.946.946,0,0,0-.686.325l-10.4,10.4a.959.959,0,0,1-1.336,0l-3.828-3.828a1.022,1.022,0,0,0-.722-.325m8.486,31.2A30.82,30.82,0,1,1,61.641,30.8,30.861,30.861,0,0,1,30.8,61.641m0-59.727A28.888,28.888,0,1,0,59.691,30.8,28.927,28.927,0,0,0,30.8,1.914m0,56.3a.971.971,0,0,1-.65-.289l-6.175-6.03-8.558,1.264a.99.99,0,0,1-1.083-.794l-1.481-8.522L5.236,39.83a.917.917,0,0,1-.4-1.264L8.63,30.8,4.839,23.075a.908.908,0,0,1,.4-1.264l7.619-4.044L14.336,9.28a.99.99,0,0,1,1.083-.794l8.558,1.228,6.175-5.994a.959.959,0,0,1,1.336,0l6.175,5.994,8.558-1.228A.99.99,0,0,1,47.3,9.28l1.444,8.486L56.4,21.811a.971.971,0,0,1,.4,1.264L52.974,30.8,56.8,38.566a.982.982,0,0,1-.4,1.264l-7.655,4.008L47.3,52.36a.99.99,0,0,1-1.083.794l-8.558-1.264-6.175,6.03a.987.987,0,0,1-.686.289M24.3,49.9a.9.9,0,0,1,.65.289L30.8,55.9l5.85-5.705a1,1,0,0,1,.831-.253L45.535,51.1l1.408-8.053a.891.891,0,0,1,.506-.686l7.222-3.792-3.611-7.33a.85.85,0,0,1,0-.831l3.611-7.33-7.222-3.828a.791.791,0,0,1-.506-.686l-1.408-8.017L37.483,11.7a1.1,1.1,0,0,1-.831-.253L30.8,5.742l-5.85,5.705a1.057,1.057,0,0,1-.794.253l-8.089-1.156L14.7,18.561a1,1,0,0,1-.506.686L6.969,23.075,10.58,30.4a.85.85,0,0,1,0,.831l-3.611,7.33,7.222,3.792a1.091,1.091,0,0,1,.506.686L16.069,51.1l8.089-1.156c.036,0,.072-.036.144-.036m-6.392-.361a.935.935,0,0,1-.939-.794L16.25,44.56a.953.953,0,1,1,1.878-.325l.578,3.25,4.153-.578a.923.923,0,0,1,1.083.794.948.948,0,0,1-.794,1.083l-5.092.758ZM44.271,17.189a.935.935,0,0,1-.939-.794l-.4-2.275-3.358.506a.965.965,0,0,1-.253-1.914l4.261-.614a.968.968,0,0,1,1.083.794l.542,3.178a.952.952,0,0,1-.758,1.119ZM30.8,16.647A14.173,14.173,0,1,0,44.994,30.8,14.178,14.178,0,0,0,30.8,16.647" transform="translate(0 0)" fill="#12263f" fill-rule="evenodd"/>
      </g>
    </g>
  </g>
</svg>
