<svg xmlns="http://www.w3.org/2000/svg" xmlns:xlink="http://www.w3.org/1999/xlink" width="84" height="84" viewBox="0 0 84 84">
  <defs>
    <clipPath id="clip-path">
      <rect id="Rectángulo_461916" data-name="Rectángulo 461916" width="65.207" height="55.475" fill="#12263f"/>
    </clipPath>
  </defs>
  <g id="Grupo_1195528" data-name="Grupo 1195528" transform="translate(-185.711 -9508)">
    <g id="Grupo_1194788" data-name="Grupo 1194788" transform="translate(-520.289 7829.08)">
      <g id="Grupo_1119665" data-name="Grupo 1119665" transform="translate(534.111 -3840.08)">
        <rect id="Rectángulo_402006" data-name="Rectángulo 402006" width="84" height="84" rx="5" transform="translate(171.889 5519)" fill="#c1c5cb"/>
      </g>
    </g>
    <g id="Grupo_1195013" data-name="Grupo 1195013" transform="translate(195.711 9522)">
      <g id="Grupo_1195012" data-name="Grupo 1195012" transform="translate(0 0)" clip-path="url(#clip-path)">
        <path id="Trazado_1015107" data-name="Trazado 1015107" d="M30.967,37.942a2.426,2.426,0,1,0,2.426,2.426,2.429,2.429,0,0,0-2.426-2.426m0,3a.578.578,0,1,1,.578-.578.579.579,0,0,1-.578.578m9.94,7.555H34.375v-1.27a1.813,1.813,0,0,0-1.492-1.793A7.328,7.328,0,0,0,31,45.269h-.027a7.532,7.532,0,0,0-1.9.161,1.818,1.818,0,0,0-1.522,1.8V48.5H21.026a1.661,1.661,0,0,0-1.659,1.659v.877A1.661,1.661,0,0,0,21.026,52.7H40.907a1.661,1.661,0,0,0,1.659-1.659V50.16A1.661,1.661,0,0,0,40.907,48.5Zm-11.5-1.237a5.2,5.2,0,0,1,1.556-.147H31a5.078,5.078,0,0,1,1.523.148V48.5H29.406Zm11.312,3.583h-19.5v-.5h19.5ZM21.584,28.856H16.313a.924.924,0,0,0-.924.924v3.65a.924.924,0,0,0,.924.924h5.271a.924.924,0,0,0,.924-.924V29.78a.924.924,0,0,0-.924-.924m-.924,3.65H17.237V30.7H20.66ZM29.6,25.272H24.325a.924.924,0,0,0-.924.924V33.43a.924.924,0,0,0,.924.924H29.6a.924.924,0,0,0,.924-.924V26.2a.924.924,0,0,0-.924-.924m-.924,7.234H25.249V27.12h3.423ZM64.407,50.8l-8.841-8.841a10.675,10.675,0,0,0-3.423-15.267V12.421a3.035,3.035,0,0,0-3.032-3.032H24.083a11.1,11.1,0,0,0-.731-1.451L24.4,6.078a.924.924,0,0,0-.088-1.039A13.8,13.8,0,0,0,22.36,3.085.924.924,0,0,0,21.321,3l-1.86,1.052A11.109,11.109,0,0,0,16.45,2.8L15.878.741a.923.923,0,0,0-.8-.672,13.932,13.932,0,0,0-2.761,0,.924.924,0,0,0-.8.672L10.949,2.8A11.1,11.1,0,0,0,7.938,4.049L6.078,3a.924.924,0,0,0-1.039.088A13.834,13.834,0,0,0,3.085,5.039.924.924,0,0,0,3,6.078l1.052,1.86A11.109,11.109,0,0,0,2.8,10.949l-2.059.571a.925.925,0,0,0-.672.8C.023,12.777,0,13.241,0,13.7s.023.923.069,1.38a.924.924,0,0,0,.672.8L2.8,16.45a11.109,11.109,0,0,0,1.248,3.012L3,21.321a.924.924,0,0,0,.089,1.039,13.8,13.8,0,0,0,1.953,1.954.924.924,0,0,0,1.039.088l1.86-1.051a11.129,11.129,0,0,0,1.852.888V41.633a3.035,3.035,0,0,0,3.032,3.032H40.61a10.666,10.666,0,0,0,10.793.879l9.131,9.13A2.739,2.739,0,0,0,64.407,50.8ZM50.3,12.421V25.832a10.679,10.679,0,0,0-1.285-.364V13.446a.924.924,0,0,0-.924-.924H27.349c-.006-.068-.011-.135-.018-.2a.923.923,0,0,0-.672-.8l-1.023-.284H49.111A1.185,1.185,0,0,1,50.3,12.421m-5.6,13a10.628,10.628,0,0,0-3.423,1.313v-7.1H44.7Zm.924-7.638H40.349a.924.924,0,0,0-.924.924v9.427a10.8,10.8,0,0,0-.893.946V22.361a.924.924,0,0,0-.924-.924H32.337a.924.924,0,0,0-.924.924V33.43a.924.924,0,0,0,.924.924h3.835a10.75,10.75,0,0,0-.114,1.5H14.771V27.357c.1-.008.207-.017.309-.027a.925.925,0,0,0,.8-.672L16.45,24.6a11.109,11.109,0,0,0,3.012-1.248l1.86,1.052a.925.925,0,0,0,1.04-.089,13.765,13.765,0,0,0,1.953-1.953.924.924,0,0,0,.088-1.04l-1.051-1.86A11.113,11.113,0,0,0,24.6,16.45l2.059-.572a.923.923,0,0,0,.672-.8c.024-.235.041-.473.052-.71h19.78V25.236c-.137-.006-.275-.011-.413-.011-.069,0-.137,0-.2.005V18.711a.924.924,0,0,0-.925-.924M36.684,32.31c-.023.065-.044.13-.066.2H33.261V23.285h3.423ZM7.51,21.47l-1.776,1q-.424-.385-.809-.809l1-1.776a.923.923,0,0,0-.037-.969,9.3,9.3,0,0,1-1.405-3.392.925.925,0,0,0-.659-.711l-1.966-.546c-.009-.191-.014-.382-.014-.572s0-.381.014-.572l1.966-.546a.923.923,0,0,0,.659-.711A9.3,9.3,0,0,1,5.893,8.479.925.925,0,0,0,5.93,7.51l-1-1.776q.385-.424.809-.809l1.776,1a.923.923,0,0,0,.969-.037,9.288,9.288,0,0,1,3.391-1.405.924.924,0,0,0,.711-.66l.546-1.966c.382-.018.762-.018,1.144,0l.546,1.966a.923.923,0,0,0,.711.66A9.3,9.3,0,0,1,18.92,5.893a.923.923,0,0,0,.969.037l1.776-1q.424.385.809.809l-1,1.776a.925.925,0,0,0,.037.969,9.285,9.285,0,0,1,1.405,3.392.925.925,0,0,0,.66.711l1.966.546c.009.191.014.382.014.572s0,.381-.014.572l-1.966.546a.923.923,0,0,0-.659.711,9.3,9.3,0,0,1-1.405,3.391.925.925,0,0,0-.037.969l1,1.776c-.257.282-.527.553-.809.809l-1.776-1a.922.922,0,0,0-.969.037,9.3,9.3,0,0,1-3.392,1.405.924.924,0,0,0-.711.66l-.546,1.966c-.382.018-.762.018-1.144,0l-.546-1.966a.924.924,0,0,0-.711-.66A9.3,9.3,0,0,1,8.48,21.507.924.924,0,0,0,7.51,21.47Zm4.128,20.163V26.917a.925.925,0,0,0,.681.414q.3.03.6.046v9.4a.924.924,0,0,0,.924.925h22.36a10.656,10.656,0,0,0,2.381,5.118H12.822A1.186,1.186,0,0,1,11.638,41.633ZM37.9,35.918a8.845,8.845,0,1,1,8.845,8.845A8.855,8.855,0,0,1,37.9,35.918Zm25.2,17.45a.9.9,0,0,1-1.26,0l-8.806-8.806a10.736,10.736,0,0,0,1.352-1.169L63.1,52.107a.9.9,0,0,1,0,1.26ZM46.749,28.428a7.491,7.491,0,1,0,7.491,7.491,7.5,7.5,0,0,0-7.491-7.491m0,13.134a5.643,5.643,0,1,1,5.643-5.643,5.649,5.649,0,0,1-5.643,5.643M21.53,13.7a7.788,7.788,0,0,0-1.547-4.666l.842-.93a.924.924,0,0,0-1.37-1.24l-.747.824A7.825,7.825,0,1,0,21.53,13.7m-13.811,0a5.978,5.978,0,0,1,9.749-4.642l-3.993,4.408-1.717-1.931a.924.924,0,1,0-1.381,1.228l2.4,2.7a.923.923,0,0,0,.686.31h0a.924.924,0,0,0,.685-.3l4.557-5.032A5.98,5.98,0,1,1,7.718,13.7Z" transform="translate(0 0)" fill="#12263f"/>
      </g>
    </g>
  </g>
</svg>
