<svg xmlns="http://www.w3.org/2000/svg" xmlns:xlink="http://www.w3.org/1999/xlink" width="396" height="404" viewBox="0 0 396 404">
  <defs>
    <clipPath id="clip-path">
      <rect id="Rectángulo_461815" data-name="Rectángulo 461815" width="396" height="404" transform="translate(1017.711 713)" fill="#fff" stroke="#707070" stroke-width="1"/>
    </clipPath>
    <clipPath id="clip-path-2">
      <rect id="Rectángulo_461814" data-name="Rectángulo 461814" width="396" height="390.882" fill="none"/>
    </clipPath>
    <clipPath id="clip-path-4">
      <path id="Trazado_1014676" data-name="Trazado 1014676" d="M220.745,362.876c.044,3.291,3.225,5.821,5.857,7.229a41.1,41.1,0,0,0,6.2,2.167,7.011,7.011,0,0,1,2.987,1.79,12.073,12.073,0,0,1,1.675,3.125,11.285,11.285,0,0,0,4.49,5.2,8.635,8.635,0,0,0,6.269.391c1.72-.426,3.529-1.2,5.339-.975,2.085.254,3.445,1.923,4.45,3.619s1.856,3.633,3.378,4.946a5.881,5.881,0,0,0,5.075,1.225,31.1,31.1,0,0,0,5.082-1.971,6.281,6.281,0,0,1,6.684.943c1.88,1.628,2.731,4.13,4.738,5.589a10.644,10.644,0,0,0,6.58,1.758c1.794-.06,3.957-.294,5.418-1.462,1.578-1.256,2.345-3.436,3.1-5.226.206-.469.411-.938.611-1.427.168-.37.316-.733.458-1.117,1.262-3.02,2.34-6.362,1.64-9.516a6.913,6.913,0,0,0-6.427-5.781,20.89,20.89,0,0,0-4.192.371,18.739,18.739,0,0,1-4.662.337,5.979,5.979,0,0,1-2.538-.86,8.686,8.686,0,0,1-.719-.72c-1.621-1.88-2.682-4.189-4.33-6.05a11.377,11.377,0,0,0-5.386-3.5,13.2,13.2,0,0,0-6.141-.064c-2.2.434-4.227,1.036-6.466.408-2.145-.611-3.842-2.07-5.592-3.372a8.045,8.045,0,0,0-5.437-1.628c-2.154.154-3.8,1.219-5.711,2.087a7.448,7.448,0,0,1-5.346.424,40.792,40.792,0,0,1-5.2-2.458,13.358,13.358,0,0,0-5.084-1.366c-.073,0-.148,0-.221,0-3.21,0-6.62,2.456-6.58,5.891" transform="translate(-220.745 -356.985)" fill="none"/>
    </clipPath>
    <linearGradient id="linear-gradient" x1="-1.901" y1="1.671" x2="-1.892" y2="1.671" gradientUnits="objectBoundingBox">
      <stop offset="0" stop-color="#a8f17e"/>
      <stop offset="0.162" stop-color="#92e576"/>
      <stop offset="0.498" stop-color="#5bc663"/>
      <stop offset="0.976" stop-color="#049645"/>
      <stop offset="1" stop-color="#009444"/>
    </linearGradient>
    <clipPath id="clip-path-5">
      <path id="Trazado_1014677" data-name="Trazado 1014677" d="M220.772,362.466c7.926-.189,40.777-2.217,53.7,14.36,9.458,12.132,14.737,15.413,18.4,20.636a5.891,5.891,0,0,0,2.1-1.017c1.579-1.256,2.345-3.436,3.1-5.226.206-.469.411-.938.611-1.427.168-.37.316-.733.458-1.117,1.262-3.02,2.341-6.362,1.64-9.517a6.914,6.914,0,0,0-6.428-5.78,20.887,20.887,0,0,0-4.191.371,18.747,18.747,0,0,1-4.663.336,5.967,5.967,0,0,1-2.538-.859,8.949,8.949,0,0,1-.719-.72c-1.621-1.88-2.683-4.189-4.33-6.05a11.377,11.377,0,0,0-5.386-3.5,13.2,13.2,0,0,0-6.141-.064c-2.2.434-4.227,1.036-6.466.408-2.145-.611-3.842-2.07-5.592-3.372a8.045,8.045,0,0,0-5.437-1.628c-2.154.154-3.8,1.219-5.711,2.087a7.447,7.447,0,0,1-5.345.424,40.6,40.6,0,0,1-5.2-2.459,13.371,13.371,0,0,0-5.084-1.365c-.074,0-.148,0-.221,0-3.079,0-6.334,2.265-6.557,5.481" transform="translate(-220.772 -356.985)" fill="none"/>
    </clipPath>
    <linearGradient id="linear-gradient-2" x1="-2.251" y1="1.443" x2="-2.241" y2="1.443" gradientUnits="objectBoundingBox">
      <stop offset="0" stop-color="#a8f17e"/>
      <stop offset="0.262" stop-color="#74d46c"/>
      <stop offset="0.611" stop-color="#36b156"/>
      <stop offset="0.867" stop-color="#0e9c49"/>
      <stop offset="1" stop-color="#009444"/>
    </linearGradient>
    <clipPath id="clip-path-7">
      <path id="Trazado_1014679" data-name="Trazado 1014679" d="M287.3,308a7.8,7.8,0,0,0-6.348,7.435c-.028,1.985.769,3.807.925,5.74a5.111,5.111,0,0,1-1.3,3.8c-1.573,2.029-3.675,4.179-2.967,6.977,1.081,4.27,8.249,6.452,6.543,11.471-.633,1.842-2.019,3.341-2.693,5.195a5.944,5.944,0,0,0,.326,4.9,10.459,10.459,0,0,0,3.494,3.488c1.263.846,2.732,1.6,3.54,2.966a9.54,9.54,0,0,1,.817,4.159,17.847,17.847,0,0,0,1.426,5.639,25.922,25.922,0,0,0,5.651,7.885c1.845,1.815,4.2,3.568,6.856,3.843,3.043.315,5.193-1.7,6.852-4.012.021-.04.049-.059.071-.1.185-.275.39-.556.569-.851a25.057,25.057,0,0,0,3.623-8.7,13.535,13.535,0,0,0-.168-6.592c.253-2.649-.01-5.257-2.1-7.242-1.166-1.117-2.549-2-3.667-3.172a6.726,6.726,0,0,1-1.706-4.783,37.244,37.244,0,0,0-.059-5.043,9.764,9.764,0,0,0-2.2-4.748,19.421,19.421,0,0,0-4.195-3.427c-1.105-.76-2.323-1.6-2.687-2.961-.8-2.971,1.692-5.9.5-8.875-1.117-2.8-4.458-3.725-5.741-6.378-.779-1.607-.7-3.5-1.746-4.993a3.724,3.724,0,0,0-3.088-1.654,4.005,4.005,0,0,0-.523.034" transform="translate(-277.471 -307.968)" fill="none"/>
    </clipPath>
    <linearGradient id="linear-gradient-3" x1="-2.421" y1="1.958" x2="-2.412" y2="1.958" gradientUnits="objectBoundingBox">
      <stop offset="0" stop-color="#a8f17e"/>
      <stop offset="0.22" stop-color="#9deb7d"/>
      <stop offset="0.599" stop-color="#81de7b"/>
      <stop offset="1" stop-color="#5dcd79"/>
    </linearGradient>
    <clipPath id="clip-path-9">
      <path id="Trazado_1014695" data-name="Trazado 1014695" d="M353.767,385.869l3.063,7.51,9.352-4.414-3.052-7.485Z" transform="translate(-353.767 -381.479)" fill="none"/>
    </clipPath>
    <radialGradient id="radial-gradient" cx="0.5" cy="0.5" r="0.494" gradientTransform="matrix(0.959, 0, 0, -1.076, -0.948, 14.803)" gradientUnits="objectBoundingBox">
      <stop offset="0" stop-color="#ffc8af"/>
      <stop offset="1" stop-color="#ffbb9c"/>
    </radialGradient>
    <clipPath id="clip-path-11">
      <path id="Trazado_1014697" data-name="Trazado 1014697" d="M309,395.119h10.207l-.73-11.245-10.207-.026Z" transform="translate(-308.272 -383.848)" fill="none"/>
    </clipPath>
    <radialGradient id="radial-gradient-2" r="0.475" gradientTransform="matrix(1.031, 0, 0, -1.076, 0.69, 15.279)" xlink:href="#radial-gradient"/>
    <clipPath id="clip-path-13">
      <rect id="Rectángulo_461803" data-name="Rectángulo 461803" width="11.584" height="4.278" fill="none"/>
    </clipPath>
    <clipPath id="clip-path-14">
      <rect id="Rectángulo_461804" data-name="Rectángulo 461804" width="8.462" height="7.396" fill="none"/>
    </clipPath>
    <clipPath id="clip-path-15">
      <rect id="Rectángulo_461805" data-name="Rectángulo 461805" width="6.936" height="5.037" fill="none"/>
    </clipPath>
    <clipPath id="clip-path-16">
      <rect id="Rectángulo_461806" data-name="Rectángulo 461806" width="15.627" height="6.515" fill="none"/>
    </clipPath>
    <clipPath id="clip-path-17">
      <rect id="Rectángulo_461807" data-name="Rectángulo 461807" width="8.968" height="5.611" fill="none"/>
    </clipPath>
    <clipPath id="clip-path-18">
      <rect id="Rectángulo_461808" data-name="Rectángulo 461808" width="7.482" height="2.429" fill="none"/>
    </clipPath>
    <clipPath id="clip-path-19">
      <rect id="Rectángulo_461809" data-name="Rectángulo 461809" width="53.611" height="40.796" fill="none"/>
    </clipPath>
    <clipPath id="clip-path-20">
      <rect id="Rectángulo_461810" data-name="Rectángulo 461810" width="12.364" height="32.628" fill="none"/>
    </clipPath>
    <clipPath id="clip-path-21">
      <rect id="Rectángulo_461811" data-name="Rectángulo 461811" width="38.723" height="39.79" fill="none"/>
    </clipPath>
    <clipPath id="clip-path-22">
      <rect id="Rectángulo_461812" data-name="Rectángulo 461812" width="4.638" height="8.932" fill="none"/>
    </clipPath>
  </defs>
  <g id="Enmascarar_grupo_1193126" data-name="Enmascarar grupo 1193126" transform="translate(-1017.711 -713)" clip-path="url(#clip-path)">
    <g id="Grupo_1194852" data-name="Grupo 1194852" transform="translate(1018 726.386)">
      <g id="Grupo_1194851" data-name="Grupo 1194851" clip-path="url(#clip-path-2)">
        <g id="Grupo_1194802" data-name="Grupo 1194802">
          <g id="Grupo_1194801" data-name="Grupo 1194801" clip-path="url(#clip-path-2)">
            <path id="Trazado_1014657" data-name="Trazado 1014657" d="M403.441,469.627c0,6.525-81.892,11.814-182.909,11.814s-182.91-5.289-182.91-11.814,81.892-11.814,182.91-11.814,182.909,5.29,182.909,11.814" transform="translate(-7.442 -90.559)" fill="#f1f0f7"/>
            <path id="Trazado_1014658" data-name="Trazado 1014658" d="M90.976,291.527c0,9.328,8.279,16.885,18.476,16.885h19.371a30.939,30.939,0,0,0-2.029-11.033,34.08,34.08,0,0,0-13.121-16.232c-.055-.033-.091-.067-.146-.1-.42-.284-.841-.552-1.279-.82-.256-.166-.53-.3-.786-.434a14.751,14.751,0,0,0-6.616-1.539c-6.2,0-11.44,3.712-13.213,8.86a3.034,3.034,0,0,0-.183.6,14.7,14.7,0,0,0-.456,3.477,2.034,2.034,0,0,0-.018.335" transform="translate(-17.996 -55.041)" fill="#dd2a2a"/>
            <path id="Trazado_1014659" data-name="Trazado 1014659" d="M36.942,0c20.4,0,36.942,14.149,36.942,31.6v31.6H0V31.6C0,14.15,16.54,0,36.942,0" transform="translate(0 0)" fill="#bbc4dc"/>
            <path id="Trazado_1014660" data-name="Trazado 1014660" d="M283.912,276.341a15.666,15.666,0,0,1-7.8-2.033c-.383-.234-.768-.468-1.114-.719a26.72,26.72,0,0,1-6.689-6.848,28.62,28.62,0,0,1-4.934-16.259V31.7c0-.032.006-.063.006-.1,0-17.452-16.538-31.6-36.939-31.6H38c-.64,0-1.279.015-1.9.047C34.84.094,33.6.2,32.374.359a39.489,39.489,0,0,0-20.487,8.9,32.149,32.149,0,0,0-6.524,7.566,14.452,14.452,0,0,1,12.1-6,15.667,15.667,0,0,1,7.8,2.032c.383.235.768.469,1.115.72a26.707,26.707,0,0,1,6.689,6.848A28.626,28.626,0,0,1,38,36.676V260.017h.408A30.07,30.07,0,0,0,48.822,277.9a40.152,40.152,0,0,0,26.115,9.255H263.37c.639,0,1.279-.016,1.9-.047,1.26-.047,2.5-.156,3.727-.313.622-.079,1.243-.172,1.864-.282.585-.109,1.17-.219,1.754-.359.622-.141,1.243-.282,1.846-.453,1.042-.266,2.065-.594,3.07-.954.477-.172.933-.344,1.389-.516.383-.156.75-.313,1.114-.469.11-.047.2-.094.311-.14.383-.156.749-.329,1.114-.517.841-.406,1.663-.844,2.468-1.3.4-.234.8-.469,1.189-.7q.574-.375,1.15-.75c.347-.235.676-.469,1.024-.72a1.371,1.371,0,0,1,.164-.125c.694-.516,1.37-1.048,2.029-1.61.329-.282.639-.563.95-.845.31-.3.621-.578.914-.875.311-.3.585-.594.878-.891,0-.015.035-.031.035-.031a34.457,34.457,0,0,0,2.376-2.877c.476-.672.95-1.344,1.37-2.048a14.45,14.45,0,0,1-12.1,6" transform="translate(-1.061)" fill="#e8ebf3"/>
            <path id="Trazado_1014661" data-name="Trazado 1014661" d="M102.179,275.086a20.03,20.03,0,0,1,7.273-1.354h74.489v33.786H109.452c-10.2,0-18.476-7.557-18.476-16.885,0-6.988,4.624-12.973,11.2-15.547" transform="translate(-17.996 -54.146)" fill="#bbc4dc"/>
            <path id="Trazado_1014662" data-name="Trazado 1014662" d="M92.052,341.3h-.018v.017H280.467v-.051a38.668,38.668,0,0,0,26.115-9.88,32.25,32.25,0,0,0,10.837-23.872c0-18.656-16.539-33.785-36.952-33.785H109.614a20.03,20.03,0,0,0-7.273,1.354A17.394,17.394,0,0,0,91.8,286.22c1.773-5.149,7.018-8.86,13.213-8.86a14.764,14.764,0,0,1,6.616,1.538c.256.134.53.268.785.435a10.143,10.143,0,0,1,1.28.819c.055.034.091.067.146.1a34.08,34.08,0,0,1,13.121,16.232,30.935,30.935,0,0,1,2.029,11.033c0,18.657-16.539,33.786-36.934,33.786" transform="translate(-18.158 -54.146)" fill="#f4f4f4"/>
            <path id="Trazado_1014663" data-name="Trazado 1014663" d="M257.629,128.416H125.766a.469.469,0,0,1-.469-.468v-5.484a.469.469,0,0,1,.469-.469H257.629a.469.469,0,0,1,.468.469v5.484a.469.469,0,0,1-.468.468" transform="translate(-24.785 -24.131)" fill="#bbc4dc"/>
            <path id="Trazado_1014664" data-name="Trazado 1014664" d="M103.033,133.613H91.667a3.31,3.31,0,0,1-3.307-3.307V117.7a4.306,4.306,0,0,1,4.3-4.3h10.372a4.306,4.306,0,0,1,4.3,4.3v11.617a4.306,4.306,0,0,1-4.3,4.3M92.661,115.955a1.742,1.742,0,0,0-1.741,1.741v12.611a.747.747,0,0,0,.746.746h11.366a1.742,1.742,0,0,0,1.741-1.741V117.7a1.742,1.742,0,0,0-1.741-1.741Z" transform="translate(-17.478 -22.43)" fill="#bbc4dc"/>
            <path id="Trazado_1014665" data-name="Trazado 1014665" d="M257.629,166.188H125.766a.469.469,0,0,1-.468-.468v-5.484a.469.469,0,0,1,.468-.469H257.629a.469.469,0,0,1,.468.469v5.484a.468.468,0,0,1-.468.468" transform="translate(-24.785 -31.603)" fill="#bbc4dc"/>
            <path id="Trazado_1014666" data-name="Trazado 1014666" d="M104.027,171.386H91.667a3.311,3.311,0,0,1-3.307-3.307V154.473a3.31,3.31,0,0,1,3.307-3.307h12.36a3.311,3.311,0,0,1,3.307,3.307v13.605a3.311,3.311,0,0,1-3.307,3.307m-12.36-17.659a.747.747,0,0,0-.746.747v13.605a.747.747,0,0,0,.746.747h12.36a.748.748,0,0,0,.747-.747V154.473a.748.748,0,0,0-.747-.747Z" transform="translate(-17.478 -29.902)" fill="#bbc4dc"/>
            <path id="Trazado_1014667" data-name="Trazado 1014667" d="M257.629,203.96H125.766a.469.469,0,0,1-.469-.468v-5.484a.469.469,0,0,1,.469-.469H257.629a.469.469,0,0,1,.468.469v5.484a.469.469,0,0,1-.468.468" transform="translate(-24.785 -39.075)" fill="#bbc4dc"/>
            <path id="Trazado_1014668" data-name="Trazado 1014668" d="M104.027,209.157H91.667a3.31,3.31,0,0,1-3.307-3.307V192.245a3.31,3.31,0,0,1,3.307-3.307h12.36a3.311,3.311,0,0,1,3.307,3.307v13.605a3.31,3.31,0,0,1-3.307,3.307M91.667,191.5a.747.747,0,0,0-.746.747v13.605a.747.747,0,0,0,.746.746h12.36a.747.747,0,0,0,.747-.746V192.245a.748.748,0,0,0-.747-.747Z" transform="translate(-17.478 -37.374)" fill="#bbc4dc"/>
            <path id="Trazado_1014669" data-name="Trazado 1014669" d="M257.629,242.044H125.766a.469.469,0,0,1-.469-.468v-5.484a.469.469,0,0,1,.469-.469H257.629a.469.469,0,0,1,.468.469v5.484a.469.469,0,0,1-.468.468" transform="translate(-24.785 -46.608)" fill="#bbc4dc"/>
            <path id="Trazado_1014670" data-name="Trazado 1014670" d="M104.027,247.242H91.667a3.311,3.311,0,0,1-3.307-3.307V230.329a3.31,3.31,0,0,1,3.307-3.307h12.36a3.31,3.31,0,0,1,3.307,3.307v13.606a3.311,3.311,0,0,1-3.307,3.307m-12.36-17.659a.747.747,0,0,0-.746.746v13.606a.747.747,0,0,0,.746.747h12.36a.748.748,0,0,0,.747-.747V230.329a.748.748,0,0,0-.747-.746Z" transform="translate(-17.478 -44.907)" fill="#bbc4dc"/>
            <path id="Trazado_1014671" data-name="Trazado 1014671" d="M248.645,91.685H86.47a.234.234,0,0,1-.234-.234V88.709a.234.234,0,0,1,.234-.234H248.645a.234.234,0,0,1,.234.234v2.742a.235.235,0,0,1-.234.234" transform="translate(-17.058 -17.501)" fill="#bbc4dc"/>
            <path id="Trazado_1014672" data-name="Trazado 1014672" d="M100.33,126.236l-.1,0a2.113,2.113,0,0,1-1.481-.717L94.1,120.182a1.392,1.392,0,0,1,2.1-1.829l4.12,4.731,9.978-11.623a1.392,1.392,0,1,1,2.113,1.814l-10.644,12.389a2.107,2.107,0,0,1-1.441.572" transform="translate(-18.547 -21.952)" fill="#7dadd8"/>
            <path id="Trazado_1014673" data-name="Trazado 1014673" d="M100.33,165.515l-.1,0a2.113,2.113,0,0,1-1.481-.717L94.1,159.461a1.392,1.392,0,0,1,2.1-1.829l4.12,4.731L110.3,150.74a1.392,1.392,0,1,1,2.113,1.814l-10.644,12.389a2.107,2.107,0,0,1-1.441.572" transform="translate(-18.547 -29.721)" fill="#7dadd8"/>
            <path id="Trazado_1014674" data-name="Trazado 1014674" d="M100.33,203.2l-.1,0a2.113,2.113,0,0,1-1.481-.717L94.1,197.144a1.392,1.392,0,0,1,2.1-1.829l4.12,4.731,9.978-11.623a1.392,1.392,0,1,1,2.113,1.814l-10.644,12.389a2.107,2.107,0,0,1-1.441.572" transform="translate(-18.547 -37.176)" fill="#7dadd8"/>
            <path id="Trazado_1014675" data-name="Trazado 1014675" d="M100.33,242.478l-.1,0a2.113,2.113,0,0,1-1.481-.717L94.1,236.424a1.392,1.392,0,0,1,2.1-1.829l4.12,4.731L110.3,227.7a1.392,1.392,0,1,1,2.113,1.814l-10.644,12.389a2.107,2.107,0,0,1-1.441.572" transform="translate(-18.547 -44.945)" fill="#7dadd8"/>
          </g>
        </g>
        <g id="Grupo_1194804" data-name="Grupo 1194804" transform="translate(177.079 286.37)">
          <g id="Grupo_1194803" data-name="Grupo 1194803" clip-path="url(#clip-path-4)">
            <rect id="Rectángulo_461789" data-name="Rectángulo 461789" width="90.552" height="71.8" transform="translate(-15.981 7.616) rotate(-25.536)" fill="url(#linear-gradient)"/>
          </g>
        </g>
        <g id="Grupo_1194806" data-name="Grupo 1194806" transform="translate(177.101 286.37)">
          <g id="Grupo_1194805" data-name="Grupo 1194805" clip-path="url(#clip-path-5)">
            <rect id="Rectángulo_461790" data-name="Rectángulo 461790" width="79.048" height="89.453" transform="translate(-18.885 27.515) rotate(-55.536)" fill="url(#linear-gradient-2)"/>
          </g>
        </g>
        <g id="Grupo_1194808" data-name="Grupo 1194808">
          <g id="Grupo_1194807" data-name="Grupo 1194807" clip-path="url(#clip-path-2)">
            <path id="Trazado_1014678" data-name="Trazado 1014678" d="M252.461,373.089c1.965.752,4.149.7,6.16,1.305q2.987.918,5.959,1.863c3.695,1.152,7.241,2.7,10.895,3.934,3.725,1.254,7.452,2.475,11.138,3.863a99.164,99.164,0,0,1,10.733,4.853c1.626.841,3.253,1.68,4.885,2.541.888.47,1.786,1.047,2.715,1.5.168-.369.317-.733.459-1.117-1.11-.659-2.318-1.2-3.391-1.772-1.815-.995-3.624-1.969-5.49-2.871a115.1,115.1,0,0,0-10.69-4.557c-3.755-1.357-7.55-2.546-11.321-3.843-3.677-1.279-7.33-2.7-11.114-3.627-1.835-.459-3.623-1.1-5.489-1.469-1.8-.37-3.656-.225-5.429-.734-.081-.01-.091.1-.018.127" transform="translate(-49.929 -73.775)" fill="#2da59a"/>
          </g>
        </g>
        <g id="Grupo_1194810" data-name="Grupo 1194810" transform="translate(222.585 247.049)">
          <g id="Grupo_1194809" data-name="Grupo 1194809" clip-path="url(#clip-path-7)">
            <rect id="Rectángulo_461792" data-name="Rectángulo 461792" width="82.546" height="73.346" transform="translate(-35.022 50.201) rotate(-55.536)" fill="url(#linear-gradient-3)"/>
          </g>
        </g>
        <g id="Grupo_1194812" data-name="Grupo 1194812">
          <g id="Grupo_1194811" data-name="Grupo 1194811" clip-path="url(#clip-path-2)">
            <path id="Trazado_1014680" data-name="Trazado 1014680" d="M313.481,382.3c.185-.275.39-.556.569-.852-.8-1.379-1.636-2.726-2.451-4.079-1.127-1.815-2.379-3.493-3.624-5.217a61.89,61.89,0,0,1-5.4-9.6,75.569,75.569,0,0,1-4.3-10.224c-1.008-3.374-1.613-6.888-2.411-10.335-.7-3.067-1.31-6.567-3.178-9.181-.044-.075-.155,0-.111.076,1.681,3.487,2.1,7.409,2.822,11.175a61.958,61.958,0,0,0,2.516,10.58c1.288,3.392,2.765,6.783,4.389,10.033a66.108,66.108,0,0,0,5.791,9.5c1.9,2.616,3.383,5.565,5.388,8.117" transform="translate(-57.872 -65.828)" fill="#2da59a"/>
            <path id="Trazado_1014681" data-name="Trazado 1014681" d="M394.806,86.6a15.869,15.869,0,1,1-15.868-15.709A15.789,15.789,0,0,1,394.806,86.6" transform="translate(-71.818 -14.023)" fill="#bbc4dc"/>
            <path id="Trazado_1014682" data-name="Trazado 1014682" d="M378.981,96.117a2.547,2.547,0,0,1-1.6-.57l-7.41-5.987a1.936,1.936,0,0,1-.28-2.742,1.981,1.981,0,0,1,2.769-.278l6.365,5.144L387.63,81.8a1.982,1.982,0,0,1,2.778-.172,1.934,1.934,0,0,1,.173,2.75l-9.7,10.884a2.539,2.539,0,0,1-1.9.853" transform="translate(-73.039 -16.051)" fill="#fcfafc"/>
            <rect id="Rectángulo_461793" data-name="Rectángulo 461793" width="94.976" height="65.202" transform="translate(256.2 249.304)" fill="#fcc47a"/>
            <rect id="Rectángulo_461794" data-name="Rectángulo 461794" width="28.52" height="65.202" transform="translate(322.657 249.304)" fill="#ce7a3c"/>
            <path id="Trazado_1014683" data-name="Trazado 1014683" d="M319.375,366.623l5.65-50.109s30.134-2.415,51.927-5.735H319.375Z" transform="translate(-63.175 -61.475)" fill="#f9cf9d"/>
            <path id="Trazado_1014684" data-name="Trazado 1014684" d="M357.275,375.98l25.829-2.717,4.036-62.485h6.189v65.2Z" transform="translate(-70.672 -61.474)" fill="#f2b368"/>
            <path id="Trazado_1014685" data-name="Trazado 1014685" d="M415.635,375.98l11.838-3.924V310.778h5.919v65.2Z" transform="translate(-82.216 -61.474)" fill="#b56128"/>
            <path id="Trazado_1014686" data-name="Trazado 1014686" d="M415.635,310.778v13.4l1.648-.906v1.358l1.11-1.471,1.614,1.471.707-1.245,1.916,1.245V310.778Z" transform="translate(-82.216 -61.475)" fill="#fecbaa"/>
            <rect id="Rectángulo_461795" data-name="Rectángulo 461795" width="94.976" height="65.202" transform="translate(214.371 313.898)" fill="#fcc47a"/>
            <rect id="Rectángulo_461796" data-name="Rectángulo 461796" width="28.52" height="65.202" transform="translate(280.828 313.898)" fill="#ce7a3c"/>
            <path id="Trazado_1014687" data-name="Trazado 1014687" d="M267.233,447.145l5.65-50.109s30.134-2.415,51.927-5.735H267.233Z" transform="translate(-52.861 -77.403)" fill="#f9cf9d"/>
            <path id="Trazado_1014688" data-name="Trazado 1014688" d="M305.133,456.5l25.829-2.717L335,391.3h6.188v65.2Z" transform="translate(-60.358 -77.402)" fill="#f2b368"/>
            <path id="Trazado_1014689" data-name="Trazado 1014689" d="M363.492,456.5l11.838-3.924V391.3h5.919v65.2Z" transform="translate(-71.902 -77.402)" fill="#b56128"/>
            <path id="Trazado_1014690" data-name="Trazado 1014690" d="M363.492,391.3V404.7l1.648-.906v1.358l1.11-1.471,1.614,1.471.707-1.245,1.916,1.245V391.3Z" transform="translate(-71.902 -77.403)" fill="#fecbaa"/>
            <rect id="Rectángulo_461797" data-name="Rectángulo 461797" width="94.976" height="65.202" transform="translate(301.023 313.898)" fill="#fcc47a"/>
            <rect id="Rectángulo_461798" data-name="Rectángulo 461798" width="28.52" height="65.202" transform="translate(367.479 313.898)" fill="#ce7a3c"/>
            <path id="Trazado_1014691" data-name="Trazado 1014691" d="M375.251,447.145l5.65-50.109s30.134-2.415,51.927-5.735H375.251Z" transform="translate(-74.228 -77.403)" fill="#f9cf9d"/>
            <path id="Trazado_1014692" data-name="Trazado 1014692" d="M413.151,456.5l25.829-2.717,4.036-62.485H449.2v65.2Z" transform="translate(-81.725 -77.402)" fill="#f2b368"/>
            <path id="Trazado_1014693" data-name="Trazado 1014693" d="M471.51,456.5l11.839-3.924V391.3h5.919v65.2Z" transform="translate(-93.269 -77.402)" fill="#b56128"/>
            <path id="Trazado_1014694" data-name="Trazado 1014694" d="M471.51,391.3V404.7l1.648-.906v1.358l1.11-1.471,1.614,1.471.707-1.245,1.916,1.245V391.3Z" transform="translate(-93.269 -77.403)" fill="#fecbaa"/>
          </g>
        </g>
        <g id="Grupo_1194814" data-name="Grupo 1194814" transform="translate(283.789 306.019)">
          <g id="Grupo_1194813" data-name="Grupo 1194813" clip-path="url(#clip-path-9)">
            <rect id="Rectángulo_461800" data-name="Rectángulo 461800" width="12.415" height="11.9" transform="translate(0)" fill="url(#radial-gradient)"/>
          </g>
        </g>
        <g id="Grupo_1194816" data-name="Grupo 1194816">
          <g id="Grupo_1194815" data-name="Grupo 1194815" clip-path="url(#clip-path-2)">
            <path id="Trazado_1014696" data-name="Trazado 1014696" d="M401.785,277.765c-.578,1.243-38.028.935-41.952,1.321,0,0-29.532,12.145-33.185,24.368a14.335,14.335,0,0,0-.358,4.8c1.017,17.209,19.235,58.417,19.235,58.417l2.8-1.318,9.363-4.39,1.329-.622s-14.449-46.319-11.56-48.805,35.655-5.459,47.018-8.766,7.312-25.005,7.312-25.005" transform="translate(-64.534 -54.944)" fill="#37365e"/>
          </g>
        </g>
        <g id="Grupo_1194818" data-name="Grupo 1194818" transform="translate(247.293 307.92)">
          <g id="Grupo_1194817" data-name="Grupo 1194817" clip-path="url(#clip-path-11)">
            <rect id="Rectángulo_461802" data-name="Rectángulo 461802" width="10.937" height="11.271" transform="translate(0)" fill="url(#radial-gradient-2)"/>
          </g>
        </g>
        <g id="Grupo_1194850" data-name="Grupo 1194850">
          <g id="Grupo_1194849" data-name="Grupo 1194849" clip-path="url(#clip-path-2)">
            <path id="Trazado_1014698" data-name="Trazado 1014698" d="M350.126,277.8l-.37.174s-42.574,6.429-49.51,19.273c-4.508,8.356,4.218,69.412,4.218,69.412l15.062.038s-2.253-50.861-1.5-53.7c.843-3.233,2.289-4.4,2.866-4.738a14.332,14.332,0,0,1,.359-4.8c3.652-12.223,29.083-25.279,29.083-25.279a.8.8,0,0,1-.208-.386" transform="translate(-59.135 -54.95)" fill="#37365e"/>
            <path id="Trazado_1014699" data-name="Trazado 1014699" d="M356.92,279.936c-.081-.063-4.455-1.953-4.513-2.14l-.37.174s-27.063,4.086-41.549,12.253A103.061,103.061,0,0,1,320.7,311.761a6.47,6.47,0,0,1,2.477-3.5,14.33,14.33,0,0,1,.359-4.8c3.652-12.223,33.389-23.524,33.389-23.524" transform="translate(-61.417 -54.95)" fill="#242345"/>
            <path id="Trazado_1014700" data-name="Trazado 1014700" d="M338.161,405.62c.351,2.026,1.657,3.466,3.54,3.088l25.106-5.038a1.256,1.256,0,0,0,.935-1.467l-.416-2.4s-26.4,4.97-29.179,5.8Z" transform="translate(-66.888 -79.085)" fill="#f1f2f2"/>
            <path id="Trazado_1014701" data-name="Trazado 1014701" d="M345.63,396.877c.262-.245.513-.487.776-.732.5-.485,1-.956,1.476-1.413.252-.242.5-.485.737-.712.459-.442.89-.856,1.277-1.227.279-.27.539-.525.773-.753l1.025-.988a.538.538,0,0,1,.747-.017c1.032.934,4.368,3.068,10.41-.954a.559.559,0,0,1,.822.23l3.654,7.553s-26.4,4.97-29.179,5.8c.912-.612,4.283-3.749,7.482-6.785" transform="translate(-66.888 -77.142)" fill="#1e3a8a"/>
            <path id="Trazado_1014702" data-name="Trazado 1014702" d="M288.87,406.54c.047,2.06,1.122,3.705,3.037,3.656l25.531-.671a1.223,1.223,0,0,0,1.142-1.289l-.055-2.436s-26.8.382-29.665.724Z" transform="translate(-57.139 -80.271)" fill="#f1f2f2"/>
            <path id="Trazado_1014703" data-name="Trazado 1014703" d="M297.252,398.763c.3-.2.579-.392.874-.589.569-.392,1.128-.773,1.666-1.143.285-.2.57-.392.833-.577.518-.358,1.006-.692,1.443-.992l.874-.612,1.158-.8a.541.541,0,0,1,.74.111c.88,1.1,3.858,3.778,10.418.842a.568.568,0,0,1,.777.368l2.488,8.084s-26.8.381-29.665.723c.992-.448,4.783-2.967,8.392-5.416" transform="translate(-57.139 -77.927)" fill="#1e3a8a"/>
            <path id="Trazado_1014704" data-name="Trazado 1014704" d="M433.926,244.37a26.612,26.612,0,0,0,.159-5.857c-.386-4.147-1.25-8.268-1.681-12.415-.651-6.265-.8-13.739-3.873-19.666a12.313,12.313,0,0,0-3.413-4.187c-.181-.108-.365-.213-.553-.306a3.027,3.027,0,0,0-2.264-.245,6.243,6.243,0,0,0-1.272.57,5.8,5.8,0,0,0-1.283.983,8.927,8.927,0,0,0-1.762,2.708,16.118,16.118,0,0,0-1.363,5.9,30.006,30.006,0,0,0,.348,5.34,64.758,64.758,0,0,1,2.827,9.818c.379,2.284.825,4.563,1.17,6.85.322,2.141.57,4.289.695,6.439a15.525,15.525,0,0,0,.923,5.352,5.17,5.17,0,0,0,1.7,2.17,5.761,5.761,0,0,0,2.789,1,6.007,6.007,0,0,0,4.8-1.355c1.069-1.063,1.807-1.663,2.054-3.093" transform="translate(-82.408 -39.873)" fill="#fcc2b4"/>
            <path id="Trazado_1014705" data-name="Trazado 1014705" d="M329.3,249.133s28.571,4.783,32.711-.009c4.464-5.165-1.973-11.177-6.486-10.342s-22.9,4.486-25.548,5.258-2.135,4.625-.677,5.093" transform="translate(-64.9 -47.218)" fill="#fcc2b4"/>
            <path id="Trazado_1014706" data-name="Trazado 1014706" d="M379.707,205.135a11.7,11.7,0,0,0-.671-5.131c-.092-.174-.189-.345-.3-.511a3.2,3.2,0,0,0-.4-.5c-.706.1-1.414.171-2.116.3a10.769,10.769,0,0,0-3.577,1.422,14.93,14.93,0,0,0-2.808,2.169,14.234,14.234,0,0,0-2.238,2.951,41.25,41.25,0,0,0-2.971,6.866q-.858,2.336-1.783,4.637c-.176.529-.36,1.056-.565,1.577-.837,2.134-1.619,4.293-2.487,6.414-.813,1.986-1.691,3.944-2.669,5.849a16.276,16.276,0,0,0-1.936,5.015,4.937,4.937,0,0,0,.29,2.627,4.994,4.994,0,0,0,1.766,2.106,5.416,5.416,0,0,0,4.582.988,6.828,6.828,0,0,0,3.328-2.73,27.175,27.175,0,0,0,2.376-4.27c1.769-3.737,3.722-7.374,5.453-11.133,2.615-5.679,6.248-12.172,6.724-18.645" transform="translate(-70.247 -39.362)" fill="#fcc2b4"/>
            <path id="Trazado_1014707" data-name="Trazado 1014707" d="M373.671,195.79s-6.648,1.174-9.621,6.61-9.8,28.363-9.8,28.363,4.413,3.417,12.078,3.652c.273.008.549.013.829.013,8.174,0,6.514-38.638,6.514-38.638" transform="translate(-70.074 -38.729)" fill="#1e3a8a"/>
            <path id="Trazado_1014708" data-name="Trazado 1014708" d="M422.914,227.907s-2.508-21.313-5.1-26.884-13.4-7.334-13.4-7.334c-.743-.2-1.512-.385-2.3-.56a48.683,48.683,0,0,0-28.26,2.318l-.022.009a112.8,112.8,0,0,0-6.266,27.085c-1.3,11.7-4.615,38.546-4.615,38.546a63.652,63.652,0,0,0,46.645,4.355s-1.163-22.139-.447-36.506c3.271.063,10.091.2,13.774-1.029" transform="translate(-71.793 -37.982)" fill="#1e3a8a"/>
            <path id="Trazado_1014709" data-name="Trazado 1014709" d="M402.329,192.463a48.406,48.406,0,0,0-17.577.837c-1.456,1.3-2.6,5.231-.67,6.32,2.611,1.476,6.734,3.737,12.826.067,3.94-2.374,6.029-5.264,5.42-7.223" transform="translate(-75.773 -37.983)" fill="#0372ce"/>
            <path id="Trazado_1014710" data-name="Trazado 1014710" d="M386.484,188.925c-.963,1.9-2.549,3.307.371,4.949a7.205,7.205,0,0,0,6.145.538,18.982,18.982,0,0,0,6.569-4.126,4.935,4.935,0,0,0,1.3-1.774c.61-1.673-1.1-2.678-1.235-4.238-.4-4.654-.971-9.534-.639-14.249a5.112,5.112,0,0,1,.249-1.541.829.829,0,0,0-.381-.341,3.177,3.177,0,0,0-1.957-.01c-.709.17-1.389.442-2.087.658a25.866,25.866,0,0,0-4.83,2.014,26.85,26.85,0,0,0-4.05,3,11.271,11.271,0,0,0-1.292,1.085.984.984,0,0,0-.314.582c0,.3.335.48.493.7a13.541,13.541,0,0,1,1.79,5.418,18.192,18.192,0,0,1,.311,6,4.455,4.455,0,0,1-.444,1.342" transform="translate(-76.024 -33.228)" fill="#fcc2b4"/>
            <path id="Trazado_1014711" data-name="Trazado 1014711" d="M386.492,190.491c6.854.713,11.078-3.547,13-6.191-.245-2.7-.5-5.458-.574-8.2L397.9,176l-13.55.948a.466.466,0,0,0-.021.114c0,.3.335.481.493.7a13.52,13.52,0,0,1,1.79,5.417,18.173,18.173,0,0,1,.312,6,4.45,4.45,0,0,1-.436,1.321" transform="translate(-76.024 -34.813)" fill="#fba896"/>
            <path id="Trazado_1014712" data-name="Trazado 1014712" d="M394.219,267.51a5.741,5.741,0,0,0-1.19-1.477,4.725,4.725,0,0,0-1.612-.869c-.788-.256-1.61-.425-2.411-.63-.821-.212-1.643-.419-2.468-.61a19.03,19.03,0,0,0-2.184-.449,1.971,1.971,0,0,0-.83.059c-.661.055-1.321.144-1.976.241-.864.128-1.727.28-2.578.477a11.22,11.22,0,0,0-2.074.651,5.8,5.8,0,0,0-1.722,1.216A15.538,15.538,0,0,0,373.9,267.3a.871.871,0,0,0-.249.622.5.5,0,0,0,.383.391,1.844,1.844,0,0,0,.678.069,12.457,12.457,0,0,0,3.1-1.423,5.856,5.856,0,0,1,1.034-.376,10.644,10.644,0,0,1,1.6-.326c.368-.047.737-.077,1.107-.094-.109.041-.218.083-.326.128a14.235,14.235,0,0,0-1.483.841,7.229,7.229,0,0,0-1.367.921l-.011.01a5.31,5.31,0,0,0-.9.693,9.775,9.775,0,0,0-1.321,1.652c-.147.224-.3.44-.46.659-.278.286-.551.577-.8.883a2.48,2.48,0,0,0-.59,1.118c-.074.489.359.651.774.634a2.1,2.1,0,0,0,1.525-1.028,12.673,12.673,0,0,1,1.665-1.812,5.892,5.892,0,0,1,2.131-1.233c.028-.01.058-.016.087-.026-.049.027-.1.051-.145.083a2.717,2.717,0,0,0-.759.9c-.532.866-1.158,1.668-1.745,2.5-.3.425-.609.837-.92,1.253-.2.272-1.4,1.782-.481,1.855a1.732,1.732,0,0,0,.777-.185,3.162,3.162,0,0,0,.877-.6,10.137,10.137,0,0,0,1.457-1.822,9.513,9.513,0,0,1,.732-1.025,3.565,3.565,0,0,1,1.317-.875,10.489,10.489,0,0,1,2.413-.637c-.276.12-.552.241-.824.369a7.018,7.018,0,0,0-2.579,2.484c-.364.481-.858.848-1.2,1.341-.206.3-.39.751-.068,1.041.237.215.592.1.841-.023a9.316,9.316,0,0,0,2.069-1.809,13.013,13.013,0,0,1,2.618-1.736,4.785,4.785,0,0,1,3.081-.31q.831.064,1.666.062a19.117,19.117,0,0,0,3.376-.262,2.568,2.568,0,0,0,1.185-.489,1.79,1.79,0,0,0,.545-.781,3.883,3.883,0,0,0-.5-3.431" transform="translate(-73.911 -52.114)" fill="#fcc2b4"/>
            <g id="Grupo_1194821" data-name="Grupo 1194821" transform="translate(299.757 211.343)" style="mix-blend-mode: screen;isolation: isolate">
              <g id="Grupo_1194820" data-name="Grupo 1194820">
                <g id="Grupo_1194819" data-name="Grupo 1194819" clip-path="url(#clip-path-13)">
                  <path id="Trazado_1014713" data-name="Trazado 1014713" d="M376.839,265.42a12.182,12.182,0,0,1,3.92-1.441,20.7,20.7,0,0,1,4.292-.36l.205.007c-.3-.063-.6-.119-.9-.152a1.963,1.963,0,0,0-.831.06c-.66.055-1.32.143-1.975.24-.865.128-1.728.28-2.579.477a11.245,11.245,0,0,0-2.074.652,5.8,5.8,0,0,0-1.721,1.215,15.42,15.42,0,0,0-1.27,1.183,1.126,1.126,0,0,0-.235.432,23.011,23.011,0,0,1,3.167-2.315" transform="translate(-373.672 -263.457)" fill="#f6dfc9"/>
                </g>
              </g>
            </g>
            <g id="Grupo_1194824" data-name="Grupo 1194824" transform="translate(300.385 214.018)" style="mix-blend-mode: screen;isolation: isolate">
              <g id="Grupo_1194823" data-name="Grupo 1194823">
                <g id="Grupo_1194822" data-name="Grupo 1194822" clip-path="url(#clip-path-14)">
                  <path id="Trazado_1014714" data-name="Trazado 1014714" d="M375.8,272.212a18.966,18.966,0,0,1,1.615-1.638c.566-.525,1.121-1.06,1.725-1.542a12.143,12.143,0,0,1,2.018-1.347c.582-.3,1.187-.549,1.762-.857a3.572,3.572,0,0,0-1.454.1l-.071.028a14.088,14.088,0,0,0-1.483.841,7.191,7.191,0,0,0-1.367.921l-.01.01a5.314,5.314,0,0,0-.9.693,9.8,9.8,0,0,0-1.32,1.651c-.148.225-.3.441-.461.659-.278.286-.551.577-.8.883a2.487,2.487,0,0,0-.589,1.118.474.474,0,0,0,.148.458,6.141,6.141,0,0,1,1.186-1.975" transform="translate(-374.455 -266.791)" fill="#f4b79f"/>
                </g>
              </g>
            </g>
            <g id="Grupo_1194827" data-name="Grupo 1194827" transform="translate(300.916 216.553)" style="mix-blend-mode: multiply;isolation: isolate">
              <g id="Grupo_1194826" data-name="Grupo 1194826">
                <g id="Grupo_1194825" data-name="Grupo 1194825" clip-path="url(#clip-path-15)">
                  <path id="Trazado_1014715" data-name="Trazado 1014715" d="M380.323,271.054c.547-.4,1.151-.733,1.729-1.1a9.633,9.633,0,0,0-2.394.81,9.258,9.258,0,0,0-3.135,2.651c-.194.266-.358.554-.553.821a1.983,1.983,0,0,1-.854.739,1.308,1.308,0,0,0,.251.014,2.1,2.1,0,0,0,1.524-1.028,12.689,12.689,0,0,1,1.665-1.813,5.933,5.933,0,0,1,1.766-1.093" transform="translate(-375.117 -269.952)" fill="#f6dfc9"/>
                </g>
              </g>
            </g>
            <g id="Grupo_1194830" data-name="Grupo 1194830" transform="translate(305.404 217.781)" style="mix-blend-mode: multiply;isolation: isolate">
              <g id="Grupo_1194829" data-name="Grupo 1194829">
                <g id="Grupo_1194828" data-name="Grupo 1194828" clip-path="url(#clip-path-16)">
                  <path id="Trazado_1014716" data-name="Trazado 1014716" d="M395.306,272.261a7.1,7.1,0,0,1-1.085.617,8.328,8.328,0,0,1-2.617.521c-.921.064-1.842.043-2.763.03a11.03,11.03,0,0,0-2.323.124,5.234,5.234,0,0,0-1.984.842,12.18,12.18,0,0,0-2.051,2.019,11.034,11.034,0,0,1-.951,1,1.981,1.981,0,0,1-.681.4.89.89,0,0,1-.14.033.153.153,0,0,0,.021.025c.236.214.591.1.841-.023a9.3,9.3,0,0,0,2.069-1.81,13.015,13.015,0,0,1,2.617-1.735,4.789,4.789,0,0,1,3.082-.31c.553.043,1.11.063,1.665.062a19.048,19.048,0,0,0,3.377-.263,2.554,2.554,0,0,0,1.185-.489,1.785,1.785,0,0,0,.545-.781,2.477,2.477,0,0,0,.226-1.044,8.18,8.18,0,0,1-1.033.778" transform="translate(-380.712 -271.483)" fill="#f6dfc9"/>
                </g>
              </g>
            </g>
            <g id="Grupo_1194833" data-name="Grupo 1194833" transform="translate(302.184 218.47)" style="mix-blend-mode: multiply;isolation: isolate">
              <g id="Grupo_1194832" data-name="Grupo 1194832">
                <g id="Grupo_1194831" data-name="Grupo 1194831" clip-path="url(#clip-path-17)">
                  <path id="Trazado_1014717" data-name="Trazado 1014717" d="M382.2,273.447a10.449,10.449,0,0,1,2.412-.636l0,0a4.46,4.46,0,0,0,1.057-.456,9.377,9.377,0,0,0-2.549.2,6.3,6.3,0,0,0-2.453,1.06,9.843,9.843,0,0,0-1.893,2.342,7.987,7.987,0,0,1-.97,1.166,1.73,1.73,0,0,1-.891.473.97.97,0,0,1-.21.012c-.006.187.082.322.34.343a1.707,1.707,0,0,0,.777-.185,3.148,3.148,0,0,0,.878-.6,10.137,10.137,0,0,0,1.457-1.822,9.589,9.589,0,0,1,.732-1.025,3.565,3.565,0,0,1,1.317-.875" transform="translate(-376.698 -272.341)" fill="#f6dfc9"/>
                </g>
              </g>
            </g>
            <g id="Grupo_1194836" data-name="Grupo 1194836" transform="translate(300.195 213.846)" style="mix-blend-mode: multiply;isolation: isolate">
              <g id="Grupo_1194835" data-name="Grupo 1194835">
                <g id="Grupo_1194834" data-name="Grupo 1194834" clip-path="url(#clip-path-18)">
                  <path id="Trazado_1014718" data-name="Trazado 1014718" d="M378.963,267.2a10.54,10.54,0,0,1,1.6-.326c.221-.029.44-.049.661-.066.158-.058.317-.112.477-.165a14,14,0,0,0-2.383-.027,6.645,6.645,0,0,0-2.456.7,6.327,6.327,0,0,0-1.181.767,5.229,5.229,0,0,1-.94.713,1.3,1.3,0,0,1-.521.152,1.916,1.916,0,0,0,.609.051,12.477,12.477,0,0,0,3.1-1.423,5.781,5.781,0,0,1,1.033-.376" transform="translate(-374.219 -266.577)" fill="#f6dfc9"/>
                </g>
              </g>
            </g>
            <path id="Trazado_1014719" data-name="Trazado 1014719" d="M397.838,267.787s23.622-4.418,28.483-8.289,3.413-9.384.333-10.673-7.248-.363-10.8,2.51-19.9,11.977-19.9,11.977Z" transform="translate(-78.324 -49.107)" fill="#fcc2b4"/>
            <path id="Trazado_1014720" data-name="Trazado 1014720" d="M373,161.367s.783,7.281,1.407,11.148,1.939,12.739,9.646,12.742,11.373-4.535,13.866-6.653c0,0,7.7-9.634,6.037-12s-4.163-9.882-11.661-8.6S373,161.367,373,161.367" transform="translate(-73.783 -31.227)" fill="#fcc2b4"/>
            <path id="Trazado_1014721" data-name="Trazado 1014721" d="M392.3,158.01C384.8,159.3,373,161.367,373,161.367s.059.554.157,1.422c2.837.953,5.769,1.925,7.573,1.2,0,0-.01.461-1.094,1.008,0,0,10,1.243,14.433-1.81,0,0-1.006,5.246,2.011,6.923l3.149-10.229a7.978,7.978,0,0,0-6.934-1.867" transform="translate(-73.783 -31.227)" fill="#fba896"/>
            <path id="Trazado_1014722" data-name="Trazado 1014722" d="M379.449,144.611c1.612-.992,3.212-2.012,4.7-3.019a10.9,10.9,0,0,1,8.531-1.7,13.729,13.729,0,0,1,8.686,6.675l2.915,2.149c2.916,2.149,2.678,10.091.173,14.628-4.682,8.481-8.721,12-8.721,12-.317.055-.351-.2-.209-.626a6.71,6.71,0,0,0-.34-3.049c5.431-2.338,5.182-7.767,2.774-8.27s-3.709,4.285-3.709,4.285l-.554-1.534c-1.138-4.114.379-9.066.379-9.066s-.126.093-.358.246c-.009.019-.014.036-.023.056a7.319,7.319,0,0,1-4.872,3.109s.432-.506.977-1.19a19.164,19.164,0,0,1-9.414,1.171,19.685,19.685,0,0,0,4.191-1.655,51.565,51.565,0,0,1-8.2-.026c-10.414-.863-12.793-7.618-12.793-7.618a50.87,50.87,0,0,0,15.87-6.573" transform="translate(-71.919 -27.621)" fill="#3f3c51"/>
            <path id="Trazado_1014723" data-name="Trazado 1014723" d="M381.383,177.262c.016-.116-.36-.245-.532-.77a1.537,1.537,0,0,1-.018-.921,5.69,5.69,0,0,1,.515-1.189c.924-1.774,1.515-3.3,1.322-3.409s-1.1,1.245-2.025,3.022a4.666,4.666,0,0,0-.533,1.426,2.178,2.178,0,0,0,0,.736,1.8,1.8,0,0,0,.233.6,1.193,1.193,0,0,0,.7.562c.211.047.326-.006.331-.057" transform="translate(-75.184 -33.819)" fill="#f69d7d"/>
            <path id="Trazado_1014724" data-name="Trazado 1014724" d="M387.113,168.485c.065.111.433-.014,1.006-.135a6.03,6.03,0,0,1,2.223-.079,6.132,6.132,0,0,1,2.074.777l.612.365c.154.087.262.126.3.083s.026-.153-.061-.322a2.7,2.7,0,0,0-.488-.63,4.325,4.325,0,0,0-2.326-1.158,4.259,4.259,0,0,0-2.538.367c-.6.3-.866.634-.806.731" transform="translate(-76.572 -33.1)" fill="#3e3533"/>
            <path id="Trazado_1014725" data-name="Trazado 1014725" d="M379.578,167.452c.075-.064-.062-.414-.479-.83a3.782,3.782,0,0,0-2.011-1.008,3.713,3.713,0,0,0-2.232.318,2.3,2.3,0,0,0-.57.387c-.115.116-.159.2-.134.251s.124.045.275.015l.6-.133a4.943,4.943,0,0,1,3.749.61c.444.259.717.464.8.391" transform="translate(-74.009 -32.75)" fill="#3e3533"/>
            <path id="Trazado_1014726" data-name="Trazado 1014726" d="M388.308,172.356c-.215.943.04,1.86.569,2.047s1.132-.426,1.346-1.369-.04-1.86-.569-2.047-1.131.426-1.346,1.369" transform="translate(-76.795 -33.816)" fill="#3e3533"/>
            <path id="Trazado_1014727" data-name="Trazado 1014727" d="M376.259,170.713c-.176.774.033,1.526.467,1.679s.928-.35,1.1-1.123-.033-1.526-.467-1.679-.928.35-1.1,1.123" transform="translate(-74.415 -33.541)" fill="#3e3533"/>
            <path id="Trazado_1014728" data-name="Trazado 1014728" d="M384.375,181.935a8.936,8.936,0,0,1-5.642.045c.23,1.568.585,2.692,2.725,2.812a2.706,2.706,0,0,0,2.917-2.857" transform="translate(-74.917 -35.988)" fill="#cb4453"/>
            <path id="Trazado_1014729" data-name="Trazado 1014729" d="M384.81,182.04a3.5,3.5,0,0,0-.55.162,7.684,7.684,0,0,0-3.318,2.46,4.334,4.334,0,0,0,.953.15,2.7,2.7,0,0,0,2.915-2.772" transform="translate(-75.353 -36.009)" fill="#dd5664"/>
            <path id="Trazado_1014730" data-name="Trazado 1014730" d="M379.531,182.165a4.316,4.316,0,0,0,.12.72,6.385,6.385,0,0,0,4.782-.086,2.478,2.478,0,0,0,.1-.865,10.79,10.79,0,0,1-5,.23" transform="translate(-75.074 -35.988)" fill="#f8e8d8"/>
            <path id="Trazado_1014731" data-name="Trazado 1014731" d="M418.3,216.139l.478,6.122,1.311,11.441c.813.018,1.847.041,3,.044Z" transform="translate(-82.744 -42.754)" fill="#0372ce"/>
            <path id="Trazado_1014732" data-name="Trazado 1014732" d="M376.372,161.4a51.565,51.565,0,0,0,8.2.026,19.685,19.685,0,0,1-4.191,1.655,19.164,19.164,0,0,0,9.414-1.171c-.544.684-.977,1.19-.977,1.19a7.32,7.32,0,0,0,4.872-3.109c.01-.02.014-.037.024-.056.231-.153.357-.246.357-.246s-1.517,4.952-.378,9.066l.554,1.534s1.3-4.788,3.709-4.285,2.657,5.932-2.773,8.27a6.7,6.7,0,0,1,.339,3.049c-.14.428-.107.68.21.626,0,0,3.182-2.784,7.17-9.334-1.033-2.586-2.228-5.924-2.36-7.834-.237-3.431-5.5-10.664-11.845-7s-25.122,0-25.122,0,2.38,6.754,12.793,7.618" transform="translate(-71.919 -30.22)" fill="#332d49"/>
            <path id="Trazado_1014733" data-name="Trazado 1014733" d="M309.759,271.975l54.875.339-19.954-41.7-54.875-.339Z" transform="translate(-57.326 -45.55)" fill="#37365e"/>
            <path id="Trazado_1014734" data-name="Trazado 1014734" d="M309.766,272.127l53.611.389-19.735-40.787-53.61-.389Z" transform="translate(-57.371 -45.761)" fill="#6d78b8"/>
            <path id="Trazado_1014735" data-name="Trazado 1014735" d="M343.285,232.3l-53.114-.385-.14-.58,53.611.388,19.735,40.788-.5,0Z" transform="translate(-57.371 -45.761)" fill="#6d78b8"/>
            <g id="Grupo_1194839" data-name="Grupo 1194839" transform="translate(252.395 185.958)" opacity="0.2" style="mix-blend-mode: multiply;isolation: isolate">
              <g id="Grupo_1194838" data-name="Grupo 1194838">
                <g id="Grupo_1194837" data-name="Grupo 1194837" clip-path="url(#clip-path-19)">
                  <path id="Trazado_1014736" data-name="Trazado 1014736" d="M314.632,272.22c40.933-4.538,32.153-39.831,32.153-39.831l.519-.575,1.2.008,19.735,40.787Z" transform="translate(-314.632 -231.813)" fill="#a5c0d7"/>
                </g>
              </g>
            </g>
            <path id="Trazado_1014737" data-name="Trazado 1014737" d="M314.214,285.286l77.241.56.031-3.611-77.241-.56Z" transform="translate(-62.154 -55.718)" fill="#7e8bc1"/>
            <path id="Trazado_1014738" data-name="Trazado 1014738" d="M382.85,285.785l22.182.16.031-3.611-22.181-.161Z" transform="translate(-75.731 -55.816)" fill="#6d78b8"/>
            <path id="Trazado_1014739" data-name="Trazado 1014739" d="M317.182,238.478H302.86l-1.028-2.041h14.322Z" transform="translate(-59.705 -46.769)" fill="#8b98cc"/>
            <path id="Trazado_1014740" data-name="Trazado 1014740" d="M175.456,438.283s-2.861-.076-4.041,4.425-4.005,14.171-4.172,15.162,1.993,6.313,4.716,7.613c3.571,1.7,10.2-5.5,10.039-8.613-.231-4.595-.516-12.034-.665-15.832s-4.615-3.1-5.878-2.755" transform="translate(-33.08 -86.64)" fill="#242345"/>
            <path id="Trazado_1014741" data-name="Trazado 1014741" d="M181.793,370.858c-3.342-.222-8.214-.74-12.221-1.2-1.959,4.6-4.148,10.408-4.6,14.282-.779,6.689,6.352,35.126,7.537,44.2a5.573,5.573,0,0,0-.963,2.247c-.627,2.527-1.941,11.539-1.941,11.539s5.695,1.8,9.423,0c0,0,1.02-10.467,1.017-13.614a1.572,1.572,0,0,0-.728-1.383c.161-8.355.669-34.481.76-36.753.067-1.651,1-11.71,1.714-19.318" transform="translate(-32.621 -73.122)" fill="#fcc2b4"/>
            <path id="Trazado_1014742" data-name="Trazado 1014742" d="M209.486,453.287c-1.116-1.494-9.329-13.848-9.329-13.848s-6.18-.894-6.882-.121h0s-2.055,3.872-1.535,6.562l.726,18.573h1.616l.622-15.5a156.036,156.036,0,0,0,3.431,15.5h15.2c2.273,0,3.731-1.581,2.671-3.464-1.486-2.638-5.409-6.216-6.517-7.7" transform="translate(-37.911 -86.838)" fill="#242345"/>
            <path id="Trazado_1014743" data-name="Trazado 1014743" d="M200.917,426.174c.564-10.312,2.374-43.472,2.466-45.756.06-1.494.054-6.957.036-11.556a66.3,66.3,0,0,1-12.345,1.9,84.454,84.454,0,0,0-2.473,11.394c-.758,6.508,3.143,34.879,4.475,44.987l.42,3.9s6.328,9.816,8.4,11.758c1.144,1.072,7.512-.063,7.724-.67.248-.705-3.98-5.658-5.209-8.082-.884-1.745-2.158-5.3-3.5-7.874" transform="translate(-37.288 -72.964)" fill="#fcc2b4"/>
            <path id="Trazado_1014744" data-name="Trazado 1014744" d="M207.132,288.963a54.861,54.861,0,0,0-8.49-17.032,2.879,2.879,0,0,1-1.294,1.1c-.786.222-1.467.427-2.1.615a14.546,14.546,0,0,1-4.629,1.1c-.363.053-.746.1-1.16.146a72.576,72.576,0,0,1-10,.351c-3.471-.107-9.135-2.33-12.519-3.059l-.024-.006c-2.694,4.01-6.4,10.223-7.915,15.992-3.545,13.509,2.157,61.313,2.157,61.313s16.814,2.136,21.794,2.152c9.246.029,19.094-3.267,19.094-3.267s6.179-54.773,5.079-59.407" transform="translate(-31.224 -53.79)" fill="#253a55"/>
            <path id="Trazado_1014745" data-name="Trazado 1014745" d="M171.2,350.727q.824.09,1.656.177l1.107.116c3.652.373,7.143.673,8.995.679h.053c.48,0,.961-.01,1.442-.026q.7-.026,1.4-.071h0c-6.56-.421-19.411-2.054-19.411-2.054s-5.7-47.8-2.157-61.313c1.366-5.205,4.519-10.772,7.1-14.756-1.637-.493-3.191-.963-4.435-1.231l-.024-.006,0,0c-.662.986-1.385,2.107-2.123,3.319l-.068.112q-.537.886-1.076,1.831l-.03.052c-.359.633-.715,1.285-1.064,1.949l-.082.157q-.5.952-.964,1.933l-.075.156c-.321.682-.629,1.372-.917,2.065l-.047.119q-.413,1-.764,2.009c-.022.063-.045.128-.067.192-.239.7-.456,1.4-.638,2.091v0c-.831,3.165-1.154,8.213-1.161,14.087v.006c0,3.15.083,6.538.23,10,.053,1.254.115,2.517.183,3.783l.007.128q.066,1.239.141,2.476.042.686.085,1.37c.966,15.165,2.671,29.463,2.671,29.463s4.8.61,10.036,1.181" transform="translate(-31.224 -53.852)" fill="#1d3249"/>
            <path id="Trazado_1014746" data-name="Trazado 1014746" d="M219.1,256.06c-1.154,1.762-11.882,1.761-13.073-.693-2.7-11.455-4.162-27.5-6.831-38.841-.557-2.368,2.865-11.353,3.445-12.189.767-1.109,8.919,3.694,9.712,6.25a173.412,173.412,0,0,1,6.562,31.439c.523,5.267,1.34,12.273.186,14.034" transform="translate(-39.39 -40.387)" fill="#25a77c"/>
            <g id="Grupo_1194842" data-name="Grupo 1194842" transform="translate(161.76 184.288)" opacity="0.7">
              <g id="Grupo_1194841" data-name="Grupo 1194841">
                <g id="Grupo_1194840" data-name="Grupo 1194840" clip-path="url(#clip-path-20)">
                  <path id="Trazado_1014747" data-name="Trazado 1014747" d="M204.161,229.73l-2.513,1.95,0,.014c.838,5.049,1.6,10.406,2.417,15.572q.177,1.121.359,2.228.088.532.175,1.06c.176,1.048.354,2.086.538,3.1.026.14.052.274.078.413q.249,1.363.514,2.676c.051.256.1.509.156.761.205,1,.416,1.976.638,2.916l0,.006a1.449,1.449,0,0,0,.292.38,1.925,1.925,0,0,0,.155.131,2.8,2.8,0,0,0,.292.209c.078.048.158.1.245.142.1.053.216.1.331.152s.2.091.314.133a18.136,18.136,0,0,0,5.854.781c-2.82-8.267-9.851-32.626-9.851-32.626" transform="translate(-201.648 -229.73)" fill="#25a77c"/>
                </g>
              </g>
            </g>
            <path id="Trazado_1014748" data-name="Trazado 1014748" d="M198.338,257.526s.656-16.692,1.458-19.691,6.46-26.067-2.081-33.042a33.006,33.006,0,0,0-10.331-5.424c-.517-.188-.979-.331-1.393-.441v0a9.182,9.182,0,0,0-2.119-.343.027.027,0,0,0-.018,0c-.07,0-.127,0-.169,0a.16.16,0,0,1-.038,0,.274.274,0,0,0-.049,0L171.9,198.2s-2.383.41-5.041,1.17c-2.807.8-10.378,4.511-11.286,6.035-.651,1.093.269,2.472,1.788,11.029,2.609,14.69,8.978,37.165,8.721,41.284,0,0,17.472,10.3,32.251-.188" transform="translate(-30.733 -39.205)" fill="#2ed19b"/>
            <path id="Trazado_1014749" data-name="Trazado 1014749" d="M178.674,199.684l-5.356-1.382c-.109-1.316.434-2.062.659-6.858.17-3.634.434-6.741.434-6.741l12.616,2.871a20.861,20.861,0,0,0-1.4,8.443c0,.059,0,.118,0,.176a4.32,4.32,0,0,1-6.957,3.491" transform="translate(-34.281 -36.536)" fill="#fcc2b4"/>
            <path id="Trazado_1014750" data-name="Trazado 1014750" d="M187.193,187.574a20.854,20.854,0,0,0-1.4,8.444c-.374.172-.739.332-1.085.468-1.38.549-7.058-2.7-10.565-5.042.033-3.461.434-6.741.434-6.741Z" transform="translate(-34.447 -36.536)" fill="#fba896"/>
            <path id="Trazado_1014751" data-name="Trazado 1014751" d="M170.864,259.662l-3.249-19.46-7.165-6.572c2.942,13.239,6.845,27.851,6.641,31.093a35.305,35.305,0,0,0,6.45,2.75l13.389,1.147Z" transform="translate(-31.738 -46.214)" fill="#29bc8b"/>
            <path id="Trazado_1014752" data-name="Trazado 1014752" d="M173.007,197.818s6.663,5.517,8.4,5.294,3.575-4.892,3.575-4.892,4.09,1.552,4.812,2.435,2.2,6.787.839,8.121-7.141-3.773-8.1-3.075-5.831,6.346-6.7,6.219-6.215-8.433-5.739-10.933a4.283,4.283,0,0,1,2.913-3.17" transform="translate(-33.64 -39.13)" fill="#fff0e7"/>
            <path id="Trazado_1014753" data-name="Trazado 1014753" d="M201.315,169.911s4.876-5.423,2.381-10.792c0,0-2.4-1.132-2.383,1.513s0,9.279,0,9.279" transform="translate(-39.821 -31.427)" fill="#312f3d"/>
            <path id="Trazado_1014754" data-name="Trazado 1014754" d="M165.248,174.4a20.258,20.258,0,0,1-3.341,4.437c-2.882,2.964-6.762,5.367-10.96,5.281A14.578,14.578,0,0,0,156.772,181c-.269.139-.54.274-.815.393a14.417,14.417,0,0,1-9.76.679,11.671,11.671,0,0,0,3.125-4.7,16.827,16.827,0,0,0,.946-3.9,55.216,55.216,0,0,0-.1-9.646,89.7,89.7,0,0,1,.347-15.774c.522-4.163,2.328-8.579,5.857-11.191a7.682,7.682,0,0,1,6.528-1.183,7.473,7.473,0,0,1,4.307,3.275,6.715,6.715,0,0,1,.548,1.118c.221.591.331,1.044-.078,1.533a11.606,11.606,0,0,1-1.43,1.275,9.321,9.321,0,0,0-2.754,4.362,6.249,6.249,0,0,1,.532.549,12.029,12.029,0,0,1,2.192,4.271,34.415,34.415,0,0,1,1.443,12.749,23.077,23.077,0,0,1-2.41,9.585" transform="translate(-28.919 -26.785)" fill="#282633"/>
            <path id="Trazado_1014755" data-name="Trazado 1014755" d="M165.574,136.435c-2.095,1.156-4.209,2.3-5.388,4.29a12.321,12.321,0,0,0-1.11,2.884,27.824,27.824,0,0,0-.969,4.089c-.321,2.429.019,4.893-.039,7.345a22.737,22.737,0,0,1-1.85,8.439,14.85,14.85,0,0,0-1.276-3.875,13.172,13.172,0,0,1-3.688,6.835c-.052-.872-.108-1.741-.155-2.612a89.709,89.709,0,0,1,.347-15.774c.522-4.163,2.328-8.579,5.857-11.191a7.682,7.682,0,0,1,6.528-1.182,7.2,7.2,0,0,1,1.743.754" transform="translate(-29.852 -26.785)" fill="#3f3c51"/>
            <path id="Trazado_1014756" data-name="Trazado 1014756" d="M175.559,143.138a4.263,4.263,0,0,1-4.653,3.79,4.2,4.2,0,0,1-3.9-4.51,4.262,4.262,0,0,1,4.652-3.79,4.2,4.2,0,0,1,3.9,4.51" transform="translate(-33.031 -27.419)" fill="#fff0e7"/>
            <path id="Trazado_1014757" data-name="Trazado 1014757" d="M181.228,145.8c7.359.246,15.262,2.757,14.37,13.95,0,0-1.961,11.449-2.57,13.942s-6.755,11.2-12.481,11.012c-6.143-.205-13-9.352-13.43-11.88s-1.436-13.7-1.436-13.7c-.111-11.228,8.188-13.574,15.547-13.328" transform="translate(-32.773 -28.837)" fill="#fcc2b4"/>
            <path id="Trazado_1014758" data-name="Trazado 1014758" d="M190.772,173.434a9.8,9.8,0,0,0,1.642,1.776.482.482,0,0,1,.085.656,7.887,7.887,0,0,1-3.077,2.236c-.136.065-.225-.112-.107-.217a7.844,7.844,0,0,0,1.643-1.859.636.636,0,0,0,.055-.537c-.144-.381-.431-1.158-.611-1.8-.063-.223.229-.42.371-.252" transform="translate(-37.437 -34.294)" fill="#fb9988"/>
            <path id="Trazado_1014759" data-name="Trazado 1014759" d="M183.574,182.628a.4.4,0,0,1,.391-.616,30.925,30.925,0,0,0,3.587.505,30.483,30.483,0,0,0,3.619,0,.4.4,0,0,1,.311.666,4.82,4.82,0,0,1-4.091,1.928,4.913,4.913,0,0,1-3.817-2.484" transform="translate(-36.3 -36.002)" fill="#fff"/>
            <path id="Trazado_1014760" data-name="Trazado 1014760" d="M184.21,167.178c.075-.1-.2-.485-.849-.862a4.982,4.982,0,0,0-5.527.475,2.938,2.938,0,0,0-.6.649c-.109.176-.138.3-.093.346s.169.018.35-.066l.715-.349a6.529,6.529,0,0,1,4.882-.42c.635.176,1.038.343,1.12.227" transform="translate(-35.036 -32.776)" fill="#342d2b"/>
            <path id="Trazado_1014761" data-name="Trazado 1014761" d="M192.843,166.8c.095.1.445-.132,1.01-.416a5.913,5.913,0,0,1,4.629-.423l.725.221c.182.051.3.063.338.006s-.012-.17-.143-.326a2.828,2.828,0,0,0-.663-.537,4.467,4.467,0,0,0-2.7-.6A4.559,4.559,0,0,0,193.5,165.8c-.544.482-.741.908-.655.995" transform="translate(-38.142 -32.58)" fill="#342d2b"/>
            <path id="Trazado_1014762" data-name="Trazado 1014762" d="M183.521,172.87c.038,1.063-.555,1.946-1.324,1.974s-1.423-.812-1.461-1.875.555-1.946,1.324-1.973,1.423.812,1.461,1.874" transform="translate(-35.751 -33.824)" fill="#342d2b"/>
            <path id="Trazado_1014763" data-name="Trazado 1014763" d="M198.009,171.219c.038,1.063-.548,1.946-1.309,1.973s-1.408-.813-1.446-1.876.548-1.945,1.309-1.973,1.408.812,1.446,1.875" transform="translate(-38.623 -33.497)" fill="#342d2b"/>
            <path id="Trazado_1014764" data-name="Trazado 1014764" d="M193.229,147.2a15.052,15.052,0,0,1,2.4,6.628c.282,2.018.323,4.058.433,6.093a27.334,27.334,0,0,1-12.675-8.347c-1.142,4.23-4.56,7.54-8.081,10.356-3.691,2.95-8,2.671-12.392,4.548-.738-3.319-1.4-4.329-1.523-7.719a22.321,22.321,0,0,1,2.644-12.1,14.292,14.292,0,0,1,10.088-7.107,10.645,10.645,0,0,1,10.228,4.421,7.69,7.69,0,0,1,7.247,1.447,9.494,9.494,0,0,1,1.632,1.779" transform="translate(-31.92 -27.585)" fill="#3f3c51"/>
            <path id="Trazado_1014765" data-name="Trazado 1014765" d="M185.885,151.7c-1.35,8.419-12.254,15.457-12.254,15.457a35.635,35.635,0,0,0,4.1-2.806c3.522-2.816,6.939-6.126,8.081-10.355a27.345,27.345,0,0,0,12.675,8.347c-.014-.248-.026-.5-.038-.743-6.054-2.07-9.9-4.277-12.565-9.9" transform="translate(-34.346 -30.007)" fill="#312f3d"/>
            <path id="Trazado_1014766" data-name="Trazado 1014766" d="M175.487,139.457a10.629,10.629,0,0,0-1.365.093,14.29,14.29,0,0,0-10.087,7.107,22.331,22.331,0,0,0-2.646,12.1,55.829,55.829,0,0,0,1.507,10.051s.033-8.64.3-12.9c.633-7.123,4.81-14.785,12.288-16.455" transform="translate(-31.92 -27.586)" fill="#312f3d"/>
            <path id="Trazado_1014767" data-name="Trazado 1014767" d="M197.978,147.5a9.493,9.493,0,0,0-1.632-1.779,7.69,7.69,0,0,0-7.247-1.447,9.386,9.386,0,0,0-3.721-3.3c1.983,1.6,3.08,2.848,3.368,5.285,3.717-2.983,7.421-.34,9.288,1.324-.019-.027-.037-.055-.055-.083" transform="translate(-36.669 -27.885)" fill="#312f3d"/>
            <path id="Trazado_1014768" data-name="Trazado 1014768" d="M182.039,145.445c-.8,7.46-3.677,13.227-10.684,16.9,7.208-4.406,9.487-10.588,10.684-16.9" transform="translate(-33.895 -28.77)" fill="#312f3d"/>
            <path id="Trazado_1014769" data-name="Trazado 1014769" d="M165.856,161.834a17.156,17.156,0,0,0,9.732-6.852,12.828,12.828,0,0,1-9.732,6.852" transform="translate(-32.808 -30.657)" fill="#312f3d"/>
            <path id="Trazado_1014770" data-name="Trazado 1014770" d="M168.347,179.016a6.409,6.409,0,0,1-4.455-2.309,4.859,4.859,0,0,1-.449-.631c-.61-1.041-.83-4.678.695-5.546a1.665,1.665,0,0,1,2.244.805v0a3.475,3.475,0,0,1,.249.427Z" transform="translate(-32.239 -33.691)" fill="#ffdaba"/>
            <path id="Trazado_1014771" data-name="Trazado 1014771" d="M168.652,179.2a7.085,7.085,0,0,1-4.7-2.41c-.071-.1-.135-.2-.189-.291-.61-1.041-.83-4.678.695-5.545a1.5,1.5,0,0,1,1.983.464v0a3.323,3.323,0,0,1,.249.428Z" transform="translate(-32.303 -33.775)" fill="#fcc2b4"/>
            <path id="Trazado_1014772" data-name="Trazado 1014772" d="M163.859,174.03a1.507,1.507,0,0,0,.083.881c.436,1.216,1.705,2.131,2.922,2.981a2.987,2.987,0,0,1-.448-1.907c.022-.227.07-.454.07-.681,0-.916-2.194-3-2.626-1.274" transform="translate(-32.406 -34.293)" fill="#fba896"/>
            <path id="Trazado_1014773" data-name="Trazado 1014773" d="M167.555,178.226l-.069-.037c-.043-.025-.115-.057-.195-.109a2.7,2.7,0,0,1-.6-.513,2.334,2.334,0,0,1-.5-.964,1.973,1.973,0,0,1,.134-1.284,1.207,1.207,0,0,1,.086-.162l.023-.039c.006-.01,0,0,0,0v0h0l0-.006-.02-.034L166.37,175c-.029-.045-.056-.091-.086-.135a5.454,5.454,0,0,0-.369-.5c-.129-.155-.262-.3-.393-.426a3.305,3.305,0,0,0-.385-.339.864.864,0,0,0-.392-.163.65.65,0,0,0-.331.059.311.311,0,0,0-.145.132.2.2,0,0,0-.02.061.131.131,0,0,1,0-.064.291.291,0,0,1,.122-.168.689.689,0,0,1,.379-.121,1.1,1.1,0,0,1,.518.136,3.5,3.5,0,0,1,.473.319,5.009,5.009,0,0,1,.468.416,4.364,4.364,0,0,1,.436.509c.034.046.066.093.1.14l.047.073.063.1.043.072a.808.808,0,0,1-.04.072l-.06.105a1.011,1.011,0,0,0-.073.14,2.08,2.08,0,0,0-.179,1.138,2.375,2.375,0,0,0,.331.922,2.754,2.754,0,0,0,.461.558c.066.061.125.1.161.135l.057.047" transform="translate(-32.489 -34.288)" fill="#fd7d6f"/>
            <path id="Trazado_1014774" data-name="Trazado 1014774" d="M159.447,278.92a1.452,1.452,0,0,0,.339.314,6.548,6.548,0,0,0,3.927.6,13.428,13.428,0,0,1,2.786-.294c.87.294,1.3.985,2.294,1.484a9.987,9.987,0,0,1,2.338,1.224c.351.372.387,1.154.74,2.225.463,1.407.764,2.467.879,2.721-.947.972-1.635-.916-1.988-2.158l-.249-.57c.2.791.406,1.63.491,2.054.2.975.487,1.913.642,2.857-2,.819-2.342-3.8-2.95-5.47-.678-.3-1.271-.556-1.87-.857l1.707.9c.215.709.436,1.782.594,2.564.2.976.485,1.916.643,2.858-2.207.865-2.293-2.677-2.616-4.354a19.921,19.921,0,0,1-2.958-1.244c.379.618,1.037,1.168,1.442,1.72a2.039,2.039,0,0,1,.245.425c.352.833.2,1.858.365,3.583a1.33,1.33,0,0,1-1.161-.4c-.46-.513-.062-1.509-.673-2.792a2.376,2.376,0,0,0-.91-.791,7.463,7.463,0,0,0-1.809-.5c-.918-.152-1.831-.223-2.831-.384-1.779-.284-2.168-.971-3.171-1.923Z" transform="translate(-30.797 -55.173)" fill="#fcc2b4" fill-rule="evenodd"/>
            <path id="Trazado_1014775" data-name="Trazado 1014775" d="M154.076,259.917l4.178,4.817-4.71,5.156-.37.405s-23.211-16.3-23.707-20.445,17.375-39.957,18.677-41.382a42.613,42.613,0,0,1,5.329-4.093l5.679,14.23-3.585,7.065v0l-11.28,22.23Z" transform="translate(-25.608 -40.427)" fill="#2ed19b"/>
            <path id="Trazado_1014776" data-name="Trazado 1014776" d="M157.258,233.405l-1.594-.912s-11.519,20.129-11.349,22.411,1.1,0,1.1,0l14.926,16.327.854-.935-4.178-4.816-9.788-12.014,10.068-19.842Z" transform="translate(-28.546 -45.989)" fill="#25a77c"/>
            <path id="Trazado_1014777" data-name="Trazado 1014777" d="M223.755,281.7l-29.748-1.9,8.974-39.612,29.748,1.9Z" transform="translate(-38.376 -47.512)" fill="#fff0e7"/>
            <path id="Trazado_1014778" data-name="Trazado 1014778" d="M234.036,244l-8.153,35.982-.821,3.632-29.749-1.9,4.179-18.444,4.795-21.168Z" transform="translate(-38.634 -47.89)" fill="#59abff"/>
            <g id="Grupo_1194845" data-name="Grupo 1194845" transform="translate(156.678 195.931)" opacity="0.16" style="mix-blend-mode: multiply;isolation: isolate">
              <g id="Grupo_1194844" data-name="Grupo 1194844">
                <g id="Grupo_1194843" data-name="Grupo 1194843" clip-path="url(#clip-path-21)">
                  <path id="Trazado_1014779" data-name="Trazado 1014779" d="M217.913,278.442c-5.489,5.719-17.976,2.416-22.022,1.144l-.578,2.554,29.748,1.9.822-3.632,8.152-35.982-2.792-.177c-1.531,5.894-7.618,28.244-13.33,34.2" transform="translate(-195.313 -244.245)" fill="#41474f"/>
                </g>
              </g>
            </g>
            <path id="Trazado_1014780" data-name="Trazado 1014780" d="M238.684,268.081a7.676,7.676,0,0,0-2.808.642,5.541,5.541,0,0,0-1.891,1.46.867.867,0,0,0,.123,1.347,5.221,5.221,0,0,0-1.364,1.141c-.416.508-.319,1.218.173,1.385a2.188,2.188,0,0,0,.359.075,5.151,5.151,0,0,0-.828.8c-.416.508-.319,1.219.173,1.385.028.01.062.006.091.014a5.158,5.158,0,0,0-1.219,1.052c-.416.508-.319,1.219.173,1.385a2.62,2.62,0,0,0,1.251.078,9.1,9.1,0,0,0,2.489-.943l.224-.111a2.641,2.641,0,0,0,1.207-1.18c.387-.771.189-1.133-.261-1.267l.008,0a2.659,2.659,0,0,0,1.207-1.181c.466-.927.087-1.263-.565-1.32a2.572,2.572,0,0,0,.861-.938c.352-.7.218-1.058-.145-1.22l.178-.087a2.655,2.655,0,0,0,1.21-1.18c.485-.971.057-1.3-.648-1.332" transform="translate(-45.74 -53.028)" fill="#fcc2b4"/>
            <g id="Grupo_1194848" data-name="Grupo 1194848" transform="translate(189.161 215.051)" opacity="0.16" style="mix-blend-mode: multiply;isolation: isolate">
              <g id="Grupo_1194847" data-name="Grupo 1194847">
                <g id="Grupo_1194846" data-name="Grupo 1194846" clip-path="url(#clip-path-22)">
                  <path id="Trazado_1014781" data-name="Trazado 1014781" d="M239.588,268.081a3.637,3.637,0,0,0-.619.035c-.144,3.018-1.433,3.854-1.433,3.854s.417.233.414,1.681-2.144,1.621-2.144,1.621a2.758,2.758,0,0,1,1.638,1.738,2.446,2.446,0,0,0,.3-.4c.387-.771.189-1.133-.261-1.267l.008,0a2.659,2.659,0,0,0,1.207-1.181c.466-.927.087-1.263-.565-1.32a2.572,2.572,0,0,0,.861-.938c.352-.7.218-1.058-.145-1.22l.178-.087a2.655,2.655,0,0,0,1.21-1.18c.485-.971.057-1.3-.648-1.332" transform="translate(-235.805 -268.079)" fill="#41474f"/>
                </g>
              </g>
            </g>
          </g>
        </g>
      </g>
    </g>
  </g>
</svg>
