<svg xmlns="http://www.w3.org/2000/svg" xmlns:xlink="http://www.w3.org/1999/xlink" width="396" height="202" viewBox="0 0 396 202">
  <defs>
    <clipPath id="clip-path">
      <rect id="Rectángulo_462108" data-name="Rectángulo 462108" width="396" height="202" transform="translate(289.711 1729)" fill="#fff" stroke="#707070" stroke-width="1"/>
    </clipPath>
    <clipPath id="clip-path-2">
      <rect id="Rectángulo_462106" data-name="Rectángulo 462106" width="228" height="201.5" fill="none"/>
    </clipPath>
    <clipPath id="clip-path-4">
      <rect id="Rectángulo_462101" data-name="Rectángulo 462101" width="103.891" height="151.72" fill="none"/>
    </clipPath>
  </defs>
  <g id="Enmascarar_grupo_1193132" data-name="Enmascarar grupo 1193132" transform="translate(-289.711 -1729)" clip-path="url(#clip-path)">
    <g id="Grupo_1195364" data-name="Grupo 1195364" transform="translate(353.711 1729)">
      <g id="Grupo_1195363" data-name="Grupo 1195363" clip-path="url(#clip-path-2)">
        <g id="Grupo_1195362" data-name="Grupo 1195362">
          <g id="Grupo_1195361" data-name="Grupo 1195361" clip-path="url(#clip-path-2)">
            <path id="Trazado_1015402" data-name="Trazado 1015402" d="M294.877,322.977c0,3.879-32.412,7.025-72.393,7.025s-72.393-3.145-72.393-7.025,32.411-7.025,72.393-7.025,72.393,3.145,72.393,7.025" transform="translate(-66.877 -140.78)" fill="#eaecee"/>
            <path id="Trazado_1015403" data-name="Trazado 1015403" d="M280.137,192.384H183.408a12.465,12.465,0,0,1-12.471-12.471V33.183a12.469,12.469,0,0,1,12.471-12.471h96.729a12.464,12.464,0,0,1,12.471,12.471v146.73a12.469,12.469,0,0,1-12.471,12.471" transform="translate(-76.165 -9.229)" fill="#2ed19b"/>
            <path id="Trazado_1015404" data-name="Trazado 1015404" d="M175.132,26.381a12.555,12.555,0,0,0-1.451,1.522,12.419,12.419,0,0,0-2.744,7.805v146.73a12.465,12.465,0,0,0,12.471,12.471h96.729a12.423,12.423,0,0,0,8.652-3.5c-16.72-24.22-83.977-121.665-113.658-165.032" transform="translate(-76.165 -11.755)" fill="#29bc8b"/>
            <rect id="Rectángulo_462100" data-name="Rectángulo 462100" width="103.891" height="151.719" transform="translate(103.662 21.459)" fill="#fff"/>
            <g id="Grupo_1195360" data-name="Grupo 1195360" transform="translate(103.662 21.459)" opacity="0.22">
              <g id="Grupo_1195359" data-name="Grupo 1195359">
                <g id="Grupo_1195358" data-name="Grupo 1195358" clip-path="url(#clip-path-4)">
                  <path id="Trazado_1015405" data-name="Trazado 1015405" d="M290.863,190.425H186.972V38.705Z" transform="translate(-186.972 -38.705)" fill="#e0e8fc"/>
                </g>
              </g>
            </g>
            <path id="Trazado_1015406" data-name="Trazado 1015406" d="M276.214,6.493A1.94,1.94,0,0,1,274.324,5,6.5,6.5,0,0,0,268,0h-9.127a6.5,6.5,0,0,0-6.324,5,1.94,1.94,0,0,1-1.889,1.493h-6.714A1.947,1.947,0,0,0,242,8.439V22.845a1.947,1.947,0,0,0,1.947,1.947h38.981a1.947,1.947,0,0,0,1.947-1.947V8.439a1.947,1.947,0,0,0-1.947-1.947Z" transform="translate(-107.829)" fill="#1e3a8a"/>
            <path id="Trazado_1015407" data-name="Trazado 1015407" d="M270.618,23.183a30.73,30.73,0,0,1-23.972-11.472h-2.7A1.947,1.947,0,0,0,242,13.658V28.063a1.947,1.947,0,0,0,1.947,1.947h38.981a1.947,1.947,0,0,0,1.947-1.947v-8.38a30.652,30.652,0,0,1-14.255,3.5" transform="translate(-107.829 -5.218)" fill="#1b347c"/>
            <path id="Trazado_1015408" data-name="Trazado 1015408" d="M231.93,103.869H207.11V79.049h24.82Zm-23.157-1.663h21.494V80.712H208.773Z" transform="translate(-92.283 -35.222)" fill="#2ed19b"/>
            <path id="Trazado_1015409" data-name="Trazado 1015409" d="M311.35,80.779h-48.3a.865.865,0,1,1,0-1.73h48.3a.865.865,0,0,1,0,1.73" transform="translate(-116.821 -35.222)" fill="#c9b6d3"/>
            <path id="Trazado_1015410" data-name="Trazado 1015410" d="M311.35,91.191h-48.3a.865.865,0,1,1,0-1.73h48.3a.865.865,0,0,1,0,1.73" transform="translate(-116.821 -39.862)" fill="#c9b6d3"/>
            <path id="Trazado_1015411" data-name="Trazado 1015411" d="M311.35,101.6h-48.3a.865.865,0,1,1,0-1.73h48.3a.865.865,0,1,1,0,1.73" transform="translate(-116.821 -44.501)" fill="#c9b6d3"/>
            <path id="Trazado_1015412" data-name="Trazado 1015412" d="M311.35,112.015h-48.3a.865.865,0,1,1,0-1.73h48.3a.865.865,0,0,1,0,1.73" transform="translate(-116.821 -49.14)" fill="#c9b6d3"/>
            <path id="Trazado_1015413" data-name="Trazado 1015413" d="M299.221,122.427H263.045a.865.865,0,0,1,0-1.73h36.176a.865.865,0,0,1,0,1.73" transform="translate(-116.821 -53.78)" fill="#c9b6d3"/>
            <path id="Trazado_1015414" data-name="Trazado 1015414" d="M213.839,89.091l6.835,9.358L238.8,78.88,220.674,91.811l-3.481-5.773Z" transform="translate(-95.281 -35.147)" fill="#f59e0b"/>
            <path id="Trazado_1015415" data-name="Trazado 1015415" d="M231.93,179.971H207.11v-24.82h24.82Zm-23.157-1.663h21.494V156.814H208.773Z" transform="translate(-92.283 -69.131)" fill="#2ed19b"/>
            <path id="Trazado_1015416" data-name="Trazado 1015416" d="M311.35,156.881h-48.3a.865.865,0,1,1,0-1.73h48.3a.865.865,0,0,1,0,1.73" transform="translate(-116.821 -69.131)" fill="#c9b6d3"/>
            <path id="Trazado_1015417" data-name="Trazado 1015417" d="M311.35,167.293h-48.3a.865.865,0,1,1,0-1.73h48.3a.865.865,0,1,1,0,1.73" transform="translate(-116.821 -73.771)" fill="#c9b6d3"/>
            <path id="Trazado_1015418" data-name="Trazado 1015418" d="M311.35,177.7h-48.3a.865.865,0,1,1,0-1.73h48.3a.865.865,0,1,1,0,1.73" transform="translate(-116.821 -78.41)" fill="#c9b6d3"/>
            <path id="Trazado_1015419" data-name="Trazado 1015419" d="M311.35,188.117h-48.3a.865.865,0,1,1,0-1.73h48.3a.865.865,0,0,1,0,1.73" transform="translate(-116.821 -83.049)" fill="#c9b6d3"/>
            <path id="Trazado_1015420" data-name="Trazado 1015420" d="M299.221,198.529H263.045a.865.865,0,1,1,0-1.73h36.176a.865.865,0,1,1,0,1.73" transform="translate(-116.821 -87.689)" fill="#c9b6d3"/>
            <path id="Trazado_1015421" data-name="Trazado 1015421" d="M213.839,165.193l6.835,9.358L238.8,154.982l-18.122,12.931-3.481-5.773Z" transform="translate(-95.281 -69.056)" fill="#f59e0b"/>
            <path id="Trazado_1015422" data-name="Trazado 1015422" d="M231.93,256.072H207.11v-24.82h24.82Zm-23.157-1.663h21.494V232.915H208.773Z" transform="translate(-92.283 -103.04)" fill="#2ed19b"/>
            <path id="Trazado_1015423" data-name="Trazado 1015423" d="M311.35,232.983h-48.3a.865.865,0,1,1,0-1.73h48.3a.865.865,0,0,1,0,1.73" transform="translate(-116.821 -103.041)" fill="#c9b6d3"/>
            <path id="Trazado_1015424" data-name="Trazado 1015424" d="M311.35,243.395h-48.3a.865.865,0,1,1,0-1.73h48.3a.865.865,0,0,1,0,1.73" transform="translate(-116.821 -107.68)" fill="#c9b6d3"/>
            <path id="Trazado_1015425" data-name="Trazado 1015425" d="M311.35,253.807h-48.3a.865.865,0,1,1,0-1.73h48.3a.865.865,0,0,1,0,1.73" transform="translate(-116.821 -112.319)" fill="#c9b6d3"/>
            <path id="Trazado_1015426" data-name="Trazado 1015426" d="M311.35,264.219h-48.3a.865.865,0,1,1,0-1.73h48.3a.865.865,0,0,1,0,1.73" transform="translate(-116.821 -116.959)" fill="#c9b6d3"/>
            <path id="Trazado_1015427" data-name="Trazado 1015427" d="M299.221,274.631H263.045a.865.865,0,1,1,0-1.73h36.176a.865.865,0,1,1,0,1.73" transform="translate(-116.821 -121.598)" fill="#c9b6d3"/>
            <path id="Trazado_1015428" data-name="Trazado 1015428" d="M213.839,241.294l6.835,9.358L238.8,231.084l-18.122,12.931-3.481-5.773Z" transform="translate(-95.281 -102.965)" fill="#f59e0b"/>
            <path id="Trazado_1015429" data-name="Trazado 1015429" d="M128.341,353.992c0,2-18.815,3.624-42.025,3.624s-42.025-1.622-42.025-3.624,18.816-3.624,42.025-3.624,42.025,1.622,42.025,3.624" transform="translate(-19.735 -156.115)" fill="#fff"/>
            <path id="Trazado_1015430" data-name="Trazado 1015430" d="M4.981,187.759l13.3-6.639-3.941-7.894-13.3,6.639A1.873,1.873,0,0,0,.1,180.946a1.852,1.852,0,0,0,.1,1.425l2.275,4.557a1.853,1.853,0,0,0,1.081.934,1.874,1.874,0,0,0,1.43-.1" transform="translate(0 -77.185)" fill="#f59e0b"/>
            <path id="Trazado_1015431" data-name="Trazado 1015431" d="M13.509,174.533l2.862,5.732L4.013,186.435l.247.493a1.869,1.869,0,0,0,2.51.831l13.3-6.639-3.941-7.893Z" transform="translate(-1.788 -77.186)" fill="#c47d16"/>
            <path id="Trazado_1015432" data-name="Trazado 1015432" d="M15.662,182.427,12.8,176.695.442,182.865.2,182.372a1.852,1.852,0,0,1-.1-1.425,1.876,1.876,0,0,1,.942-1.081l13.3-6.639,3.941,7.894Z" transform="translate(0 -77.186)" fill="#efb259"/>
            <path id="Trazado_1015433" data-name="Trazado 1015433" d="M114.036,100.483,17.3,148.586a1.847,1.847,0,0,1-1.378.111,1.826,1.826,0,0,1-1.092-.929l-3.5-7.007a1.824,1.824,0,0,1-.1-1.4,1.842,1.842,0,0,1,.926-1.063l96.736-48.1Z" transform="translate(-4.964 -40.189)" fill="#f59e0b"/>
            <path id="Trazado_1015434" data-name="Trazado 1015434" d="M187.465,89.919l13.559-.344L192.6,100.207Z" transform="translate(-83.53 -39.912)" fill="#fb9"/>
            <path id="Trazado_1015435" data-name="Trazado 1015435" d="M194.215,97.413l9.817-7.838-8.422,10.632Z" transform="translate(-86.537 -39.912)" fill="#f4a27d"/>
            <path id="Trazado_1015436" data-name="Trazado 1015436" d="M187.465,89.919l13.559-.344L188.86,92.713Z" transform="translate(-83.53 -39.912)" fill="#ffd1bd"/>
            <path id="Trazado_1015437" data-name="Trazado 1015437" d="M205.3,89.668l1.391,2.786,2.28-2.879Z" transform="translate(-91.476 -39.912)" fill="#623f04"/>
            <path id="Trazado_1015438" data-name="Trazado 1015438" d="M16.759,152.639l.575,1.153a1.839,1.839,0,0,0,2.469.817l96.736-48.1-1.395-2.794Z" transform="translate(-7.467 -46.212)" fill="#c47d16"/>
            <path id="Trazado_1015439" data-name="Trazado 1015439" d="M11.908,141.915l-.575-1.153a1.825,1.825,0,0,1-.086-1.43,1.844,1.844,0,0,1,.916-1.034l96.737-48.1,1.395,2.794Z" transform="translate(-4.963 -40.189)" fill="#efb259"/>
            <rect id="Rectángulo_462102" data-name="Rectángulo 462102" width="3.14" height="3.123" transform="translate(9.651 96.885) rotate(-26.538)" fill="#c47d16"/>
            <rect id="Rectángulo_462103" data-name="Rectángulo 462103" width="3.14" height="3.123" transform="translate(13.393 104.379) rotate(-26.538)" fill="#efb259"/>
            <rect id="Rectángulo_462104" data-name="Rectángulo 462104" width="3.139" height="5.254" transform="translate(11.046 99.678) rotate(-26.538)" fill="#efb259"/>
            <path id="Trazado_1015440" data-name="Trazado 1015440" d="M92.9,217.227,86.332,226s5.969,4.324,12.152,1.717,18.6-2.125,18.912-6.447-12.348-6.834-12.348-6.834Z" transform="translate(-38.467 -95.546)" fill="#47236d"/>
            <path id="Trazado_1015441" data-name="Trazado 1015441" d="M120.171,345.581s7.68.238,7.87,2.432-3.72,3.953-8.627,3.84c-4.458-.1-8.216-.261-8.131-1.6s.721-4.673.721-4.673Z" transform="translate(-49.584 -153.982)" fill="#623f04"/>
            <path id="Trazado_1015442" data-name="Trazado 1015442" d="M76.685,331.695s4.633,7.713,2.974,10.747-8.622-4.352-10.149-7.616c-1.957-4.182-1.87-4.561,3.108-9.417,1.865-1.819,2.191-1.132,2.191-1.132s1.024,2.39,1.551,2.592.325,4.825.325,4.825" transform="translate(-30.442 -144.433)" fill="#935f07"/>
            <path id="Trazado_1015443" data-name="Trazado 1015443" d="M79.658,342.442a2.734,2.734,0,0,0,.258-.711c-.672-3.825-4.9-9.39-5.748-11.086a2.832,2.832,0,0,1,.74-3.288l.952-1.03a16.72,16.72,0,0,1-1.053-2.049s-.326-.686-2.191,1.132c-4.978,4.856-5.065,5.235-3.108,9.417,1.527,3.264,8.489,10.649,10.149,7.616" transform="translate(-30.441 -144.433)" fill="#623f04"/>
            <path id="Trazado_1015444" data-name="Trazado 1015444" d="M68.708,337.475a1.281,1.281,0,0,0-.189.4,14.963,14.963,0,0,0,1.079,2.733c1.341,2.866,6.87,8.906,9.324,8.285a7.476,7.476,0,0,0-1.348-4c-2.173-3.329-7.534-9.277-8.866-7.418" transform="translate(-30.53 -150.214)" fill="#623f04"/>
            <path id="Trazado_1015445" data-name="Trazado 1015445" d="M91.727,222.147s.144.4.4,1.142c2.457,7.123,15.28,45.785,11.164,65.4,0,0,5.453.6,8.168,0,0,0,3.363-30.431-2.235-47.583-3.561-10.908-6.887-23.205-6.887-23.205" transform="translate(-40.871 -97.092)" fill="#334155"/>
            <path id="Trazado_1015446" data-name="Trazado 1015446" d="M110.781,213.874s3.4,37.126-30.643,65.58a8.337,8.337,0,0,0-4.067-6.285s22.867-33.523,20.347-41.708-8.719-11.175-8.085-17.587,11.74-6.967,11.74-6.967Z" transform="translate(-33.895 -92.193)" fill="#1e3a8a"/>
            <path id="Trazado_1015447" data-name="Trazado 1015447" d="M110.422,224.363a57.079,57.079,0,0,0,.359-10.489l-10.707-6.967s-11.107.555-11.741,6.967,5.565,9.4,8.085,17.587-20.346,41.708-20.346,41.708a7.565,7.565,0,0,1,2.291,1.946c20.981-19.318,27.115-38.492,32.06-50.752" transform="translate(-33.895 -92.193)" fill="#1f2733"/>
            <path id="Trazado_1015448" data-name="Trazado 1015448" d="M104.872,127.641s-2,8.18-5.767,10.273-18.5,3.894-18.5,3.894l-5.455-.648-13.03,12.22a36.815,36.815,0,0,1-7.881,7.575c-4.292,2.795-12.641-2.647-12.641-2.647l-3.181,3.279c-.7-.765,7.861,7.255,12.641,7.423,6.072.213,13.907-5.447,13.907-5.447l.34-.259c.031.211.063.432.1.67,1.154,8.052-.437,23.352-.437,23.352,7.836-9.108,31.064-4.731,31.064-4.731-.67-11.326-7.779-32.746-7.779-32.746s10.671-3.172,15.042-6.114,6.572-14.548,6.572-14.548Z" transform="translate(-17.099 -56.874)" fill="#2ed19b"/>
            <path id="Trazado_1015449" data-name="Trazado 1015449" d="M104.246,139.194c-2.422,3.329-17.3,10.514-25.12,7.283a9.663,9.663,0,0,1-4.709-3.872l-1.962,1.84c-.975,2.339-1.811,5.641-4.456,8.852-13.137,15.948-21.377,10.983-27.731,6.467l-1.794,2.524c.676.521,8.239,7.284,12.626,7.438,6.071.213,13.907-5.448,13.907-5.448l.34-.259c.031.211.063.432.1.67,1.154,8.052-.437,23.352-.437,23.352,5.07-5.892,16.581-6.14,24.078-5.581-.512-13.026-5.362-31.336-5.362-31.336l4.57-.559s10.67-3.172,15.042-6.114,6.571-14.548,6.571-14.548l-2.11-.654c-.75,3.2-2.035,7.861-3.551,9.944" transform="translate(-17.143 -57.591)" fill="#abedd7"/>
            <path id="Trazado_1015450" data-name="Trazado 1015450" d="M38.419,188.828l.014-.014c-.061-.047-.071-.048-.014.014" transform="translate(-17.102 -84.115)" fill="#abedd7"/>
            <path id="Trazado_1015451" data-name="Trazado 1015451" d="M106.527,135.7s-.815,5.692.729,8.394c0,0-2.09,3.54-5.456,1.865s-3.612-7.891-3.612-7.891l4.852-5.3Z" transform="translate(-43.75 -59.157)" fill="#f4a27d"/>
            <path id="Trazado_1015452" data-name="Trazado 1015452" d="M93.152,106.169s7.339.237,10.249,9.023-2.464,14.725-8.974,11.585S84.453,111.7,84.453,111.7Z" transform="translate(-37.63 -47.306)" fill="#fb9"/>
            <path id="Trazado_1015453" data-name="Trazado 1015453" d="M105.145,120.769c-1.893.788-4.658,1.036-7.571-1.8-3.415-3.328-3.418-9.036-2.931-12.744-.328-.046-.518-.053-.518-.053l-6.761,4.3-.73,2.38.665,3.791c1.653,3.672,4.378,8.342,8.1,10.139,5,2.412,9.323-.534,9.745-6.009" transform="translate(-38.602 -47.307)" fill="#f4a27d"/>
            <path id="Trazado_1015454" data-name="Trazado 1015454" d="M84.8,99.579a6.271,6.271,0,0,0-.984-5.113c-1.78-2.514-8.4-3.457-9.223,1.254a57.361,57.361,0,0,0-.88,8.142s-6.745.452-7.8,9.133c-.765,6.3,10.884,21.454,5.318,23.764s-7.935-.775-7.307-3.32c0,0-3.547,4.74-.1,9.158s18.222,2.92,22.69-7.307-.759-19.4-.759-19.4-2.228,1.7-3.551-.548,1.817-2.767,1.817-2.767-2.617-5.979-4.711-5.869c0,0,5.423-3.895,5.485-7.126" transform="translate(-27.767 -41.163)" fill="#935f07"/>
            <path id="Trazado_1015455" data-name="Trazado 1015455" d="M155.668,122.652s-2.821-2.59-2.767-4.494,1.515-.435,2.375.149,2.928.351,4.349-1.327,3.951-3.82,4.724-1.291-1.568,7.278-3.645,8.549a7.278,7.278,0,0,0-5.036-1.585" transform="translate(-68.128 -51.03)" fill="#fb9"/>
            <path id="Trazado_1015456" data-name="Trazado 1015456" d="M34.488,182.148a4.6,4.6,0,0,1,3.235-3.53s1.713-4.249,1.238-5.8-1.516.108-2.026,1.2-1.68,1.731-3.955,0-5.415-.738-5.064,2.346c.24,2.107,4.229,5.648,6.573,5.78" transform="translate(-12.426 -76.722)" fill="#fb9"/>
            <path id="Trazado_1015457" data-name="Trazado 1015457" d="M169.068,117.1a10.612,10.612,0,0,1-5.707,7.083l.031.067a7.814,7.814,0,0,1,1.973,1.133c2.008-1.228,4.255-5.7,3.7-8.284" transform="translate(-72.79 -52.176)" fill="#f4a27d"/>
            <path id="Trazado_1015458" data-name="Trazado 1015458" d="M34.488,183.611a4.218,4.218,0,0,1,1.7-2.687c-3.967.588-6.487-3.206-7.613-5.455a2.871,2.871,0,0,0-.661,2.361c.24,2.107,4.229,5.648,6.573,5.78" transform="translate(-12.427 -78.185)" fill="#f4a27d"/>
            <path id="Trazado_1015459" data-name="Trazado 1015459" d="M86.514,146.559a22.964,22.964,0,0,0,0-17.766c-2.91,1.644-12.743,6.344-16.576-2.752a18.958,18.958,0,0,1-1.208-8.367,11.137,11.137,0,0,0-2.823,6.59c-.765,6.305,10.884,21.454,5.318,23.764s-7.935-.774-7.307-3.32c0,0-3.547,4.74-.1,9.158s18.222,2.92,22.69-7.307" transform="translate(-27.767 -52.432)" fill="#623f04"/>
          </g>
        </g>
      </g>
    </g>
  </g>
</svg>
