<svg xmlns="http://www.w3.org/2000/svg" xmlns:xlink="http://www.w3.org/1999/xlink" width="396" height="279" viewBox="0 0 396 279">
  <defs>
    <clipPath id="clip-path">
      <rect id="Rectángulo_462107" data-name="Rectángulo 462107" width="396" height="279" transform="translate(289.711 1375)" fill="#fff" stroke="#707070" stroke-width="1"/>
    </clipPath>
    <clipPath id="clip-path-2">
      <rect id="Rectángulo_462099" data-name="Rectángulo 462099" width="182.122" height="187.506" fill="none"/>
    </clipPath>
  </defs>
  <g id="Enmascarar_grupo_1193131" data-name="Enmascarar grupo 1193131" transform="translate(-289.711 -1375)" clip-path="url(#clip-path)">
    <g id="Grupo_1195356" data-name="Grupo 1195356" transform="translate(381.711 1421)">
      <g id="Grupo_1195355" data-name="Grupo 1195355">
        <g id="Grupo_1195354" data-name="Grupo 1195354" clip-path="url(#clip-path-2)">
          <path id="Trazado_1015398" data-name="Trazado 1015398" d="M203.881,183.727H83.149a8.341,8.341,0,0,1-8.341-8.341V8.342A8.341,8.341,0,0,1,83.149,0H203.881a8.341,8.341,0,0,1,8.341,8.341V175.385a8.341,8.341,0,0,1-8.341,8.341" transform="translate(-30.1 0)" fill="#fff"/>
          <rect id="Rectángulo_462093" data-name="Rectángulo 462093" width="72.198" height="15.874" transform="translate(77.314 17.32)" fill="#abedd7"/>
          <rect id="Rectángulo_462094" data-name="Rectángulo 462094" width="96.165" height="8.688" transform="translate(65.332 49.442)" fill="#cce8ff"/>
          <rect id="Rectángulo_462095" data-name="Rectángulo 462095" width="96.165" height="8.688" transform="translate(65.332 70.904)" fill="#cce8ff"/>
          <rect id="Rectángulo_462096" data-name="Rectángulo 462096" width="96.165" height="8.688" transform="translate(65.332 92.365)" fill="#cce8ff"/>
          <rect id="Rectángulo_462097" data-name="Rectángulo 462097" width="96.165" height="8.688" transform="translate(65.332 113.826)" fill="#cce8ff"/>
          <path id="Trazado_1015399" data-name="Trazado 1015399" d="M240.569,201.833a27.236,27.236,0,1,0,0,38.54,27.249,27.249,0,0,0,0-38.54m-2.2,2.166a24.236,24.236,0,1,1-17.068-7.047A24.039,24.039,0,0,1,238.367,204" transform="translate(-78.069 -77.998)" fill="#588fbc"/>
          <path id="Trazado_1015400" data-name="Trazado 1015400" d="M240.343,210.808A20.78,20.78,0,1,0,246.4,225.49a20.661,20.661,0,0,0-6.056-14.682m-14.645,32.3a17.426,17.426,0,0,1-12.48-5.176,17.656,17.656,0,0,1,0-24.923,17.623,17.623,0,1,1,12.48,30.1" transform="translate(-82.468 -82.385)" fill="#588fbc"/>
          <rect id="Rectángulo_462098" data-name="Rectángulo 462098" width="13.629" height="59.319" transform="translate(117.422 126.939) rotate(-45)" fill="#588fbc"/>
          <path id="Trazado_1015401" data-name="Trazado 1015401" d="M81.33,261.635H8.527a8.513,8.513,0,0,1-7.295-12.9L37.52,188.416a8.679,8.679,0,0,1,14.846,0l36.26,60.32a8.513,8.513,0,0,1-7.3,12.9" transform="translate(0 -74.129)" fill="#f59e0b"/>
        </g>
      </g>
      <text id="_" data-name="!" transform="translate(37.754 171.288)" fill="#fff" font-size="49" font-family="Montserrat-Bold, Montserrat" font-weight="700"><tspan x="0" y="0">!</tspan></text>
    </g>
  </g>
</svg>
