<svg xmlns="http://www.w3.org/2000/svg" xmlns:xlink="http://www.w3.org/1999/xlink" width="354" height="321" viewBox="0 0 354 321">
  <defs>
    <clipPath id="clip-path">
      <rect id="Rectángulo_462146" data-name="Rectángulo 462146" width="354" height="321" transform="translate(9431 -9869)" fill="#fff" stroke="#707070" stroke-width="1"/>
    </clipPath>
    <clipPath id="clip-path-2">
      <rect id="Rectángulo_462145" data-name="Rectángulo 462145" width="303.217" height="290.268" fill="none"/>
    </clipPath>
    <clipPath id="clip-path-4">
      <rect id="Rectángulo_462141" data-name="Rectángulo 462141" width="45.389" height="45.39" fill="none"/>
    </clipPath>
    <clipPath id="clip-path-5">
      <rect id="Rectángulo_462142" data-name="Rectángulo 462142" width="45.266" height="39.117" fill="none"/>
    </clipPath>
  </defs>
  <g id="Enmascarar_grupo_1193135" data-name="Enmascarar grupo 1193135" transform="translate(-9431 9869)" clip-path="url(#clip-path)">
    <g id="Grupo_1195433" data-name="Grupo 1195433" transform="translate(9441 -9859.486)">
      <g id="Grupo_1195432" data-name="Grupo 1195432" clip-path="url(#clip-path-2)">
        <g id="Grupo_1195431" data-name="Grupo 1195431">
          <g id="Grupo_1195430" data-name="Grupo 1195430" clip-path="url(#clip-path-2)">
            <path id="Trazado_1015559" data-name="Trazado 1015559" d="M79.032,253.172a43.354,43.354,0,1,1,43.356-43.353,43.355,43.355,0,0,1-43.356,43.353m78.743-36.849c.174-2.147.287-4.312.287-6.506s-.114-4.359-.288-6.506c-27.373-8.6-32.136-19.737-18.694-44.848a79.406,79.406,0,0,0-8.692-8.689c-25.111,13.436-36.255,8.675-44.849-18.7-2.148-.176-4.316-.288-6.507-.288s-4.36.113-6.507.288c-8.6,27.374-19.739,32.135-44.848,18.7a79.3,79.3,0,0,0-8.688,8.689c13.436,25.112,8.673,36.256-18.7,44.849C.114,205.458,0,207.625,0,209.817s.114,4.359.287,6.506c27.375,8.6,32.137,19.738,18.7,44.848a79.164,79.164,0,0,0,8.688,8.691c25.109-13.439,36.253-8.678,44.848,18.7,2.148.174,4.314.287,6.507.287s4.359-.114,6.507-.287c8.594-27.375,19.738-32.137,44.849-18.7a79.505,79.505,0,0,0,8.692-8.691c-13.442-25.109-8.679-36.252,18.695-44.847" transform="translate(0 -19.88)" fill="#86bdf4" fill-rule="evenodd"/>
            <path id="Trazado_1015560" data-name="Trazado 1015560" d="M134.614,257.351a73.33,73.33,0,0,1-8.048,8.044c-23.241-12.438-33.557-8.031-41.511,17.307-1.989.163-3.995.268-6.023.268s-4.035-.105-6.024-.268C65.053,257.364,54.738,252.957,31.5,265.4a73.949,73.949,0,0,1-8.042-8.044c12.439-23.244,8.03-33.559-17.309-41.514-.161-1.988-.266-3.992-.266-6.022s.1-4.034.266-6.023c25.338-7.953,29.748-18.268,17.309-41.512a73.949,73.949,0,0,1,8.042-8.044c23.243,12.439,33.558,8.034,41.512-17.306,1.989-.161,4-.266,6.024-.266s4.034.105,6.023.266c7.954,25.339,18.269,29.745,41.511,17.309a73.313,73.313,0,0,1,8.047,8.043c-12.441,23.243-8.034,33.557,17.305,41.51.161,1.989.265,3.994.265,6.023s-.1,4.035-.265,6.022c-25.339,7.955-29.747,18.271-17.3,41.512m23.161-41.028c.174-2.147.287-4.312.287-6.506s-.114-4.359-.288-6.506c-27.373-8.6-32.136-19.737-18.694-44.848a79.406,79.406,0,0,0-8.692-8.689c-25.111,13.436-36.255,8.675-44.849-18.7-2.148-.176-4.316-.288-6.507-.288s-4.36.113-6.507.288c-8.6,27.374-19.739,32.135-44.848,18.7a79.3,79.3,0,0,0-8.688,8.689c13.436,25.112,8.673,36.256-18.7,44.849C.114,205.458,0,207.625,0,209.817s.114,4.359.287,6.506c27.375,8.6,32.137,19.738,18.7,44.848a79.164,79.164,0,0,0,8.688,8.691c25.109-13.439,36.253-8.678,44.848,18.7,2.148.174,4.314.287,6.507.287s4.359-.114,6.507-.287c8.594-27.375,19.738-32.137,44.849-18.7a79.505,79.505,0,0,0,8.692-8.691c-13.442-25.109-8.679-36.252,18.695-44.847" transform="translate(0 -19.88)" fill="#71aeec" fill-rule="evenodd"/>
            <path id="Trazado_1015561" data-name="Trazado 1015561" d="M86.32,248.749A31.646,31.646,0,1,1,117.964,217.1,31.642,31.642,0,0,1,86.32,248.749m0-70.018a38.373,38.373,0,1,0,38.375,38.375A38.372,38.372,0,0,0,86.32,178.731" transform="translate(-7.288 -27.167)" fill="#71aeec" fill-rule="evenodd"/>
            <path id="Trazado_1015562" data-name="Trazado 1015562" d="M178.488,135.141A50.284,50.284,0,1,1,243.3,105.872a50.285,50.285,0,0,1-64.809,29.269m100.538-7.708c1.069-2.258,2.078-4.561,2.977-6.94s1.663-4.775,2.355-7.177c-26.177-20.544-26.777-34.587-1.9-56.322A92.135,92.135,0,0,0,276.587,44c-32.752,4.287-42.893-5.447-41-38.67-2.259-1.071-4.565-2.083-6.943-2.98S223.873.689,221.47,0c-20.545,26.178-34.588,26.776-56.323,1.9A91.9,91.9,0,0,0,152.16,7.773c4.286,32.751-5.449,42.892-38.673,40.995-1.068,2.26-2.079,4.562-2.978,6.941s-1.662,4.777-2.355,7.177c26.179,20.544,26.779,34.587,1.909,56.325a91.909,91.909,0,0,0,5.865,12.99c32.751-4.289,42.89,5.443,41,38.669,2.259,1.069,4.562,2.079,6.942,2.978s4.775,1.663,7.177,2.356c20.544-26.181,34.587-26.777,56.324-1.906a92.293,92.293,0,0,0,12.993-5.867c-4.293-32.752,5.442-42.891,38.665-41" transform="translate(-16.44)" fill="#86bdf4" fill-rule="evenodd"/>
            <path id="Trazado_1015563" data-name="Trazado 1015563" d="M237.08,162.455a85.045,85.045,0,0,1-12.027,5.429c-20.12-23.021-33.119-22.467-52.133,1.765-2.225-.639-4.444-1.347-6.646-2.179s-4.334-1.767-6.425-2.759c1.755-30.753-7.631-39.762-37.948-35.792a85.624,85.624,0,0,1-5.427-12.023c23.023-20.12,22.466-33.119-1.766-52.135.64-2.224,1.347-4.442,2.179-6.643s1.767-4.334,2.759-6.426c30.75,1.756,39.763-7.629,35.793-37.946a85.84,85.84,0,0,1,12.022-5.432c20.12,23.024,33.118,22.471,52.134-1.761,2.224.639,4.445,1.348,6.644,2.179s4.334,1.768,6.426,2.759c-1.755,30.753,7.631,39.762,37.946,35.793a84.77,84.77,0,0,1,5.432,12.026c-23.024,20.117-22.469,33.115,1.763,52.13-.64,2.224-1.348,4.443-2.18,6.644s-1.767,4.334-2.757,6.424c-30.752-1.755-39.763,7.632-35.789,37.948m41.945-35.023c1.069-2.258,2.078-4.561,2.977-6.94s1.663-4.775,2.355-7.177c-26.177-20.544-26.777-34.587-1.9-56.322A92.135,92.135,0,0,0,276.587,44c-32.752,4.287-42.893-5.447-41-38.67-2.259-1.071-4.565-2.083-6.943-2.98S223.873.689,221.47,0c-20.545,26.178-34.588,26.776-56.323,1.9A91.9,91.9,0,0,0,152.16,7.773c4.286,32.751-5.449,42.892-38.673,40.995-1.068,2.26-2.079,4.562-2.978,6.941s-1.662,4.777-2.355,7.177c26.179,20.544,26.779,34.587,1.909,56.325a91.909,91.909,0,0,0,5.865,12.99c32.751-4.289,42.89,5.443,41,38.669,2.259,1.069,4.562,2.079,6.942,2.978s4.775,1.663,7.177,2.356c20.544-26.181,34.587-26.777,56.324-1.906a92.293,92.293,0,0,0,12.993-5.867c-4.293-32.752,5.442-42.891,38.665-41" transform="translate(-16.44)" fill="#71aeec" fill-rule="evenodd"/>
            <path id="Trazado_1015564" data-name="Trazado 1015564" d="M191.1,130.247a36.7,36.7,0,1,1,47.3-21.365,36.7,36.7,0,0,1-47.3,21.365m28.7-75.969A44.505,44.505,0,1,0,245.7,111.643,44.5,44.5,0,0,0,219.8,54.278" transform="translate(-24.252 -7.812)" fill="#71aeec" fill-rule="evenodd"/>
            <path id="Trazado_1015565" data-name="Trazado 1015565" d="M296.095,220.705c-.083-.728.185-1.713.081-2.894-.8-9.207-2.53-30-2.53-30s-1.958-16.475-2.11-26.9a40.091,40.091,0,0,0,6.216-1.063c4.438-1.132,7.415-2.945,11.645-4.993,2.31,8.508,6.586,24.126,6.586,24.126s-.009,3.329,4.419,3.329c3.884,0,20.026,13.51,23.222,15.519-.413.974-1.458,1.939-1.931,2.905-5.131-4.2-31.559-13.846-31.559-13.846L302.965,168.7s-2.155,22.284-.418,24.027-3.082,26.706-3.082,27.975a26.773,26.773,0,0,1-3.369,0" transform="translate(-44.314 -23.537)" fill="#ffb17d" fill-rule="evenodd"/>
            <path id="Trazado_1015566" data-name="Trazado 1015566" d="M303.42,163.9s-1.546,24.638-.773,26.084,1.351,3.861.773,9.946-2.318,16.72-2.318,16.72l-5.7.188-2.318-29.079L291.1,160.8l-.048-.57,7.73-5.8Z" transform="translate(-44.24 -23.473)" fill="#3b5bb2" fill-rule="evenodd"/>
            <path id="Trazado_1015567" data-name="Trazado 1015567" d="M340.758,193.193l-2.513,4.539s-22.759-7.494-27.535-11.009c-1.836-1.349-9.47-19.8-9.47-19.8l-6.022-7.149-.062-3.969,12.93-5.682s4.7,5.287,5.618,7.424c2.3,5.328,3.863,22.9,3.863,22.9s-.191-.679,4.155.483,19.034,12.27,19.034,12.27" transform="translate(-44.864 -22.819)" fill="#4567c5" fill-rule="evenodd"/>
            <path id="Trazado_1015568" data-name="Trazado 1015568" d="M347.786,206.6s1.522-.984,1.7-1.545-.252-1.99.378-2.314,4.65.994,5.25,1.448a2,2,0,0,1,.845,2.018c-.185.572-5.534,10.261-6.667,11.491s-2.536-1.486-1.7-3.18-.136-5.258.191-7.918" transform="translate(-52.796 -30.808)" fill="#284190" fill-rule="evenodd"/>
            <path id="Trazado_1015569" data-name="Trazado 1015569" d="M294.9,229.352a5.934,5.934,0,0,0,2.185.71c.578-.129,1.6-1.2,2.2-.817s1.428,4.539,1.334,5.278a1.989,1.989,0,0,1-1.337,1.732c-.59.129-11.657.267-13.285-.108s.04-2.945,1.924-3.053,4.5-2.718,6.982-3.742" transform="translate(-43.37 -34.833)" fill="#284190" fill-rule="evenodd"/>
            <path id="Trazado_1015570" data-name="Trazado 1015570" d="M258.556,132.3c7.895,7.916,12.07,12.608,19.066,14.961a10.093,10.093,0,0,0,3.03-5.762q2.6,5.842,5.454,11.524,5.93,1.927,17.434-1.094l.914-3.552a3.822,3.822,0,0,1,3.414.365c3.644-6.853,5.314-13.187,5.448-18.781q-7.663-14.309-14.666-21.4-2.671-1.688-9.528-1.357-7.7,8.5-9.353,4.6a63.611,63.611,0,0,0-5.975,6.705q-2.53,4.734.725,19.036a81.225,81.225,0,0,0-14.445-7.892,5.165,5.165,0,0,0-1.518,2.646m45.967,12.823q-7-7.889-7.306-24.037,4.524,5.961,9.19,11.6-1.558,1.861-1.884,12.434" transform="translate(-39.301 -16.287)" fill="#f59e0b" fill-rule="evenodd"/>
            <path id="Trazado_1015571" data-name="Trazado 1015571" d="M283.09,144.966a101,101,0,0,1-5.2-15.032q2.632,13.221,1.76,18.341c-1.137.479-2.743.344-5.057-.16a23.722,23.722,0,0,0,5.465,2.614,10.1,10.1,0,0,0,3.03-5.762" transform="translate(-41.739 -19.75)" fill="#ef6a30" fill-rule="evenodd"/>
            <path id="Trazado_1015572" data-name="Trazado 1015572" d="M311.262,150.881a26,26,0,0,1,.069-3.254q-7-7.89-7.306-24.037-2.965,16.048,7.032,28.086Z" transform="translate(-46.109 -18.786)" fill="#ef6a30" fill-rule="evenodd"/>
            <path id="Trazado_1015573" data-name="Trazado 1015573" d="M284.077,131.548a63.774,63.774,0,0,1,15.511-4.849,40.3,40.3,0,0,1,.628-5.23q-14.779,3.616-20.266,7.919Zm16.968,6.909q-1.172.3-2.433.687l.265.138,3.062,1.6q-.5-1.2-.894-2.426m-6.118,8.277-5.17-2.7a21.906,21.906,0,0,0-4.068,2.326q.909,1.949,1.848,3.877a40.862,40.862,0,0,1,7.39-3.5M292.3,135.845l-4.8-2.511a62.237,62.237,0,0,1,12.071-3.285,32.374,32.374,0,0,0,.631,5.185q-3.221.812-5.894,1.66ZM279.857,117.4a43.1,43.1,0,0,1,14.044-5.77,15.84,15.84,0,0,0-3.739-1.992q-5.569,5.531-7.186,2.951a23.529,23.529,0,0,0-3.119,4.811m16.706-3.382a22.545,22.545,0,0,1,2.683,4.628c-10.642,2.649-16.077,4.574-20.707,8.555a21.079,21.079,0,0,1-.131-5.716c5.086-3.6,11.383-5.885,18.156-7.467" transform="translate(-42.298 -16.666)" fill="#f2b864" fill-rule="evenodd"/>
            <path id="Trazado_1015574" data-name="Trazado 1015574" d="M290.462,115.534a21.483,21.483,0,0,0,2.571-7.809,5.293,5.293,0,0,0-2.212-1.521,28.31,28.31,0,0,1-4.169,6.3.263.263,0,0,1-.022.021c-.036-.062-.075-.125-.113-.188a37.472,37.472,0,0,1-2.4-4.119,4.985,4.985,0,0,0-.793,2.366,14.379,14.379,0,0,0,.96,6.153,18.422,18.422,0,0,1,.918-2.084,10.616,10.616,0,0,1,1.431-2.128,10.206,10.206,0,0,1,2.055,1.325,17.119,17.119,0,0,1,1.777,1.686" transform="translate(-43.058 -16.143)" fill="#ef6a30" fill-rule="evenodd"/>
            <path id="Trazado_1015575" data-name="Trazado 1015575" d="M289.765,104.145a6.164,6.164,0,0,1-1.46-1.62c.025-.454.022-1.019,0-1.7q3.231-3.919-.084-4.374a5.462,5.462,0,0,0-.868,2.468c-.471.119-.36-1.224-.734-1.611-.007-2.085-.639-2.545-.822-3.793-1.9-1.582-5.376-1.205-9.323.526.672,3.886,1.911,13.147,6.418,11.623l.169.491a37.893,37.893,0,0,0,2.4,4.119l.136.166a28.267,28.267,0,0,0,4.169-6.3" transform="translate(-42.024 -14.063)" fill="#ffb17d" fill-rule="evenodd"/>
            <path id="Trazado_1015576" data-name="Trazado 1015576" d="M276.232,93.368c3.947-1.731,7.127-2.357,9.029-.776.182,1.249.717,1.9.725,3.982.374.388.359,1.542.829,1.423a5.473,5.473,0,0,1,.868-2.468q3.315.455.085,4.374.038,1.015,0,1.7c3.94-4.011,4.194-11.225-.912-13.2-2.353-5.291-8.924,1.916-13.708.434-.948,2.665,1.827,4.846,3.082,4.533" transform="translate(-41.49 -13.138)" fill="#623f04" fill-rule="evenodd"/>
            <path id="Trazado_1015577" data-name="Trazado 1015577" d="M287.048,106.58a13.657,13.657,0,0,1-3.008,1.224l.168.491c.129.288.27.572.418.852l.025-.017a6.434,6.434,0,0,0,2.4-2.55" transform="translate(-43.174 -16.2)" fill="#ef8161" fill-rule="evenodd"/>
            <path id="Trazado_1015578" data-name="Trazado 1015578" d="M290.373,90.538a1.166,1.166,0,0,1-.482-1.434,2.321,2.321,0,0,1,2.448.055q-.707.011-1.967,1.379" transform="translate(-44.049 -13.495)" fill="#70460f" fill-rule="evenodd"/>
            <path id="Trazado_1015579" data-name="Trazado 1015579" d="M288.792,88.755q.749.49,1.134,0A2.6,2.6,0,0,0,289,86.714a3.331,3.331,0,0,1-.209,2.041" transform="translate(-43.897 -13.181)" fill="#70460f" fill-rule="evenodd"/>
            <path id="Trazado_1015580" data-name="Trazado 1015580" d="M279.488,93.026q-.532-1.78-1.975-1.771a4.071,4.071,0,0,0-1.612,3.981q.509-1.13,3.587-2.209" transform="translate(-41.928 -13.871)" fill="#70460f" fill-rule="evenodd"/>
            <path id="Trazado_1015581" data-name="Trazado 1015581" d="M281.529,87.509c-.047.557.371,1.158-.305,1.506.115,2.319-2.411-.17-2.6-1a6.269,6.269,0,0,0,2.9-.508" transform="translate(-42.352 -13.301)" fill="#70460f" fill-rule="evenodd"/>
            <path id="Trazado_1015582" data-name="Trazado 1015582" d="M182.676,85.692a26.374,26.374,0,0,1,48.385,20.582l.178.093a1.5,1.5,0,0,1,.634,2.022l-2.477,4.739a1.5,1.5,0,0,1-2.021.633l-.179-.093a26.374,26.374,0,0,1-44.521-27.975M185.94,87.4a22.69,22.69,0,1,0,30.62-9.6,22.69,22.69,0,0,0-30.62,9.6" transform="translate(-27.31 -10.873)" fill="#1e77d0" fill-rule="evenodd"/>
            <rect id="Rectángulo_462140" data-name="Rectángulo 462140" width="5.347" height="13.457" transform="matrix(0.463, -0.886, 0.886, 0.463, 202.087, 102.255)" fill="#619fdf"/>
            <path id="Trazado_1015583" data-name="Trazado 1015583" d="M245.762,123.5l2.477-4.739a1.5,1.5,0,0,1,2.021-.633l10.876,5.685.017.008,23.49,12.278,0,0,6.507,3.4,23.495,12.279a1.5,1.5,0,0,1,.633,2.021l-2.477,4.739a1.5,1.5,0,0,1-2.021.633L299.9,153.488l-.014-.007L276.4,141.2l-6.507-3.4h0L246.4,125.521a1.5,1.5,0,0,1-.634-2.021" transform="translate(-37.33 -17.93)" fill="#1e77d0" fill-rule="evenodd"/>
            <g id="Grupo_1195426" data-name="Grupo 1195426" transform="translate(156.045 64.339)" opacity="0.35">
              <g id="Grupo_1195425" data-name="Grupo 1195425">
                <g id="Grupo_1195424" data-name="Grupo 1195424" clip-path="url(#clip-path-4)">
                  <path id="Trazado_1015584" data-name="Trazado 1015584" d="M217.22,78.458a22.691,22.691,0,1,1-30.62,9.6,22.692,22.692,0,0,1,30.62-9.6" transform="translate(-184.015 -75.872)" fill="#fff" fill-rule="evenodd"/>
                </g>
              </g>
            </g>
            <g id="Grupo_1195429" data-name="Grupo 1195429" transform="translate(156.046 68.113)" opacity="0.35">
              <g id="Grupo_1195428" data-name="Grupo 1195428">
                <g id="Grupo_1195427" data-name="Grupo 1195427" clip-path="url(#clip-path-5)">
                  <path id="Trazado_1015585" data-name="Trazado 1015585" d="M217.064,119.439l-33.047-20.02q-.01-1.024.073-2.032l34.738,21.045q-.856.542-1.765,1.007m8.626-7.762a22.623,22.623,0,0,0,3.592-10.088L194.177,80.322a22.79,22.79,0,0,0-7.278,7.855Zm-5.444,5.782a22.847,22.847,0,0,0,3.027-2.706L185.29,91.743a22.531,22.531,0,0,0-.995,3.936Z" transform="translate(-184.017 -80.322)" fill="#fdfdfd" fill-rule="evenodd"/>
                </g>
              </g>
            </g>
            <path id="Trazado_1015586" data-name="Trazado 1015586" d="M314.749,158.438h0a12.473,12.473,0,0,1,.8-4.077,3.828,3.828,0,0,0-2.939-1.777l-1.81,2.2a22.679,22.679,0,0,0-4.475,3.11,2.827,2.827,0,0,0,2.776-.416q-1.009,1.759-.889,2.206,3.844,3.053,5.252,2.219a6.465,6.465,0,0,0,1.288-3.462" transform="translate(-46.561 -23.191)" fill="#ffb17d" fill-rule="evenodd"/>
            <path id="Trazado_1015587" data-name="Trazado 1015587" d="M321.081,139.289a46.22,46.22,0,0,1-5.034,14.335c-.872-.6-3.025-2-3.689-1.651.407-.948.25-.806.343-1.967a50.052,50.052,0,0,1,1.125-10.77,64.092,64.092,0,0,0,7.254.053" transform="translate(-47.479 -21.164)" fill="#f59e0b" fill-rule="evenodd"/>
            <path id="Trazado_1015588" data-name="Trazado 1015588" d="M257.42,135.42c-.255-.242-1.227-1.224-2.229-2.166-1.442-.064-3.45-1.393-3.787-2.539-.205-1.548-.8-2.125.385-3.082a4.309,4.309,0,0,1,2.519,1.758c-.061,1.1,1.1,1.44,1.842,1.829.947.636.276.146,1.354.848.479.4,1.141.628,1.389.852a4.827,4.827,0,0,0-1.473,2.5" transform="translate(-38.163 -19.4)" fill="#ffb17d" fill-rule="evenodd"/>
            <path id="Trazado_1015589" data-name="Trazado 1015589" d="M283.6,96.17a.655.655,0,1,1-.357.855.654.654,0,0,1,.357-.855" transform="translate(-43.045 -14.61)" fill="#badaf9" fill-rule="evenodd"/>
            <path id="Trazado_1015590" data-name="Trazado 1015590" d="M284.1,97.383a.656.656,0,1,0-.5-1.213.648.648,0,0,0-.321.281l.044-.025a.213.213,0,1,1-.115.277l-.008-.023a.657.657,0,0,0,.9.7" transform="translate(-43.045 -14.61)" fill="#492e07" fill-rule="evenodd"/>
            <path id="Trazado_1015591" data-name="Trazado 1015591" d="M282.639,95.695a.275.275,0,0,0-.026.047,1.09,1.09,0,0,1,.056-.215.331.331,0,0,0-.052.088.651.651,0,0,0-.025.121.628.628,0,0,1-.017-.116.325.325,0,0,0,0,.134.47.47,0,0,1-.017-.254.38.38,0,0,0-.035.245.271.271,0,0,1-.045-.1.192.192,0,0,0,.013.114l-.048-.036c.015.026.025.032.036.054-.076-.03-.235-.159-.248-.246a.467.467,0,0,0,.092.107.725.725,0,0,1-.076-.191,1.511,1.511,0,0,1,.07.144.463.463,0,0,0,.1.118.65.65,0,0,1-.109-.293l.012.027a.775.775,0,0,0,.06.159c-.015-.1-.05-.183.006-.278a.714.714,0,0,0-.015.124c.029-.055.02-.141.088-.17a.835.835,0,0,0-.059.138.234.234,0,0,0,0,.171.393.393,0,0,1,.173-.375c-.027.027-.105.131-.1.175l0,.007c.021.044-.005-.043.006.01a.3.3,0,0,0-.04.1.429.429,0,0,0-.007.069.2.2,0,0,0,0,.04.089.089,0,0,0,.005.018l.006.011a.448.448,0,0,1,.078-.29.648.648,0,0,1,.19-.185l0,.005-.046.042a.511.511,0,0,0-.2.4c0-.008,0,0,.007-.017l0-.011a.785.785,0,0,1,.054-.169.625.625,0,0,1,.105-.152.82.82,0,0,1,.315-.2,1.566,1.566,0,0,0-.218.136.5.5,0,0,0-.161.191.62.62,0,0,0,.07-.063,1.788,1.788,0,0,1,.572-.362,1.444,1.444,0,0,0-.3.216l.061-.034c-.015.014-.026.03-.045.044l-.044.042a.783.783,0,0,0-.2.321c.017-.031.041-.063.062-.094s.042-.06.066-.092a1.407,1.407,0,0,1,.148-.17,1.873,1.873,0,0,1,.362-.271.152.152,0,0,0-.047.053,5.242,5.242,0,0,1,.588-.3c-.059.042-.164.083-.231.126l-.059.047c.04-.012.159-.085.209-.109a3.244,3.244,0,0,1,.678-.291,1.4,1.4,0,0,1,.554-.08,1.356,1.356,0,0,1,.378.092c.042.019.066.034.1.053a1.51,1.51,0,0,0-.461-.113,2.519,2.519,0,0,1,.75.28c-.054-.016-.139-.059-.2-.083s-.142-.05-.216-.073a1.709,1.709,0,0,0-.485-.081c.04.016.139.033.188.045a6.169,6.169,0,0,1,1.039.338c.04.017.123.065.151.074-.031,0-.17-.059-.216-.074a2.228,2.228,0,0,0-.721-.142,5.723,5.723,0,0,1,.739.163l-.43-.079a1.907,1.907,0,0,0-.476-.024,3.792,3.792,0,0,1,.92.134c-.065,0-.164-.025-.237-.035s-.167-.018-.253-.024a2.569,2.569,0,0,0-.523.016,2.877,2.877,0,0,0-.65.188c-.06.025-.139.064-.2.081a.736.736,0,0,1,.17-.087,2.9,2.9,0,0,1,.366-.142c.052-.016.159-.034.2-.053a3.1,3.1,0,0,0-.41.078c.013,0,.006,0,.015-.008s.006,0,.014-.013a1.29,1.29,0,0,0-.3.131c-.081.047-.237.167-.245.172a.447.447,0,0,0,.045-.061l-.2.114.234-.175a1.858,1.858,0,0,0-.16.1c-.058.034-.176.1-.228.144a1.085,1.085,0,0,1-.252.124,1.143,1.143,0,0,1,.132-.1l.126-.092a.572.572,0,0,0,.064-.049,2.279,2.279,0,0,1,.178-.148,1.566,1.566,0,0,1,.578-.3,1.344,1.344,0,0,0-.608.292l-.25.2c-.023.015-.038.032-.061.051a2.289,2.289,0,0,1-.189.142v-.025a.48.48,0,0,1-.119.086c.048-.085.205-.189.239-.29a.979.979,0,0,0-.151.161c-.016.019-.033.031-.048.049a.794.794,0,0,1,.153-.268l.068-.075a.445.445,0,0,0-.17.18,1.3,1.3,0,0,0-.1.2l-.007.014c-.007.013,0,.006-.012.012l.031-.13a.988.988,0,0,0-.061.172.55.55,0,0,1,.026-.17l-.032.041a1.1,1.1,0,0,1,.243-.355.716.716,0,0,0-.265.336c-.018.053-.023.112-.042.155l.005-.1,0,0-.03.069a.6.6,0,0,1,.084-.282.177.177,0,0,0-.059.07.468.468,0,0,0-.039.086.886.886,0,0,0-.04.2.315.315,0,0,1-.008-.112c-.018.011,0,0-.018.016a.307.307,0,0,0-.04.111l-.008-.069-.025.079a1.1,1.1,0,0,1,0-.159.258.258,0,0,0-.036.14.168.168,0,0,1-.014-.082l-.035.068c-.008.021-.014.047-.022.067a.558.558,0,0,1,.025-.152.459.459,0,0,0-.07.18.512.512,0,0,1,.036-.236c-.058.028-.047.2-.066.237l-.019-.068c0,.005,0,0-.008.014l-.016.078-.022-.088a.33.33,0,0,0-.018.1.616.616,0,0,1-.022-.118c-.01.011,0,0-.013.018-.019.033-.019.073-.035.107l.007-.078c-.008.007,0,0-.011.011Z" transform="translate(-42.899 -14.346)" fill="#492e07" fill-rule="evenodd"/>
            <path id="Trazado_1015592" data-name="Trazado 1015592" d="M278.442,97.515a.656.656,0,1,0,.856.357.656.656,0,0,0-.856-.357" transform="translate(-42.262 -14.815)" fill="#badaf9" fill-rule="evenodd"/>
            <path id="Trazado_1015593" data-name="Trazado 1015593" d="M278.942,98.729a.656.656,0,1,1-.075-1.24l-.048.014a.213.213,0,1,0,.162.393.213.213,0,0,0,.115-.277l-.011-.021a.647.647,0,0,1,.214.275.657.657,0,0,1-.357.856" transform="translate(-42.262 -14.815)" fill="#492e07" fill-rule="evenodd"/>
            <path id="Trazado_1015594" data-name="Trazado 1015594" d="M279.288,96.8a.374.374,0,0,1,.044.025,1.033,1.033,0,0,0-.156-.149.315.315,0,0,1,.086.047.566.566,0,0,1,.083.089.781.781,0,0,0-.05-.107.366.366,0,0,1,.073.111.507.507,0,0,0-.126-.222.406.406,0,0,1,.159.188.288.288,0,0,0-.019-.1.228.228,0,0,1,.053.1l.016-.056c0,.031,0,.041,0,.064a.488.488,0,0,0,.052-.334.5.5,0,0,1-.011.137.872.872,0,0,0-.045-.2,1.564,1.564,0,0,0,.025.159.44.44,0,0,1-.007.148.709.709,0,0,0-.076-.3l.005.028a.936.936,0,0,1,.042.165c-.042-.091-.063-.181-.155-.23a.69.69,0,0,1,.079.095c-.051-.032-.091-.107-.158-.1a.9.9,0,0,1,.118.086.251.251,0,0,1,.092.144.388.388,0,0,0-.329-.225.371.371,0,0,1,.168.093l0,.008c.008.048-.02-.039,0,.012a.288.288,0,0,1,.085.066.306.306,0,0,1,.042.054.373.373,0,0,1,.02.036.048.048,0,0,1,.005.017l0,.012a.468.468,0,0,0-.213-.2.56.56,0,0,0-.24-.057l.005,0,.058.011a.51.51,0,0,1,.365.232c-.009-.005,0,0-.015-.01l-.008-.008a.814.814,0,0,0-.131-.114.639.639,0,0,0-.16-.074.721.721,0,0,0-.338,0,1.263,1.263,0,0,1,.233,0,.438.438,0,0,1,.221.077.587.587,0,0,1-.086-.017,1.5,1.5,0,0,0-.617-.008,1.193,1.193,0,0,1,.339.025l-.064,0c.02,0,.036.01.057.014s.036.006.056.011a.758.758,0,0,1,.321.164c-.028-.016-.063-.031-.095-.046s-.064-.03-.1-.042a1.455,1.455,0,0,0-.2-.066,1.606,1.606,0,0,0-.413-.039.135.135,0,0,1,.064.02,4.281,4.281,0,0,0-.6.05c.065.006.165-.014.238-.012l.068.008a1.9,1.9,0,0,1-.214.016,2.673,2.673,0,0,0-.655.108,1.1,1.1,0,0,0-.45.219,1.189,1.189,0,0,0-.23.273.821.821,0,0,0-.047.1c.053-.056.148-.258.281-.333a2.213,2.213,0,0,0-.4.622c.031-.042.07-.121.105-.174s.077-.116.119-.173a1.4,1.4,0,0,1,.315-.319,1.6,1.6,0,0,1-.114.135,5.315,5.315,0,0,0-.585.821c-.02.036-.056.119-.072.141a1.962,1.962,0,0,0,.12-.174,1.853,1.853,0,0,1,.455-.493,4.814,4.814,0,0,0-.458.519l.275-.288a1.582,1.582,0,0,1,.337-.266,3.19,3.19,0,0,0-.606.589c.047-.036.109-.107.156-.153s.113-.1.173-.149a2.042,2.042,0,0,1,.4-.258,2.26,2.26,0,0,1,.58-.178,1.822,1.822,0,0,0,.189-.035.664.664,0,0,0-.174.014,2.435,2.435,0,0,0-.346.072,1.8,1.8,0,0,1-.173.058,2.374,2.374,0,0,1,.344-.147c-.011,0-.005,0-.016,0a.046.046,0,0,1-.016,0,1.016,1.016,0,0,1,.289-.043c.085,0,.264.019.273.018a.487.487,0,0,1-.066-.028l.207-.007-.265-.026c.047-.007.12,0,.17,0a2.365,2.365,0,0,1,.246,0,.866.866,0,0,0,.253-.027A.879.879,0,0,0,278.4,97l-.143-.012a.6.6,0,0,1-.072-.009,2.045,2.045,0,0,0-.211-.031,1.308,1.308,0,0,0-.588.046,1.117,1.117,0,0,1,.6-.07l.293.041c.025,0,.046.008.073.011a1.99,1.99,0,0,0,.215.022l-.008-.014,0,0,0,0v0a.4.4,0,0,0,.135.012c-.081-.046-.253-.053-.332-.12a.826.826,0,0,1,.2.057c.021.008.041.009.062.016a.772.772,0,0,0-.255-.146l-.092-.028a.411.411,0,0,1,.222.062,1.406,1.406,0,0,1,.178.118l.013.008c.011.007.005,0,.014,0l-.092-.092c.018.019.124.084.137.112a.55.55,0,0,0-.112-.128l.047.018a1.041,1.041,0,0,0-.369-.173.663.663,0,0,1,.376.145c.041.034.077.081.114.109l-.055-.079.005,0,.059.043a.623.623,0,0,0-.214-.194.158.158,0,0,1,.081.027.444.444,0,0,1,.075.053.931.931,0,0,1,.138.148.323.323,0,0,0-.055-.1c.019,0,0,0,.021,0a.313.313,0,0,1,.091.074l-.032-.063.061.053a1.331,1.331,0,0,0-.084-.132.265.265,0,0,1,.1.1.206.206,0,0,0-.035-.077l.063.04.052.046a.56.56,0,0,0-.1-.114.467.467,0,0,1,.148.114.562.562,0,0,0-.153-.179c.057-.007.139.14.176.165l-.023-.067a.038.038,0,0,1,.014.008l.053.058-.031-.086c.029.019.041.046.068.075a.676.676,0,0,0-.047-.109c.013,0,0,0,.02.008s.053.053.081.071l-.046-.062a.031.031,0,0,1,.014,0Z" transform="translate(-41.984 -14.646)" fill="#492e07" fill-rule="evenodd"/>
            <path id="Trazado_1015595" data-name="Trazado 1015595" d="M281.921,101.647a.661.661,0,0,1-.616-.417,12.926,12.926,0,0,1-.1-3.132.118.118,0,0,1,.147-.055.11.11,0,0,1,.055.149,14.454,14.454,0,0,0,.1,2.938c.186.368.453.322.8.205a.592.592,0,0,1,.3-.055.113.113,0,1,1-.046.221h-.006a.847.847,0,0,0-.173.049,1.455,1.455,0,0,1-.46.1" transform="translate(-42.734 -14.901)" fill="#dd8d57"/>
            <path id="Trazado_1015596" data-name="Trazado 1015596" d="M280.736,104.319a4.442,4.442,0,0,0,2.5-.388c.543-.222,1.228-.776.8-.163-1.172,1.668-3.321,1.136-3.294.55" transform="translate(-42.672 -15.73)" fill="#fff" fill-rule="evenodd"/>
            <path id="Trazado_1015597" data-name="Trazado 1015597" d="M308.818,235.966h-2.263l25.262,90.169h2.263Z" transform="translate(-46.597 -35.867)" fill="#623f04" fill-rule="evenodd"/>
            <path id="Trazado_1015598" data-name="Trazado 1015598" d="M288.712,235.966H286.45l25.262,90.169h2.263Z" transform="translate(-43.541 -35.867)" fill="#623f04" fill-rule="evenodd"/>
            <path id="Trazado_1015599" data-name="Trazado 1015599" d="M305.853,242.922H291.067l.422,1.509h14.787Z" transform="translate(-44.242 -36.924)" fill="#623f04" fill-rule="evenodd"/>
            <path id="Trazado_1015600" data-name="Trazado 1015600" d="M308.95,253.977H294.164l.422,1.509h14.787Z" transform="translate(-44.713 -38.605)" fill="#623f04" fill-rule="evenodd"/>
            <path id="Trazado_1015601" data-name="Trazado 1015601" d="M266.838,253.1h14.787l-.423,1.509H266.415Z" transform="translate(-40.495 -38.472)" fill="#623f04" fill-rule="evenodd"/>
            <path id="Trazado_1015602" data-name="Trazado 1015602" d="M312.048,265.032H297.262l.422,1.509h14.787Z" transform="translate(-45.184 -40.285)" fill="#623f04" fill-rule="evenodd"/>
            <path id="Trazado_1015603" data-name="Trazado 1015603" d="M263.74,264.159h14.787l-.424,1.509H263.317Z" transform="translate(-40.024 -40.152)" fill="#623f04" fill-rule="evenodd"/>
            <path id="Trazado_1015604" data-name="Trazado 1015604" d="M315.145,276.086H300.358l.423,1.509h14.787Z" transform="translate(-45.655 -41.965)" fill="#623f04" fill-rule="evenodd"/>
            <path id="Trazado_1015605" data-name="Trazado 1015605" d="M318.242,287.142H303.456l.422,1.509h14.787Z" transform="translate(-46.126 -43.646)" fill="#623f04" fill-rule="evenodd"/>
            <path id="Trazado_1015606" data-name="Trazado 1015606" d="M321.34,298.2H306.552l.424,1.51h14.787Z" transform="translate(-46.596 -45.326)" fill="#623f04" fill-rule="evenodd"/>
            <path id="Trazado_1015607" data-name="Trazado 1015607" d="M324.436,309.251H309.65l.423,1.509h14.787Z" transform="translate(-47.067 -47.006)" fill="#623f04" fill-rule="evenodd"/>
            <path id="Trazado_1015608" data-name="Trazado 1015608" d="M327.534,320.307H312.748l.423,1.509h14.787Z" transform="translate(-47.538 -48.687)" fill="#623f04" fill-rule="evenodd"/>
            <path id="Trazado_1015609" data-name="Trazado 1015609" d="M330.631,331.362H315.845l.422,1.509h14.787Z" transform="translate(-48.009 -50.367)" fill="#623f04" fill-rule="evenodd"/>
            <path id="Trazado_1015610" data-name="Trazado 1015610" d="M264.519,235.966h2.263l-25.263,90.169h-2.263Z" transform="translate(-36.367 -35.867)" fill="#623f04" fill-rule="evenodd"/>
            <path id="Trazado_1015611" data-name="Trazado 1015611" d="M284.624,235.966h2.262l-25.263,90.169h-2.262Z" transform="translate(-39.423 -35.867)" fill="#623f04" fill-rule="evenodd"/>
            <path id="Trazado_1015612" data-name="Trazado 1015612" d="M269.69,242.922h14.787l-.424,1.509H269.267Z" transform="translate(-40.929 -36.924)" fill="#623f04" fill-rule="evenodd"/>
            <path id="Trazado_1015613" data-name="Trazado 1015613" d="M260.4,276.086h14.787l-.424,1.509H259.975Z" transform="translate(-39.516 -41.965)" fill="#623f04" fill-rule="evenodd"/>
            <path id="Trazado_1015614" data-name="Trazado 1015614" d="M257.3,287.142h14.786l-.422,1.509H256.879Z" transform="translate(-39.046 -43.646)" fill="#623f04" fill-rule="evenodd"/>
            <path id="Trazado_1015615" data-name="Trazado 1015615" d="M254.2,298.2h14.787l-.424,1.51H253.781Z" transform="translate(-38.575 -45.326)" fill="#623f04" fill-rule="evenodd"/>
            <path id="Trazado_1015616" data-name="Trazado 1015616" d="M251.107,309.251h14.786l-.422,1.509H250.684Z" transform="translate(-38.104 -47.006)" fill="#623f04" fill-rule="evenodd"/>
            <path id="Trazado_1015617" data-name="Trazado 1015617" d="M248.009,320.307H262.8l-.424,1.509H247.586Z" transform="translate(-37.633 -48.687)" fill="#623f04" fill-rule="evenodd"/>
            <path id="Trazado_1015618" data-name="Trazado 1015618" d="M244.913,331.362H259.7l-.423,1.509H244.489Z" transform="translate(-37.162 -50.367)" fill="#623f04" fill-rule="evenodd"/>
            <rect id="Rectángulo_462143" data-name="Rectángulo 462143" width="40.34" height="3.548" transform="translate(224.884 196.551)" fill="#f59e0b"/>
            <path id="Trazado_1015619" data-name="Trazado 1015619" d="M233.293,318.079a9.35,9.35,0,0,0,.063,1.014,9.35,9.35,0,0,1-.063-1.014" transform="translate(-35.461 -48.348)" fill="#ebebe8" fill-rule="evenodd"/>
          </g>
        </g>
      </g>
    </g>
  </g>
</svg>
