<svg xmlns="http://www.w3.org/2000/svg" xmlns:xlink="http://www.w3.org/1999/xlink" width="1040" height="175.759" viewBox="0 0 1040 175.759">
  <defs>
    <clipPath id="clip-path">
      <rect id="Rectángulo_462039" data-name="Rectángulo 462039" width="1039.999" height="175.759" fill="none"/>
    </clipPath>
  </defs>
  <g id="Grupo_1195534" data-name="Grupo 1195534" transform="translate(-279.711 -2747)">
    <path id="Trazado_1015275" data-name="Trazado 1015275" d="M587.316,0V175.758h239.71l81-87.879L827.026,0Z" transform="translate(411.683 2747)" fill="#334155"/>
    <path id="Trazado_1015276" data-name="Trazado 1015276" d="M391.523,0V175.758H631.232l81-87.879L631.232,0Z" transform="translate(367.688 2747)" fill="#f59e0b"/>
    <path id="Trazado_1015277" data-name="Trazado 1015277" d="M195.785,0V175.758H435.5l81-87.879L435.5,0Z" transform="translate(323.705 2747)" fill="#1e3a8a"/>
    <path id="Trazado_1015278" data-name="Trazado 1015278" d="M0,0,81,87.882,0,175.757H239.7l81-87.875L239.7,0Z" transform="translate(279.711 2747)" fill="#2ed19b"/>
    <g id="Grupo_1195183" data-name="Grupo 1195183" transform="translate(279.711 2747)" clip-path="url(#clip-path)">
      <path id="Trazado_1015279" data-name="Trazado 1015279" d="M350.964,32.017h-5.952v-1.41a3.025,3.025,0,0,0-3.021-3.021h-4.362v-.317a4.861,4.861,0,1,0-9.723,0v.317h-4.362a3.025,3.025,0,0,0-3.021,3.021v1.41h-5.93a4.446,4.446,0,0,0-4.43,4.452V82.658a5.212,5.212,0,0,0,.669,2.518c.009.015.007.032.016.048s.031.037.042.058a5.324,5.324,0,0,0,.742,1.008c.022.023.038.05.06.073a5.273,5.273,0,0,0,.942.742c.121.077.249.137.375.2a5.342,5.342,0,0,0,.764.325c.137.045.271.093.411.127a5.17,5.17,0,0,0,1.159.157c.023,0,.045.01.069.01h34.736c.022,0,.043-.009.065-.009a5.2,5.2,0,0,0,1.163-.158c.141-.034.272-.081.409-.126a5.3,5.3,0,0,0,.767-.327c.127-.066.254-.126.374-.2a5.264,5.264,0,0,0,.942-.741c.025-.026.043-.056.067-.083a5.174,5.174,0,0,0,.732-.993c.013-.023.034-.04.047-.064s.007-.036.016-.053a5.205,5.205,0,0,0,.667-2.513V36.469a4.447,4.447,0,0,0-4.431-4.452m-27.421-2.159h5.5a1.136,1.136,0,0,0,1.137-1.137V27.269a2.59,2.59,0,1,1,5.179,0v1.452a1.135,1.135,0,0,0,1.135,1.137h5.5a.741.741,0,0,1,.75.75v4.522a.741.741,0,0,1-.75.75H323.543a.76.76,0,0,1-.75-.75V33.268a1.129,1.129,0,0,0,.023-.115c0-.04-.02-.076-.023-.115v-2.43a.761.761,0,0,1,.75-.75m-8.11,55.8a2.967,2.967,0,0,1-1.064-.216c-.066-.024-.13-.053-.192-.082a2.968,2.968,0,0,1-.84-.567.227.227,0,0,1-.027-.021,2.986,2.986,0,0,1-.876-2.113V36.469a2.172,2.172,0,0,1,2.158-2.18h5.93v.84a3.026,3.026,0,0,0,3.021,3.023h18.448a3.026,3.026,0,0,0,3.021-3.023v-.84h5.952a2.171,2.171,0,0,1,2.159,2.18V82.658a2.988,2.988,0,0,1-.876,2.113c-.009.009-.02.013-.028.022a3,3,0,0,1-.839.566c-.064.029-.127.058-.193.082a2.966,2.966,0,0,1-1.063.216Z" transform="translate(69.695 5.035)" fill="#2ed19b"/>
      <path id="Trazado_1015280" data-name="Trazado 1015280" d="M344.269,43.4H325.787a1.136,1.136,0,1,0,0,2.272h18.482a1.136,1.136,0,1,0,0-2.272" transform="translate(72.95 9.752)" fill="#2ed19b"/>
      <path id="Trazado_1015281" data-name="Trazado 1015281" d="M319.865,40.865a4.241,4.241,0,1,0,4.242,4.241,4.247,4.247,0,0,0-4.242-4.241m0,6.21a1.969,1.969,0,1,1,1.971-1.969,1.971,1.971,0,0,1-1.971,1.969" transform="translate(70.922 9.183)" fill="#2ed19b"/>
      <path id="Trazado_1015282" data-name="Trazado 1015282" d="M344.269,52.829H325.787a1.136,1.136,0,1,0,0,2.272h18.482a1.136,1.136,0,1,0,0-2.272" transform="translate(72.95 11.871)" fill="#2ed19b"/>
      <path id="Trazado_1015283" data-name="Trazado 1015283" d="M319.865,50.3a4.241,4.241,0,1,0,4.242,4.24,4.246,4.246,0,0,0-4.242-4.24m0,6.21a1.969,1.969,0,1,1,1.971-1.971,1.972,1.972,0,0,1-1.971,1.971" transform="translate(70.922 11.301)" fill="#2ed19b"/>
      <path id="Trazado_1015284" data-name="Trazado 1015284" d="M344.269,62.258H325.787a1.136,1.136,0,1,0,0,2.272h18.482a1.136,1.136,0,1,0,0-2.272" transform="translate(72.95 13.99)" fill="#2ed19b"/>
      <path id="Trazado_1015285" data-name="Trazado 1015285" d="M319.865,59.722a4.242,4.242,0,1,0,4.242,4.241,4.247,4.247,0,0,0-4.242-4.241m0,6.212a1.969,1.969,0,1,1,1.971-1.971,1.972,1.972,0,0,1-1.971,1.971" transform="translate(70.922 13.42)" fill="#2ed19b"/>
    </g>
    <path id="Trazado_1015860" data-name="Trazado 1015860" d="M8.367-2.637H3.744L2.865,0H.062L4.825-12.8H7.269L12.059,0h-2.8ZM4.456-4.772h3.2L6.047-9.562ZM18.6-.967a3.185,3.185,0,0,1-2.6,1.143A3,3,0,0,1,13.66-.7a3.752,3.752,0,0,1-.822-2.575V-9.51h2.54v6.151q0,1.487,1.354,1.487a1.834,1.834,0,0,0,1.775-.9V-9.51h2.549V0H18.666Zm3.981-3.858a5.731,5.731,0,0,1,1-3.542A3.237,3.237,0,0,1,26.3-9.686,2.913,2.913,0,0,1,28.6-8.648V-13.5h2.549V0H28.852l-.123-1.011A2.989,2.989,0,0,1,26.286.176a3.228,3.228,0,0,1-2.694-1.323A5.916,5.916,0,0,1,22.577-4.825Zm2.54.189a3.754,3.754,0,0,0,.466,2.051,1.517,1.517,0,0,0,1.354.713A1.7,1.7,0,0,0,28.6-2.867V-6.625a1.675,1.675,0,0,0-1.644-.995Q25.117-7.62,25.117-4.636ZM35.8,0H33.247V-9.51H35.8ZM33.1-11.971a1.251,1.251,0,0,1,.382-.94,1.436,1.436,0,0,1,1.042-.369,1.44,1.44,0,0,1,1.037.369,1.244,1.244,0,0,1,.387.94,1.247,1.247,0,0,1-.391.949,1.443,1.443,0,0,1-1.033.369,1.443,1.443,0,0,1-1.033-.369A1.247,1.247,0,0,1,33.1-11.971Zm7.831.123V-9.51h1.626v1.863H40.929V-2.9a1.133,1.133,0,0,0,.2.756,1.015,1.015,0,0,0,.773.229,4.051,4.051,0,0,0,.747-.062V-.053a5.229,5.229,0,0,1-1.538.229,2.425,2.425,0,0,1-2.725-2.7V-7.646H37V-9.51h1.389v-2.338Zm2.382,7a5.64,5.64,0,0,1,.545-2.522,3.989,3.989,0,0,1,1.569-1.714A4.577,4.577,0,0,1,47.8-9.686a4.33,4.33,0,0,1,3.142,1.178,4.727,4.727,0,0,1,1.358,3.2l.018.65A4.97,4.97,0,0,1,51.1-1.147,4.247,4.247,0,0,1,47.819.176a4.268,4.268,0,0,1-3.283-1.318A5.058,5.058,0,0,1,43.31-4.729Zm2.54.18a3.555,3.555,0,0,0,.51,2.073,1.682,1.682,0,0,0,1.459.717,1.686,1.686,0,0,0,1.441-.709,3.89,3.89,0,0,0,.519-2.267,3.519,3.519,0,0,0-.519-2.06A1.686,1.686,0,0,0,47.8-7.638a1.658,1.658,0,0,0-1.441.726A3.955,3.955,0,0,0,45.85-4.662ZM59.227-7.128a6.9,6.9,0,0,0-.914-.07,1.86,1.86,0,0,0-1.89.976V0h-2.54V-9.51h2.4l.07,1.134a2.354,2.354,0,0,1,2.118-1.31,2.662,2.662,0,0,1,.791.114ZM63.191,0h-2.54V-9.51h2.54Zm-.747-13.368h2.769l-2.435,2.725H60.713ZM70.89,0a2.821,2.821,0,0,1-.255-.853,3.073,3.073,0,0,1-2.4,1.028A3.376,3.376,0,0,1,65.92-.633,2.6,2.6,0,0,1,65-2.672a2.687,2.687,0,0,1,1.121-2.32,5.529,5.529,0,0,1,3.239-.817H70.53v-.545a1.567,1.567,0,0,0-.338-1.055,1.331,1.331,0,0,0-1.068-.4,1.513,1.513,0,0,0-1.006.308,1.045,1.045,0,0,0-.365.844h-2.54a2.551,2.551,0,0,1,.51-1.529,3.37,3.37,0,0,1,1.441-1.1,5.253,5.253,0,0,1,2.092-.4,4.15,4.15,0,0,1,2.791.883,3.09,3.09,0,0,1,1.033,2.483V-2.2a4.546,4.546,0,0,0,.378,2.048V0Zm-2.1-1.767a2.188,2.188,0,0,0,1.037-.25,1.645,1.645,0,0,0,.7-.672V-4.324h-.949q-1.907,0-2.03,1.318l-.009.149a1.017,1.017,0,0,0,.334.782A1.3,1.3,0,0,0,68.79-1.767Zm11.391-.861a.818.818,0,0,0-.461-.734,5.241,5.241,0,0,0-1.481-.479q-3.393-.712-3.393-2.883A2.613,2.613,0,0,1,75.9-8.837a4.237,4.237,0,0,1,2.747-.848,4.56,4.56,0,0,1,2.9.853,2.687,2.687,0,0,1,1.085,2.215h-2.54a1.229,1.229,0,0,0-.352-.9,1.488,1.488,0,0,0-1.1-.356,1.52,1.52,0,0,0-.993.29.916.916,0,0,0-.352.738.783.783,0,0,0,.4.681,4.114,4.114,0,0,0,1.349.448,11.019,11.019,0,0,1,1.6.426A2.628,2.628,0,0,1,82.65-2.733a2.481,2.481,0,0,1-1.116,2.1,4.815,4.815,0,0,1-2.883.8A5.029,5.029,0,0,1,76.529-.25a3.561,3.561,0,0,1-1.455-1.169,2.716,2.716,0,0,1-.527-1.6h2.408a1.326,1.326,0,0,0,.5,1.037,1.987,1.987,0,0,0,1.248.36,1.839,1.839,0,0,0,1.1-.277A.861.861,0,0,0,80.181-2.628Z" transform="translate(1115.597 2872.541)" fill="#fff"/>
    <path id="Trazado_1015861" data-name="Trazado 1015861" d="M.58-4.825a5.731,5.731,0,0,1,1-3.542A3.237,3.237,0,0,1,4.307-9.686,2.913,2.913,0,0,1,6.6-8.648V-13.5H9.149V0H6.855L6.732-1.011A2.989,2.989,0,0,1,4.289.176,3.228,3.228,0,0,1,1.6-1.147,5.916,5.916,0,0,1,.58-4.825Zm2.54.189a3.754,3.754,0,0,0,.466,2.051,1.517,1.517,0,0,0,1.354.713A1.7,1.7,0,0,0,6.6-2.867V-6.625A1.675,1.675,0,0,0,4.957-7.62Q3.12-7.62,3.12-4.636ZM15.5.176a4.668,4.668,0,0,1-3.406-1.283,4.561,4.561,0,0,1-1.314-3.419v-.246a5.745,5.745,0,0,1,.554-2.562A4.064,4.064,0,0,1,12.9-9.075a4.4,4.4,0,0,1,2.316-.611,3.947,3.947,0,0,1,3.072,1.23,5,5,0,0,1,1.121,3.489v1.037H13.351a2.36,2.36,0,0,0,.743,1.494,2.245,2.245,0,0,0,1.569.563,2.742,2.742,0,0,0,2.294-1.063l1.248,1.4A3.813,3.813,0,0,1,17.657-.277,5.075,5.075,0,0,1,15.5.176Zm-.29-7.813a1.587,1.587,0,0,0-1.226.512,2.651,2.651,0,0,0-.6,1.466H16.91v-.2a1.891,1.891,0,0,0-.457-1.311A1.638,1.638,0,0,0,15.205-7.638ZM33.891-4.667a5.7,5.7,0,0,1-1,3.52A3.2,3.2,0,0,1,30.2.176a2.963,2.963,0,0,1-2.329-1V3.656H25.33V-9.51h2.355l.088.932a2.985,2.985,0,0,1,2.408-1.107,3.22,3.22,0,0,1,2.733,1.3A5.858,5.858,0,0,1,33.891-4.8Zm-2.54-.185A3.743,3.743,0,0,0,30.88-6.9a1.532,1.532,0,0,0-1.367-.721,1.663,1.663,0,0,0-1.644.914v3.894a1.692,1.692,0,0,0,1.661.94Q31.351-1.872,31.351-4.852Zm9.457-2.276a6.9,6.9,0,0,0-.914-.07A1.86,1.86,0,0,0,38-6.223V0h-2.54V-9.51h2.4l.07,1.134a2.354,2.354,0,0,1,2.118-1.31,2.662,2.662,0,0,1,.791.114Zm.348,2.285A5.64,5.64,0,0,1,41.7-7.365a3.989,3.989,0,0,1,1.569-1.714,4.577,4.577,0,0,1,2.377-.606,4.33,4.33,0,0,1,3.142,1.178,4.727,4.727,0,0,1,1.358,3.2l.018.65a4.97,4.97,0,0,1-1.222,3.511A4.247,4.247,0,0,1,45.664.176a4.268,4.268,0,0,1-3.283-1.318,5.058,5.058,0,0,1-1.226-3.586Zm2.54.18a3.555,3.555,0,0,0,.51,2.073,1.682,1.682,0,0,0,1.459.717,1.686,1.686,0,0,0,1.441-.709,3.89,3.89,0,0,0,.519-2.267,3.519,3.519,0,0,0-.519-2.06,1.686,1.686,0,0,0-1.459-.731,1.658,1.658,0,0,0-1.441.726A3.955,3.955,0,0,0,43.7-4.662Zm7.638-.163a5.731,5.731,0,0,1,1-3.542A3.237,3.237,0,0,1,55.06-9.686a2.913,2.913,0,0,1,2.294,1.037V-13.5H59.9V0H57.609l-.123-1.011A2.989,2.989,0,0,1,55.042.176a3.228,3.228,0,0,1-2.694-1.323A5.916,5.916,0,0,1,51.333-4.825Zm2.54.189a3.754,3.754,0,0,0,.466,2.051,1.517,1.517,0,0,0,1.354.713,1.7,1.7,0,0,0,1.661-.995V-6.625A1.675,1.675,0,0,0,55.71-7.62Q53.873-7.62,53.873-4.636ZM67.567-.967a3.185,3.185,0,0,1-2.6,1.143A3,3,0,0,1,62.631-.7a3.752,3.752,0,0,1-.822-2.575V-9.51h2.54v6.151q0,1.487,1.354,1.487a1.834,1.834,0,0,0,1.775-.9V-9.51h2.549V0H67.637ZM75.9-1.872a1.666,1.666,0,0,0,1.143-.387A1.355,1.355,0,0,0,77.5-3.287H79.88a3.258,3.258,0,0,1-.527,1.771A3.48,3.48,0,0,1,77.933-.268a4.442,4.442,0,0,1-1.991.444,4.129,4.129,0,0,1-3.217-1.3A5.13,5.13,0,0,1,71.548-4.7v-.167a5.071,5.071,0,0,1,1.169-3.507,4.08,4.08,0,0,1,3.208-1.31A4,4,0,0,1,78.786-8.67a3.594,3.594,0,0,1,1.094,2.7H77.5a1.745,1.745,0,0,0-.457-1.206,1.524,1.524,0,0,0-1.16-.464,1.53,1.53,0,0,0-1.34.647,3.749,3.749,0,0,0-.453,2.1v.264a3.8,3.8,0,0,0,.448,2.113A1.549,1.549,0,0,0,75.9-1.872Zm8.473-9.976V-9.51H86v1.863H84.371V-2.9a1.133,1.133,0,0,0,.2.756,1.015,1.015,0,0,0,.773.229,4.051,4.051,0,0,0,.747-.062V-.053a5.229,5.229,0,0,1-1.538.229,2.425,2.425,0,0,1-2.725-2.7V-7.646H80.442V-9.51h1.389v-2.338Zm2.382,7A5.64,5.64,0,0,1,87.3-7.365a3.989,3.989,0,0,1,1.569-1.714,4.577,4.577,0,0,1,2.377-.606,4.33,4.33,0,0,1,3.142,1.178,4.727,4.727,0,0,1,1.358,3.2l.018.65A4.97,4.97,0,0,1,94.54-1.147,4.247,4.247,0,0,1,91.262.176a4.268,4.268,0,0,1-3.283-1.318,5.058,5.058,0,0,1-1.226-3.586Zm2.54.18a3.555,3.555,0,0,0,.51,2.073,1.682,1.682,0,0,0,1.459.717A1.686,1.686,0,0,0,92.7-2.581a3.89,3.89,0,0,0,.519-2.267,3.519,3.519,0,0,0-.519-2.06,1.686,1.686,0,0,0-1.459-.731,1.658,1.658,0,0,0-1.441.726A3.955,3.955,0,0,0,89.293-4.662Z" transform="translate(1111.022 2892.143)" fill="#fff"/>
    <path id="Trazado_1015862" data-name="Trazado 1015862" d="M8.367-2.637H3.744L2.865,0H.062L4.825-12.8H7.269L12.059,0h-2.8ZM4.456-4.772h3.2L6.047-9.562ZM18.6-.967a3.185,3.185,0,0,1-2.6,1.143A3,3,0,0,1,13.66-.7a3.752,3.752,0,0,1-.822-2.575V-9.51h2.54v6.151q0,1.487,1.354,1.487a1.834,1.834,0,0,0,1.775-.9V-9.51h2.549V0H18.666Zm3.981-3.858a5.731,5.731,0,0,1,1-3.542A3.237,3.237,0,0,1,26.3-9.686,2.913,2.913,0,0,1,28.6-8.648V-13.5h2.549V0H28.852l-.123-1.011A2.989,2.989,0,0,1,26.286.176a3.228,3.228,0,0,1-2.694-1.323A5.916,5.916,0,0,1,22.577-4.825Zm2.54.189a3.754,3.754,0,0,0,.466,2.051,1.517,1.517,0,0,0,1.354.713A1.7,1.7,0,0,0,28.6-2.867V-6.625a1.675,1.675,0,0,0-1.644-.995Q25.117-7.62,25.117-4.636ZM35.8,0H33.247V-9.51H35.8ZM33.1-11.971a1.251,1.251,0,0,1,.382-.94,1.436,1.436,0,0,1,1.042-.369,1.44,1.44,0,0,1,1.037.369,1.244,1.244,0,0,1,.387.94,1.247,1.247,0,0,1-.391.949,1.443,1.443,0,0,1-1.033.369,1.443,1.443,0,0,1-1.033-.369A1.247,1.247,0,0,1,33.1-11.971Zm7.831.123V-9.51h1.626v1.863H40.929V-2.9a1.133,1.133,0,0,0,.2.756,1.015,1.015,0,0,0,.773.229,4.051,4.051,0,0,0,.747-.062V-.053a5.229,5.229,0,0,1-1.538.229,2.425,2.425,0,0,1-2.725-2.7V-7.646H37V-9.51h1.389v-2.338Zm2.382,7a5.64,5.64,0,0,1,.545-2.522,3.989,3.989,0,0,1,1.569-1.714A4.577,4.577,0,0,1,47.8-9.686a4.33,4.33,0,0,1,3.142,1.178,4.727,4.727,0,0,1,1.358,3.2l.018.65A4.97,4.97,0,0,1,51.1-1.147,4.247,4.247,0,0,1,47.819.176a4.268,4.268,0,0,1-3.283-1.318A5.058,5.058,0,0,1,43.31-4.729Zm2.54.18a3.555,3.555,0,0,0,.51,2.073,1.682,1.682,0,0,0,1.459.717,1.686,1.686,0,0,0,1.441-.709,3.89,3.89,0,0,0,.519-2.267,3.519,3.519,0,0,0-.519-2.06A1.686,1.686,0,0,0,47.8-7.638a1.658,1.658,0,0,0-1.441.726A3.955,3.955,0,0,0,45.85-4.662ZM59.227-7.128a6.9,6.9,0,0,0-.914-.07,1.86,1.86,0,0,0-1.89.976V0h-2.54V-9.51h2.4l.07,1.134a2.354,2.354,0,0,1,2.118-1.31,2.662,2.662,0,0,1,.791.114ZM63.191,0h-2.54V-9.51h2.54Zm-.747-13.368h2.769l-2.435,2.725H60.713ZM70.89,0a2.821,2.821,0,0,1-.255-.853,3.073,3.073,0,0,1-2.4,1.028A3.376,3.376,0,0,1,65.92-.633,2.6,2.6,0,0,1,65-2.672a2.687,2.687,0,0,1,1.121-2.32,5.529,5.529,0,0,1,3.239-.817H70.53v-.545a1.567,1.567,0,0,0-.338-1.055,1.331,1.331,0,0,0-1.068-.4,1.513,1.513,0,0,0-1.006.308,1.045,1.045,0,0,0-.365.844h-2.54a2.551,2.551,0,0,1,.51-1.529,3.37,3.37,0,0,1,1.441-1.1,5.253,5.253,0,0,1,2.092-.4,4.15,4.15,0,0,1,2.791.883,3.09,3.09,0,0,1,1.033,2.483V-2.2a4.546,4.546,0,0,0,.378,2.048V0Zm-2.1-1.767a2.188,2.188,0,0,0,1.037-.25,1.645,1.645,0,0,0,.7-.672V-4.324h-.949q-1.907,0-2.03,1.318l-.009.149a1.017,1.017,0,0,0,.334.782A1.3,1.3,0,0,0,68.79-1.767ZM79.117-4.825a5.731,5.731,0,0,1,1-3.542,3.237,3.237,0,0,1,2.729-1.318,2.913,2.913,0,0,1,2.294,1.037V-13.5h2.549V0H85.392l-.123-1.011A2.989,2.989,0,0,1,82.826.176a3.228,3.228,0,0,1-2.694-1.323A5.916,5.916,0,0,1,79.117-4.825Zm2.54.189a3.754,3.754,0,0,0,.466,2.051,1.517,1.517,0,0,0,1.354.713,1.7,1.7,0,0,0,1.661-.995V-6.625a1.675,1.675,0,0,0-1.644-.995Q81.657-7.62,81.657-4.636ZM94.032.176a4.668,4.668,0,0,1-3.406-1.283,4.561,4.561,0,0,1-1.314-3.419v-.246a5.745,5.745,0,0,1,.554-2.562,4.064,4.064,0,0,1,1.569-1.74,4.4,4.4,0,0,1,2.316-.611,3.947,3.947,0,0,1,3.072,1.23,5,5,0,0,1,1.121,3.489v1.037H91.888a2.36,2.36,0,0,0,.743,1.494,2.245,2.245,0,0,0,1.569.563,2.742,2.742,0,0,0,2.294-1.063l1.248,1.4A3.813,3.813,0,0,1,96.194-.277,5.075,5.075,0,0,1,94.032.176Zm-.29-7.813a1.587,1.587,0,0,0-1.226.512,2.651,2.651,0,0,0-.6,1.466h3.533v-.2a1.891,1.891,0,0,0-.457-1.311A1.638,1.638,0,0,0,93.742-7.638Z" transform="translate(395.14 2868.867)" fill="#122353"/>
    <path id="Trazado_1015863" data-name="Trazado 1015863" d="M9.536-4.667a5.7,5.7,0,0,1-1,3.52A3.2,3.2,0,0,1,5.845.176a2.963,2.963,0,0,1-2.329-1V3.656H.976V-9.51H3.331l.088.932A2.985,2.985,0,0,1,5.827-9.686a3.22,3.22,0,0,1,2.733,1.3A5.858,5.858,0,0,1,9.536-4.8ZM7-4.852A3.743,3.743,0,0,0,6.526-6.9,1.532,1.532,0,0,0,5.159-7.62a1.663,1.663,0,0,0-1.644.914v3.894a1.692,1.692,0,0,0,1.661.94Q7-1.872,7-4.852ZM13.79,0H11.241V-13.5H13.79Zm7.6,0a2.821,2.821,0,0,1-.255-.853,3.073,3.073,0,0,1-2.4,1.028,3.376,3.376,0,0,1-2.316-.809A2.6,2.6,0,0,1,15.5-2.672a2.687,2.687,0,0,1,1.121-2.32,5.529,5.529,0,0,1,3.239-.817h1.169v-.545a1.567,1.567,0,0,0-.338-1.055,1.331,1.331,0,0,0-1.068-.4A1.513,1.513,0,0,0,18.62-7.5a1.045,1.045,0,0,0-.365.844h-2.54a2.551,2.551,0,0,1,.51-1.529,3.37,3.37,0,0,1,1.441-1.1,5.253,5.253,0,0,1,2.092-.4,4.15,4.15,0,0,1,2.791.883,3.09,3.09,0,0,1,1.033,2.483V-2.2a4.546,4.546,0,0,0,.378,2.048V0Zm-2.1-1.767a2.188,2.188,0,0,0,1.037-.25,1.645,1.645,0,0,0,.7-.672V-4.324h-.949q-1.907,0-2.03,1.318l-.009.149a1.017,1.017,0,0,0,.334.782A1.3,1.3,0,0,0,19.292-1.767ZM27.87-9.51l.079,1.1a3.32,3.32,0,0,1,2.733-1.274,2.759,2.759,0,0,1,2.25.888,4.142,4.142,0,0,1,.756,2.654V0h-2.54V-6.082A1.648,1.648,0,0,0,30.8-7.255a1.574,1.574,0,0,0-1.169-.365,1.747,1.747,0,0,0-1.608.914V0h-2.54V-9.51ZM39.99.176a4.668,4.668,0,0,1-3.406-1.283,4.561,4.561,0,0,1-1.314-3.419v-.246a5.745,5.745,0,0,1,.554-2.562,4.064,4.064,0,0,1,1.569-1.74,4.4,4.4,0,0,1,2.316-.611,3.947,3.947,0,0,1,3.072,1.23A5,5,0,0,1,43.9-4.966v1.037H37.846a2.36,2.36,0,0,0,.743,1.494,2.245,2.245,0,0,0,1.569.563,2.742,2.742,0,0,0,2.294-1.063l1.248,1.4A3.813,3.813,0,0,1,42.152-.277,5.075,5.075,0,0,1,39.99.176ZM39.7-7.638a1.587,1.587,0,0,0-1.226.512,2.651,2.651,0,0,0-.6,1.466h3.533v-.2a1.891,1.891,0,0,0-.457-1.311A1.638,1.638,0,0,0,39.7-7.638Zm10.793,5.01a.818.818,0,0,0-.461-.734,5.241,5.241,0,0,0-1.481-.479q-3.393-.712-3.393-2.883a2.613,2.613,0,0,1,1.05-2.114,4.237,4.237,0,0,1,2.747-.848,4.56,4.56,0,0,1,2.9.853,2.687,2.687,0,0,1,1.085,2.215H50.4a1.229,1.229,0,0,0-.352-.9,1.488,1.488,0,0,0-1.1-.356,1.52,1.52,0,0,0-.993.29.916.916,0,0,0-.352.738.783.783,0,0,0,.4.681,4.114,4.114,0,0,0,1.349.448,11.019,11.019,0,0,1,1.6.426,2.628,2.628,0,0,1,2.013,2.558,2.481,2.481,0,0,1-1.116,2.1,4.815,4.815,0,0,1-2.883.8A5.029,5.029,0,0,1,46.841-.25a3.561,3.561,0,0,1-1.455-1.169,2.716,2.716,0,0,1-.527-1.6h2.408a1.326,1.326,0,0,0,.5,1.037,1.987,1.987,0,0,0,1.248.36,1.839,1.839,0,0,0,1.1-.277A.861.861,0,0,0,50.493-2.628Zm3.709-2.2a5.731,5.731,0,0,1,1-3.542,3.237,3.237,0,0,1,2.729-1.318,2.913,2.913,0,0,1,2.294,1.037V-13.5h2.549V0H60.478l-.123-1.011A2.989,2.989,0,0,1,57.911.176a3.228,3.228,0,0,1-2.694-1.323A5.916,5.916,0,0,1,54.2-4.825Zm2.54.189a3.754,3.754,0,0,0,.466,2.051,1.517,1.517,0,0,0,1.354.713,1.7,1.7,0,0,0,1.661-.995V-6.625a1.675,1.675,0,0,0-1.644-.995Q56.742-7.62,56.742-4.636ZM69.117.176a4.668,4.668,0,0,1-3.406-1.283A4.561,4.561,0,0,1,64.4-4.526v-.246a5.745,5.745,0,0,1,.554-2.562,4.064,4.064,0,0,1,1.569-1.74,4.4,4.4,0,0,1,2.316-.611,3.947,3.947,0,0,1,3.072,1.23,5,5,0,0,1,1.121,3.489v1.037H66.973a2.36,2.36,0,0,0,.743,1.494,2.245,2.245,0,0,0,1.569.563,2.742,2.742,0,0,0,2.294-1.063l1.248,1.4A3.813,3.813,0,0,1,71.279-.277,5.075,5.075,0,0,1,69.117.176Zm-.29-7.813a1.587,1.587,0,0,0-1.226.512A2.651,2.651,0,0,0,67-5.66h3.533v-.2a1.891,1.891,0,0,0-.457-1.311A1.638,1.638,0,0,0,68.827-7.638Zm14.08,5.766a1.666,1.666,0,0,0,1.143-.387,1.355,1.355,0,0,0,.457-1.028h2.382a3.258,3.258,0,0,1-.527,1.771A3.48,3.48,0,0,1,84.942-.268a4.442,4.442,0,0,1-1.991.444,4.129,4.129,0,0,1-3.217-1.3A5.13,5.13,0,0,1,78.557-4.7v-.167a5.071,5.071,0,0,1,1.169-3.507,4.08,4.08,0,0,1,3.208-1.31A4,4,0,0,1,85.794-8.67a3.594,3.594,0,0,1,1.094,2.7H84.507a1.745,1.745,0,0,0-.457-1.206,1.524,1.524,0,0,0-1.16-.464,1.53,1.53,0,0,0-1.34.647,3.749,3.749,0,0,0-.453,2.1v.264a3.8,3.8,0,0,0,.448,2.113A1.549,1.549,0,0,0,82.907-1.872ZM93.85,0a2.821,2.821,0,0,1-.255-.853A3.073,3.073,0,0,1,91.2.176a3.376,3.376,0,0,1-2.316-.809,2.6,2.6,0,0,1-.918-2.039,2.687,2.687,0,0,1,1.121-2.32A5.529,5.529,0,0,1,92.32-5.81h1.169v-.545a1.567,1.567,0,0,0-.338-1.055,1.331,1.331,0,0,0-1.068-.4,1.513,1.513,0,0,0-1.006.308,1.045,1.045,0,0,0-.365.844h-2.54a2.551,2.551,0,0,1,.51-1.529,3.37,3.37,0,0,1,1.441-1.1,5.253,5.253,0,0,1,2.092-.4,4.15,4.15,0,0,1,2.791.883,3.09,3.09,0,0,1,1.033,2.483V-2.2a4.546,4.546,0,0,0,.378,2.048V0Zm-2.1-1.767a2.188,2.188,0,0,0,1.037-.25,1.645,1.645,0,0,0,.7-.672V-4.324H92.54q-1.907,0-2.03,1.318l-.009.149a1.017,1.017,0,0,0,.334.782A1.3,1.3,0,0,0,91.749-1.767ZM100.67,0H98.121V-13.5h2.549Zm4.772,0h-2.549V-9.51h2.549Zm-2.7-11.971a1.251,1.251,0,0,1,.382-.94,1.436,1.436,0,0,1,1.042-.369,1.44,1.44,0,0,1,1.037.369,1.244,1.244,0,0,1,.387.94,1.247,1.247,0,0,1-.391.949,1.443,1.443,0,0,1-1.033.369,1.443,1.443,0,0,1-1.033-.369A1.247,1.247,0,0,1,102.744-11.971Zm4.395,7.146a5.731,5.731,0,0,1,1-3.542,3.237,3.237,0,0,1,2.729-1.318,2.913,2.913,0,0,1,2.294,1.037V-13.5h2.549V0h-2.294l-.123-1.011A2.989,2.989,0,0,1,110.848.176a3.228,3.228,0,0,1-2.694-1.323A5.916,5.916,0,0,1,107.139-4.825Zm2.54.189a3.754,3.754,0,0,0,.466,2.051,1.517,1.517,0,0,0,1.354.713,1.7,1.7,0,0,0,1.661-.995V-6.625a1.675,1.675,0,0,0-1.644-.995Q109.679-7.62,109.679-4.636ZM123.188,0a2.821,2.821,0,0,1-.255-.853,3.073,3.073,0,0,1-2.4,1.028,3.376,3.376,0,0,1-2.316-.809,2.6,2.6,0,0,1-.918-2.039,2.687,2.687,0,0,1,1.121-2.32,5.529,5.529,0,0,1,3.239-.817h1.169v-.545a1.567,1.567,0,0,0-.338-1.055,1.331,1.331,0,0,0-1.068-.4,1.513,1.513,0,0,0-1.006.308,1.045,1.045,0,0,0-.365.844h-2.54a2.551,2.551,0,0,1,.51-1.529,3.37,3.37,0,0,1,1.441-1.1,5.253,5.253,0,0,1,2.092-.4,4.15,4.15,0,0,1,2.791.883,3.09,3.09,0,0,1,1.033,2.483V-2.2a4.546,4.546,0,0,0,.378,2.048V0Zm-2.1-1.767a2.188,2.188,0,0,0,1.037-.25,1.645,1.645,0,0,0,.7-.672V-4.324h-.949q-1.907,0-2.03,1.318l-.009.149a1.017,1.017,0,0,0,.334.782A1.3,1.3,0,0,0,121.087-1.767Zm5.845-3.059a5.731,5.731,0,0,1,1-3.542,3.237,3.237,0,0,1,2.729-1.318,2.913,2.913,0,0,1,2.294,1.037V-13.5H135.5V0h-2.294l-.123-1.011A2.989,2.989,0,0,1,130.641.176a3.228,3.228,0,0,1-2.694-1.323A5.916,5.916,0,0,1,126.932-4.825Zm2.54.189a3.754,3.754,0,0,0,.466,2.051,1.517,1.517,0,0,0,1.354.713,1.7,1.7,0,0,0,1.661-.995V-6.625a1.675,1.675,0,0,0-1.644-.995Q129.472-7.62,129.472-4.636Z" transform="translate(377.945 2888.468)" fill="#122353"/>
    <path id="Trazado_1015864" data-name="Trazado 1015864" d="M8.367-2.637H3.744L2.865,0H.062L4.825-12.8H7.269L12.059,0h-2.8ZM4.456-4.772h3.2L6.047-9.562ZM18.6-.967a3.185,3.185,0,0,1-2.6,1.143A3,3,0,0,1,13.66-.7a3.752,3.752,0,0,1-.822-2.575V-9.51h2.54v6.151q0,1.487,1.354,1.487a1.834,1.834,0,0,0,1.775-.9V-9.51h2.549V0H18.666Zm3.981-3.858a5.731,5.731,0,0,1,1-3.542A3.237,3.237,0,0,1,26.3-9.686,2.913,2.913,0,0,1,28.6-8.648V-13.5h2.549V0H28.852l-.123-1.011A2.989,2.989,0,0,1,26.286.176a3.228,3.228,0,0,1-2.694-1.323A5.916,5.916,0,0,1,22.577-4.825Zm2.54.189a3.754,3.754,0,0,0,.466,2.051,1.517,1.517,0,0,0,1.354.713A1.7,1.7,0,0,0,28.6-2.867V-6.625a1.675,1.675,0,0,0-1.644-.995Q25.117-7.62,25.117-4.636ZM35.8,0H33.247V-9.51H35.8ZM33.1-11.971a1.251,1.251,0,0,1,.382-.94,1.436,1.436,0,0,1,1.042-.369,1.44,1.44,0,0,1,1.037.369,1.244,1.244,0,0,1,.387.94,1.247,1.247,0,0,1-.391.949,1.443,1.443,0,0,1-1.033.369,1.443,1.443,0,0,1-1.033-.369A1.247,1.247,0,0,1,33.1-11.971Zm7.831.123V-9.51h1.626v1.863H40.929V-2.9a1.133,1.133,0,0,0,.2.756,1.015,1.015,0,0,0,.773.229,4.051,4.051,0,0,0,.747-.062V-.053a5.229,5.229,0,0,1-1.538.229,2.425,2.425,0,0,1-2.725-2.7V-7.646H37V-9.51h1.389v-2.338Zm2.382,7a5.64,5.64,0,0,1,.545-2.522,3.989,3.989,0,0,1,1.569-1.714A4.577,4.577,0,0,1,47.8-9.686a4.33,4.33,0,0,1,3.142,1.178,4.727,4.727,0,0,1,1.358,3.2l.018.65A4.97,4.97,0,0,1,51.1-1.147,4.247,4.247,0,0,1,47.819.176a4.268,4.268,0,0,1-3.283-1.318A5.058,5.058,0,0,1,43.31-4.729Zm2.54.18a3.555,3.555,0,0,0,.51,2.073,1.682,1.682,0,0,0,1.459.717,1.686,1.686,0,0,0,1.441-.709,3.89,3.89,0,0,0,.519-2.267,3.519,3.519,0,0,0-.519-2.06A1.686,1.686,0,0,0,47.8-7.638a1.658,1.658,0,0,0-1.441.726A3.955,3.955,0,0,0,45.85-4.662ZM59.227-7.128a6.9,6.9,0,0,0-.914-.07,1.86,1.86,0,0,0-1.89.976V0h-2.54V-9.51h2.4l.07,1.134a2.354,2.354,0,0,1,2.118-1.31,2.662,2.662,0,0,1,.791.114ZM63.191,0h-2.54V-9.51h2.54Zm-.747-13.368h2.769l-2.435,2.725H60.713ZM70.89,0a2.821,2.821,0,0,1-.255-.853,3.073,3.073,0,0,1-2.4,1.028A3.376,3.376,0,0,1,65.92-.633,2.6,2.6,0,0,1,65-2.672a2.687,2.687,0,0,1,1.121-2.32,5.529,5.529,0,0,1,3.239-.817H70.53v-.545a1.567,1.567,0,0,0-.338-1.055,1.331,1.331,0,0,0-1.068-.4,1.513,1.513,0,0,0-1.006.308,1.045,1.045,0,0,0-.365.844h-2.54a2.551,2.551,0,0,1,.51-1.529,3.37,3.37,0,0,1,1.441-1.1,5.253,5.253,0,0,1,2.092-.4,4.15,4.15,0,0,1,2.791.883,3.09,3.09,0,0,1,1.033,2.483V-2.2a4.546,4.546,0,0,0,.378,2.048V0Zm-2.1-1.767a2.188,2.188,0,0,0,1.037-.25,1.645,1.645,0,0,0,.7-.672V-4.324h-.949q-1.907,0-2.03,1.318l-.009.149a1.017,1.017,0,0,0,.334.782A1.3,1.3,0,0,0,68.79-1.767Z" transform="translate(642.206 2872.541)" fill="#fff"/>
    <path id="Trazado_1015865" data-name="Trazado 1015865" d="M.58-4.825a5.731,5.731,0,0,1,1-3.542A3.237,3.237,0,0,1,4.307-9.686,2.913,2.913,0,0,1,6.6-8.648V-13.5H9.149V0H6.855L6.732-1.011A2.989,2.989,0,0,1,4.289.176,3.228,3.228,0,0,1,1.6-1.147,5.916,5.916,0,0,1,.58-4.825Zm2.54.189a3.754,3.754,0,0,0,.466,2.051,1.517,1.517,0,0,0,1.354.713A1.7,1.7,0,0,0,6.6-2.867V-6.625A1.675,1.675,0,0,0,4.957-7.62Q3.12-7.62,3.12-4.636ZM15.5.176a4.668,4.668,0,0,1-3.406-1.283,4.561,4.561,0,0,1-1.314-3.419v-.246a5.745,5.745,0,0,1,.554-2.562A4.064,4.064,0,0,1,12.9-9.075a4.4,4.4,0,0,1,2.316-.611,3.947,3.947,0,0,1,3.072,1.23,5,5,0,0,1,1.121,3.489v1.037H13.351a2.36,2.36,0,0,0,.743,1.494,2.245,2.245,0,0,0,1.569.563,2.742,2.742,0,0,0,2.294-1.063l1.248,1.4A3.813,3.813,0,0,1,17.657-.277,5.075,5.075,0,0,1,15.5.176Zm-.29-7.813a1.587,1.587,0,0,0-1.226.512,2.651,2.651,0,0,0-.6,1.466H16.91v-.2a1.891,1.891,0,0,0-.457-1.311A1.638,1.638,0,0,0,15.205-7.638ZM33.891-4.667a5.7,5.7,0,0,1-1,3.52A3.2,3.2,0,0,1,30.2.176a2.963,2.963,0,0,1-2.329-1V3.656H25.33V-9.51h2.355l.088.932a2.985,2.985,0,0,1,2.408-1.107,3.22,3.22,0,0,1,2.733,1.3A5.858,5.858,0,0,1,33.891-4.8Zm-2.54-.185A3.743,3.743,0,0,0,30.88-6.9a1.532,1.532,0,0,0-1.367-.721,1.663,1.663,0,0,0-1.644.914v3.894a1.692,1.692,0,0,0,1.661.94Q31.351-1.872,31.351-4.852Zm9.457-2.276a6.9,6.9,0,0,0-.914-.07A1.86,1.86,0,0,0,38-6.223V0h-2.54V-9.51h2.4l.07,1.134a2.354,2.354,0,0,1,2.118-1.31,2.662,2.662,0,0,1,.791.114Zm.348,2.285A5.64,5.64,0,0,1,41.7-7.365a3.989,3.989,0,0,1,1.569-1.714,4.577,4.577,0,0,1,2.377-.606,4.33,4.33,0,0,1,3.142,1.178,4.727,4.727,0,0,1,1.358,3.2l.018.65a4.97,4.97,0,0,1-1.222,3.511A4.247,4.247,0,0,1,45.664.176a4.268,4.268,0,0,1-3.283-1.318,5.058,5.058,0,0,1-1.226-3.586Zm2.54.18a3.555,3.555,0,0,0,.51,2.073,1.682,1.682,0,0,0,1.459.717,1.686,1.686,0,0,0,1.441-.709,3.89,3.89,0,0,0,.519-2.267,3.519,3.519,0,0,0-.519-2.06,1.686,1.686,0,0,0-1.459-.731,1.658,1.658,0,0,0-1.441.726A3.955,3.955,0,0,0,43.7-4.662Zm11.988,2.79a1.666,1.666,0,0,0,1.143-.387,1.355,1.355,0,0,0,.457-1.028h2.382a3.258,3.258,0,0,1-.527,1.771A3.48,3.48,0,0,1,57.718-.268a4.442,4.442,0,0,1-1.991.444,4.129,4.129,0,0,1-3.217-1.3A5.13,5.13,0,0,1,51.333-4.7v-.167A5.071,5.071,0,0,1,52.5-8.376a4.08,4.08,0,0,1,3.208-1.31A4,4,0,0,1,58.571-8.67a3.594,3.594,0,0,1,1.094,2.7H57.283a1.745,1.745,0,0,0-.457-1.206,1.524,1.524,0,0,0-1.16-.464,1.53,1.53,0,0,0-1.34.647,3.749,3.749,0,0,0-.453,2.1v.264a3.8,3.8,0,0,0,.448,2.113A1.549,1.549,0,0,0,55.684-1.872ZM65.492.176a4.668,4.668,0,0,1-3.406-1.283,4.561,4.561,0,0,1-1.314-3.419v-.246a5.745,5.745,0,0,1,.554-2.562A4.064,4.064,0,0,1,62.9-9.075a4.4,4.4,0,0,1,2.316-.611,3.947,3.947,0,0,1,3.072,1.23A5,5,0,0,1,69.4-4.966v1.037H63.348a2.36,2.36,0,0,0,.743,1.494,2.245,2.245,0,0,0,1.569.563,2.742,2.742,0,0,0,2.294-1.063l1.248,1.4A3.813,3.813,0,0,1,67.654-.277,5.075,5.075,0,0,1,65.492.176ZM65.2-7.638a1.587,1.587,0,0,0-1.226.512,2.651,2.651,0,0,0-.6,1.466h3.533v-.2a1.891,1.891,0,0,0-.457-1.311A1.638,1.638,0,0,0,65.2-7.638ZM76-2.628a.818.818,0,0,0-.461-.734,5.241,5.241,0,0,0-1.481-.479Q70.66-4.553,70.66-6.724a2.613,2.613,0,0,1,1.05-2.114,4.237,4.237,0,0,1,2.747-.848,4.56,4.56,0,0,1,2.9.853,2.687,2.687,0,0,1,1.085,2.215H75.9a1.229,1.229,0,0,0-.352-.9,1.488,1.488,0,0,0-1.1-.356,1.52,1.52,0,0,0-.993.29.916.916,0,0,0-.352.738.783.783,0,0,0,.4.681,4.114,4.114,0,0,0,1.349.448,11.019,11.019,0,0,1,1.6.426,2.628,2.628,0,0,1,2.013,2.558,2.481,2.481,0,0,1-1.116,2.1,4.815,4.815,0,0,1-2.883.8A5.029,5.029,0,0,1,72.343-.25a3.561,3.561,0,0,1-1.455-1.169,2.716,2.716,0,0,1-.527-1.6H72.77a1.326,1.326,0,0,0,.5,1.037,1.987,1.987,0,0,0,1.248.36,1.839,1.839,0,0,0,1.1-.277A.861.861,0,0,0,76-2.628ZM79.7-4.843a5.64,5.64,0,0,1,.545-2.522,3.989,3.989,0,0,1,1.569-1.714A4.577,4.577,0,0,1,84.2-9.686a4.33,4.33,0,0,1,3.142,1.178,4.727,4.727,0,0,1,1.358,3.2l.018.65a4.97,4.97,0,0,1-1.222,3.511A4.247,4.247,0,0,1,84.213.176,4.268,4.268,0,0,1,80.93-1.143,5.058,5.058,0,0,1,79.7-4.729Zm2.54.18a3.555,3.555,0,0,0,.51,2.073,1.682,1.682,0,0,0,1.459.717,1.686,1.686,0,0,0,1.441-.709,3.89,3.89,0,0,0,.519-2.267,3.519,3.519,0,0,0-.519-2.06A1.686,1.686,0,0,0,84.2-7.638a1.658,1.658,0,0,0-1.441.726A3.955,3.955,0,0,0,82.244-4.662ZM95.428-2.628a.818.818,0,0,0-.461-.734,5.241,5.241,0,0,0-1.481-.479q-3.393-.712-3.393-2.883a2.613,2.613,0,0,1,1.05-2.114,4.237,4.237,0,0,1,2.747-.848,4.56,4.56,0,0,1,2.9.853,2.687,2.687,0,0,1,1.085,2.215h-2.54a1.229,1.229,0,0,0-.352-.9,1.488,1.488,0,0,0-1.1-.356,1.52,1.52,0,0,0-.993.29.916.916,0,0,0-.352.738.783.783,0,0,0,.4.681,4.114,4.114,0,0,0,1.349.448,11.019,11.019,0,0,1,1.6.426A2.628,2.628,0,0,1,97.9-2.733a2.481,2.481,0,0,1-1.116,2.1,4.815,4.815,0,0,1-2.883.8A5.029,5.029,0,0,1,91.776-.25a3.561,3.561,0,0,1-1.455-1.169,2.716,2.716,0,0,1-.527-1.6H92.2a1.326,1.326,0,0,0,.5,1.037,1.987,1.987,0,0,0,1.248.36,1.839,1.839,0,0,0,1.1-.277A.861.861,0,0,0,95.428-2.628Z" transform="translate(632.194 2892.143)" fill="#fff"/>
    <path id="Trazado_1015866" data-name="Trazado 1015866" d="M8.367-2.637H3.744L2.865,0H.062L4.825-12.8H7.269L12.059,0h-2.8ZM4.456-4.772h3.2L6.047-9.562ZM18.6-.967a3.185,3.185,0,0,1-2.6,1.143A3,3,0,0,1,13.66-.7a3.752,3.752,0,0,1-.822-2.575V-9.51h2.54v6.151q0,1.487,1.354,1.487a1.834,1.834,0,0,0,1.775-.9V-9.51h2.549V0H18.666Zm3.981-3.858a5.731,5.731,0,0,1,1-3.542A3.237,3.237,0,0,1,26.3-9.686,2.913,2.913,0,0,1,28.6-8.648V-13.5h2.549V0H28.852l-.123-1.011A2.989,2.989,0,0,1,26.286.176a3.228,3.228,0,0,1-2.694-1.323A5.916,5.916,0,0,1,22.577-4.825Zm2.54.189a3.754,3.754,0,0,0,.466,2.051,1.517,1.517,0,0,0,1.354.713A1.7,1.7,0,0,0,28.6-2.867V-6.625a1.675,1.675,0,0,0-1.644-.995Q25.117-7.62,25.117-4.636ZM35.8,0H33.247V-9.51H35.8ZM33.1-11.971a1.251,1.251,0,0,1,.382-.94,1.436,1.436,0,0,1,1.042-.369,1.44,1.44,0,0,1,1.037.369,1.244,1.244,0,0,1,.387.94,1.247,1.247,0,0,1-.391.949,1.443,1.443,0,0,1-1.033.369,1.443,1.443,0,0,1-1.033-.369A1.247,1.247,0,0,1,33.1-11.971Zm7.831.123V-9.51h1.626v1.863H40.929V-2.9a1.133,1.133,0,0,0,.2.756,1.015,1.015,0,0,0,.773.229,4.051,4.051,0,0,0,.747-.062V-.053a5.229,5.229,0,0,1-1.538.229,2.425,2.425,0,0,1-2.725-2.7V-7.646H37V-9.51h1.389v-2.338Zm2.382,7a5.64,5.64,0,0,1,.545-2.522,3.989,3.989,0,0,1,1.569-1.714A4.577,4.577,0,0,1,47.8-9.686a4.33,4.33,0,0,1,3.142,1.178,4.727,4.727,0,0,1,1.358,3.2l.018.65A4.97,4.97,0,0,1,51.1-1.147,4.247,4.247,0,0,1,47.819.176a4.268,4.268,0,0,1-3.283-1.318A5.058,5.058,0,0,1,43.31-4.729Zm2.54.18a3.555,3.555,0,0,0,.51,2.073,1.682,1.682,0,0,0,1.459.717,1.686,1.686,0,0,0,1.441-.709,3.89,3.89,0,0,0,.519-2.267,3.519,3.519,0,0,0-.519-2.06A1.686,1.686,0,0,0,47.8-7.638a1.658,1.658,0,0,0-1.441.726A3.955,3.955,0,0,0,45.85-4.662ZM59.227-7.128a6.9,6.9,0,0,0-.914-.07,1.86,1.86,0,0,0-1.89.976V0h-2.54V-9.51h2.4l.07,1.134a2.354,2.354,0,0,1,2.118-1.31,2.662,2.662,0,0,1,.791.114ZM63.191,0h-2.54V-9.51h2.54Zm-.747-13.368h2.769l-2.435,2.725H60.713ZM70.89,0a2.821,2.821,0,0,1-.255-.853,3.073,3.073,0,0,1-2.4,1.028A3.376,3.376,0,0,1,65.92-.633,2.6,2.6,0,0,1,65-2.672a2.687,2.687,0,0,1,1.121-2.32,5.529,5.529,0,0,1,3.239-.817H70.53v-.545a1.567,1.567,0,0,0-.338-1.055,1.331,1.331,0,0,0-1.068-.4,1.513,1.513,0,0,0-1.006.308,1.045,1.045,0,0,0-.365.844h-2.54a2.551,2.551,0,0,1,.51-1.529,3.37,3.37,0,0,1,1.441-1.1,5.253,5.253,0,0,1,2.092-.4,4.15,4.15,0,0,1,2.791.883,3.09,3.09,0,0,1,1.033,2.483V-2.2a4.546,4.546,0,0,0,.378,2.048V0Zm-2.1-1.767a2.188,2.188,0,0,0,1.037-.25,1.645,1.645,0,0,0,.7-.672V-4.324h-.949q-1.907,0-2.03,1.318l-.009.149a1.017,1.017,0,0,0,.334.782A1.3,1.3,0,0,0,68.79-1.767Zm11.391-.861a.818.818,0,0,0-.461-.734,5.241,5.241,0,0,0-1.481-.479q-3.393-.712-3.393-2.883A2.613,2.613,0,0,1,75.9-8.837a4.237,4.237,0,0,1,2.747-.848,4.56,4.56,0,0,1,2.9.853,2.687,2.687,0,0,1,1.085,2.215h-2.54a1.229,1.229,0,0,0-.352-.9,1.488,1.488,0,0,0-1.1-.356,1.52,1.52,0,0,0-.993.29.916.916,0,0,0-.352.738.783.783,0,0,0,.4.681,4.114,4.114,0,0,0,1.349.448,11.019,11.019,0,0,1,1.6.426A2.628,2.628,0,0,1,82.65-2.733a2.481,2.481,0,0,1-1.116,2.1,4.815,4.815,0,0,1-2.883.8A5.029,5.029,0,0,1,76.529-.25a3.561,3.561,0,0,1-1.455-1.169,2.716,2.716,0,0,1-.527-1.6h2.408a1.326,1.326,0,0,0,.5,1.037,1.987,1.987,0,0,0,1.248.36,1.839,1.839,0,0,0,1.1-.277A.861.861,0,0,0,80.181-2.628Z" transform="translate(876.485 2872.541)" fill="#fff"/>
    <path id="Trazado_1015867" data-name="Trazado 1015867" d="M.58-4.825a5.731,5.731,0,0,1,1-3.542A3.237,3.237,0,0,1,4.307-9.686,2.913,2.913,0,0,1,6.6-8.648V-13.5H9.149V0H6.855L6.732-1.011A2.989,2.989,0,0,1,4.289.176,3.228,3.228,0,0,1,1.6-1.147,5.916,5.916,0,0,1,.58-4.825Zm2.54.189a3.754,3.754,0,0,0,.466,2.051,1.517,1.517,0,0,0,1.354.713A1.7,1.7,0,0,0,6.6-2.867V-6.625A1.675,1.675,0,0,0,4.957-7.62Q3.12-7.62,3.12-4.636ZM15.5.176a4.668,4.668,0,0,1-3.406-1.283,4.561,4.561,0,0,1-1.314-3.419v-.246a5.745,5.745,0,0,1,.554-2.562A4.064,4.064,0,0,1,12.9-9.075a4.4,4.4,0,0,1,2.316-.611,3.947,3.947,0,0,1,3.072,1.23,5,5,0,0,1,1.121,3.489v1.037H13.351a2.36,2.36,0,0,0,.743,1.494,2.245,2.245,0,0,0,1.569.563,2.742,2.742,0,0,0,2.294-1.063l1.248,1.4A3.813,3.813,0,0,1,17.657-.277,5.075,5.075,0,0,1,15.5.176Zm-.29-7.813a1.587,1.587,0,0,0-1.226.512,2.651,2.651,0,0,0-.6,1.466H16.91v-.2a1.891,1.891,0,0,0-.457-1.311A1.638,1.638,0,0,0,15.205-7.638ZM33.891-4.667a5.7,5.7,0,0,1-1,3.52A3.2,3.2,0,0,1,30.2.176a2.963,2.963,0,0,1-2.329-1V3.656H25.33V-9.51h2.355l.088.932a2.985,2.985,0,0,1,2.408-1.107,3.22,3.22,0,0,1,2.733,1.3A5.858,5.858,0,0,1,33.891-4.8Zm-2.54-.185A3.743,3.743,0,0,0,30.88-6.9a1.532,1.532,0,0,0-1.367-.721,1.663,1.663,0,0,0-1.644.914v3.894a1.692,1.692,0,0,0,1.661.94Q31.351-1.872,31.351-4.852Zm9.457-2.276a6.9,6.9,0,0,0-.914-.07A1.86,1.86,0,0,0,38-6.223V0h-2.54V-9.51h2.4l.07,1.134a2.354,2.354,0,0,1,2.118-1.31,2.662,2.662,0,0,1,.791.114Zm.348,2.285A5.64,5.64,0,0,1,41.7-7.365a3.989,3.989,0,0,1,1.569-1.714,4.577,4.577,0,0,1,2.377-.606,4.33,4.33,0,0,1,3.142,1.178,4.727,4.727,0,0,1,1.358,3.2l.018.65a4.97,4.97,0,0,1-1.222,3.511A4.247,4.247,0,0,1,45.664.176a4.268,4.268,0,0,1-3.283-1.318,5.058,5.058,0,0,1-1.226-3.586Zm2.54.18a3.555,3.555,0,0,0,.51,2.073,1.682,1.682,0,0,0,1.459.717,1.686,1.686,0,0,0,1.441-.709,3.89,3.89,0,0,0,.519-2.267,3.519,3.519,0,0,0-.519-2.06,1.686,1.686,0,0,0-1.459-.731,1.658,1.658,0,0,0-1.441.726A3.955,3.955,0,0,0,43.7-4.662ZM55.03-3.1,56.8-9.51h2.654L56.243,0H53.817L50.609-9.51h2.654ZM64.836.176a4.668,4.668,0,0,1-3.406-1.283,4.561,4.561,0,0,1-1.314-3.419v-.246a5.745,5.745,0,0,1,.554-2.562,4.064,4.064,0,0,1,1.569-1.74,4.4,4.4,0,0,1,2.316-.611,3.947,3.947,0,0,1,3.072,1.23,5,5,0,0,1,1.121,3.489v1.037H62.692a2.36,2.36,0,0,0,.743,1.494A2.245,2.245,0,0,0,65-1.872,2.742,2.742,0,0,0,67.3-2.936l1.248,1.4A3.813,3.813,0,0,1,67-.277,5.075,5.075,0,0,1,64.836.176Zm-.29-7.813a1.587,1.587,0,0,0-1.226.512,2.651,2.651,0,0,0-.6,1.466h3.533v-.2a1.891,1.891,0,0,0-.457-1.311A1.638,1.638,0,0,0,64.546-7.638ZM74.566.176A4.668,4.668,0,0,1,71.16-1.107a4.561,4.561,0,0,1-1.314-3.419v-.246A5.745,5.745,0,0,1,70.4-7.334a4.064,4.064,0,0,1,1.569-1.74,4.4,4.4,0,0,1,2.316-.611,3.947,3.947,0,0,1,3.072,1.23,5,5,0,0,1,1.121,3.489v1.037H72.421a2.36,2.36,0,0,0,.743,1.494,2.245,2.245,0,0,0,1.569.563,2.742,2.742,0,0,0,2.294-1.063l1.248,1.4A3.813,3.813,0,0,1,76.728-.277,5.075,5.075,0,0,1,74.566.176Zm-.29-7.813a1.587,1.587,0,0,0-1.226.512,2.651,2.651,0,0,0-.6,1.466h3.533v-.2a1.891,1.891,0,0,0-.457-1.311A1.638,1.638,0,0,0,74.276-7.638Zm5.247,2.813a5.731,5.731,0,0,1,1-3.542A3.237,3.237,0,0,1,83.25-9.686a2.913,2.913,0,0,1,2.294,1.037V-13.5h2.549V0H85.8l-.123-1.011A2.989,2.989,0,0,1,83.232.176a3.228,3.228,0,0,1-2.694-1.323A5.916,5.916,0,0,1,79.523-4.825Zm2.54.189a3.754,3.754,0,0,0,.466,2.051,1.517,1.517,0,0,0,1.354.713,1.7,1.7,0,0,0,1.661-.995V-6.625A1.675,1.675,0,0,0,83.9-7.62Q82.063-7.62,82.063-4.636Zm7.6-.207a5.64,5.64,0,0,1,.545-2.522,3.989,3.989,0,0,1,1.569-1.714,4.577,4.577,0,0,1,2.377-.606A4.33,4.33,0,0,1,97.3-8.508a4.727,4.727,0,0,1,1.358,3.2l.018.65a4.97,4.97,0,0,1-1.222,3.511A4.247,4.247,0,0,1,94.174.176a4.268,4.268,0,0,1-3.283-1.318,5.058,5.058,0,0,1-1.226-3.586Zm2.54.18a3.555,3.555,0,0,0,.51,2.073,1.682,1.682,0,0,0,1.459.717,1.686,1.686,0,0,0,1.441-.709,3.89,3.89,0,0,0,.519-2.267,3.519,3.519,0,0,0-.519-2.06,1.686,1.686,0,0,0-1.459-.731,1.658,1.658,0,0,0-1.441.726A3.955,3.955,0,0,0,92.206-4.662Zm13.377-2.465a6.9,6.9,0,0,0-.914-.07,1.86,1.86,0,0,0-1.89.976V0h-2.54V-9.51h2.4l.07,1.134a2.354,2.354,0,0,1,2.118-1.31,2.662,2.662,0,0,1,.791.114Zm5.455,7.3a4.668,4.668,0,0,1-3.406-1.283,4.561,4.561,0,0,1-1.314-3.419v-.246a5.745,5.745,0,0,1,.554-2.562,4.064,4.064,0,0,1,1.569-1.74,4.4,4.4,0,0,1,2.316-.611,3.947,3.947,0,0,1,3.072,1.23,5,5,0,0,1,1.121,3.489v1.037h-6.056a2.36,2.36,0,0,0,.743,1.494,2.245,2.245,0,0,0,1.569.563A2.742,2.742,0,0,0,113.5-2.936l1.248,1.4A3.813,3.813,0,0,1,113.2-.277,5.075,5.075,0,0,1,111.037.176Zm-.29-7.813a1.587,1.587,0,0,0-1.226.512,2.651,2.651,0,0,0-.6,1.466h3.533v-.2A1.891,1.891,0,0,0,112-7.174,1.638,1.638,0,0,0,110.747-7.638Zm10.793,5.01a.818.818,0,0,0-.461-.734,5.241,5.241,0,0,0-1.481-.479q-3.393-.712-3.393-2.883a2.613,2.613,0,0,1,1.05-2.114A4.237,4.237,0,0,1,120-9.686a4.56,4.56,0,0,1,2.9.853,2.687,2.687,0,0,1,1.085,2.215h-2.54a1.229,1.229,0,0,0-.352-.9,1.488,1.488,0,0,0-1.1-.356,1.52,1.52,0,0,0-.993.29.916.916,0,0,0-.352.738.783.783,0,0,0,.4.681,4.114,4.114,0,0,0,1.349.448,11.019,11.019,0,0,1,1.6.426,2.628,2.628,0,0,1,2.013,2.558,2.481,2.481,0,0,1-1.116,2.1,4.815,4.815,0,0,1-2.883.8,5.029,5.029,0,0,1-2.123-.426,3.561,3.561,0,0,1-1.455-1.169,2.716,2.716,0,0,1-.527-1.6h2.408a1.326,1.326,0,0,0,.5,1.037,1.987,1.987,0,0,0,1.248.36,1.839,1.839,0,0,0,1.1-.277A.861.861,0,0,0,121.54-2.628Z" transform="translate(858.169 2892.143)" fill="#fff"/>
    <g id="Grupo_1195185" data-name="Grupo 1195185" transform="translate(279.711 2747)" clip-path="url(#clip-path)">
      <path id="Trazado_1015286" data-name="Trazado 1015286" d="M150.193,31.038h-2.721a1.987,1.987,0,0,1-1.879-1.307,3.079,3.079,0,0,0-5.679,0,1.987,1.987,0,0,1-1.879,1.307h-2.718a.309.309,0,0,0-.3.3v3.642a.307.307,0,0,0,.3.3h14.875a.306.306,0,0,0,.3-.3V31.343a.307.307,0,0,0-.3-.3Zm-24.587,4.686a4.91,4.91,0,1,0,0,6.944,4.911,4.911,0,0,0,0-6.944m-3.472-3.163A6.635,6.635,0,1,1,115.5,39.2a6.636,6.636,0,0,1,6.634-6.635m1.189,4.756a.861.861,0,1,1,1.277,1.156l-2.36,2.6a.861.861,0,0,1-1.217.055.713.713,0,0,1-.078-.082l-1.291-1.542a.86.86,0,1,1,1.2-1.233.808.808,0,0,1,.114.136l.656.785,1.7-1.871Zm6.547-5.122,1.243.839a1.819,1.819,0,0,1,.756,1.1h1.421V32.194ZM115.19,47.015l-2.458,5.476,2.512-.3a.865.865,0,0,1,.754.3l1.65,1.778,2.211-4.914-.464-.214-2.061-.176a1.817,1.817,0,0,1-1.361-.8Zm9.217,2.345,2.209,4.914,1.651-1.778a.861.861,0,0,1,.762-.3l2.513.3-2.464-5.476-.784,1.159a1.816,1.816,0,0,1-1.358.8l-2.083.182ZM122.86,48.19l-.726.329c-.071,0-2-.956-2.293-1.036-.408-.109-2.343-.2-2.414-.238s-1.059-1.648-1.377-1.968c-.3-.3-1.929-1.3-1.971-1.378s-.13-2-.239-2.413-1.034-2.182-1.034-2.294.927-1.893,1.034-2.294.2-2.342.239-2.414,1.651-1.061,1.966-1.375,1.306-1.926,1.38-1.971,2-.13,2.414-.239,2.18-1.034,2.293-1.034,1.892.927,2.293,1.034,2.342.2,2.414.239,1.128,1.721,1.378,1.971c.307.307,1.925,1.3,1.971,1.375.026.045.142,2.073.236,2.414.107.4,1.035,2.182,1.035,2.294s-.928,1.895-1.035,2.294-.2,2.34-.236,2.413-1.673,1.078-1.971,1.378-1.306,1.926-1.378,1.969-2,.129-2.414.239l-1.561.709Zm13.532,27.776a.862.862,0,1,1,0-1.723h12.416a.862.862,0,0,1,0,1.723Zm0-7.79a.862.862,0,1,1,0-1.723h7.18a.862.862,0,1,1,0,1.723Zm0-7.79a.862.862,0,1,1,0-1.723h7.1a.862.862,0,1,1,0,1.723Zm-.361-7.792a.862.862,0,0,1-.07-1.722.663.663,0,0,1,.07,0h12.385a.862.862,0,0,1,.07,1.722H136.03Zm-1.49-7.8a.862.862,0,0,1,0-1.723h23.038a.862.862,0,0,1,0,1.723Zm-2.464,12.637a.862.862,0,1,1,1.277,1.157l-2.732,3.016a.86.86,0,0,1-1.215.056,1.017,1.017,0,0,1-.08-.083L127.835,59.8a.86.86,0,1,1,1.3-1.132.243.243,0,0,1,.023.027L130,59.719Zm0,7.79a.862.862,0,1,1,1.277,1.159L130.621,69.4a.858.858,0,0,1-1.295-.027l-1.492-1.784a.86.86,0,1,1,1.276-1.154c.015.016.029.033.043.05L130,67.51l2.069-2.28Zm0,7.79a.862.862,0,1,1,1.277,1.159l-2.732,3.015a.86.86,0,0,1-1.215.056,1.016,1.016,0,0,1-.08-.083l-1.492-1.784a.86.86,0,0,1,1.319-1.1L130,75.3l2.069-2.28ZM160.9,60.531l-3.821,3.821a.862.862,0,0,1-1.217,0l-1.385-1.381a.481.481,0,0,0-.681.68l2.323,2.323a.5.5,0,0,0,.708,0h0l4.757-4.757a.481.481,0,0,0-.68-.681Zm-4.43,1.988,3.21-3.21a2.207,2.207,0,0,1,3.119,3.124l-4.756,4.757a2.226,2.226,0,0,1-3.145,0l-2.323-2.322a2.207,2.207,0,0,1,3.124-3.119l.776.776ZM162.4,51.835a12.316,12.316,0,0,1,1.941.948V33.753a1.562,1.562,0,0,0-1.561-1.561H152.221v1.944h9.325a.863.863,0,0,1,.862.862V51.844Zm-10.486.833a12.226,12.226,0,0,0,8.764,22.527V82.03H124.827V54.486l.754,1.674a.858.858,0,0,0,1.412.233l2.272-2.443,3.59.426a.863.863,0,0,0,.884-1.208l-3.312-7.348c.709-.485,1.4-.819,1.482-1.824l.176-2.064L133,39.971a1.762,1.762,0,0,0,0-1.544l-.912-1.947-.049-.626H133.5a2.031,2.031,0,0,0,1.83,1.154h14.868a2.034,2.034,0,0,0,1.831-1.154h8.66V51.329a12.176,12.176,0,0,0-8.765,1.339m.9,1.464a.959.959,0,0,1-.1.058,10.506,10.506,0,1,0,14.442,3.881,1.056,1.056,0,0,1-.066-.114,10.467,10.467,0,0,0-2.4-2.813,10.284,10.284,0,0,0-3.461-1.886c-.163-.053-.329-.1-.5-.142a10.468,10.468,0,0,0-7.926,1.021Zm.943,1.754a6.236,6.236,0,1,0,.006,0h-.006Zm.909,1.461a6.5,6.5,0,1,1-.115.064,1.056,1.056,0,0,0,.115-.064M167.5,77.127a1.8,1.8,0,0,0-1.374.184,1.821,1.821,0,0,0-.663,2.471l4.645,8.034a1.81,1.81,0,0,0,3.136-1.808L168.6,77.966a1.791,1.791,0,0,0-1.1-.839Zm-3.152,4.149v2.862a1.562,1.562,0,0,1-1.563,1.562H122.722a1.562,1.562,0,0,1-1.562-1.562V50.66l.257-.568a1.748,1.748,0,0,0,1.428,0l.256.568V82.889a.861.861,0,0,0,.861.861h37.584a.862.862,0,0,0,.862-.861V76.216l1.16,2.009a3.506,3.506,0,0,0,.38,2.351l.4.7Zm3.863-5.729a3.52,3.52,0,0,1,1.875,1.561l4.648,8.049a3.529,3.529,0,0,1-5.972,3.761c-.048-.076-.092-.154-.133-.233l-2.556-4.426a3.287,3.287,0,0,1-3.28,3.163H122.722a3.289,3.289,0,0,1-3.282-3.282V54.491l-.753,1.673a.86.86,0,0,1-1.138.435.869.869,0,0,1-.282-.2L115,53.953l-3.588.426a.864.864,0,0,1-.955-.762.878.878,0,0,1,.069-.445l3.308-7.353c-.709-.485-1.4-.818-1.483-1.824l-.18-2.082-.909-1.944a1.762,1.762,0,0,1,0-1.544l.917-1.966.175-2.065a1.821,1.821,0,0,1,.8-1.363l1.689-1.155,1.126-1.667a1.818,1.818,0,0,1,1.361-.8l2.081-.18,1.949-.906a1.77,1.77,0,0,1,1.544,0l1.964.917,2.059.174a1.814,1.814,0,0,1,1.359.8l.173.256h5.02a2.035,2.035,0,0,1,1.836-1.149h2.723a.274.274,0,0,0,.269-.184,4.792,4.792,0,0,1,8.893,0,.273.273,0,0,0,.269.184h2.721a2.034,2.034,0,0,1,1.831,1.156h10.765a3.291,3.291,0,0,1,3.283,3.282v20.3a12.246,12.246,0,0,1,.236,18.2l1.9,3.293Zm-2.95.268a3.521,3.521,0,0,0-.767.6L163.276,74.3a12.394,12.394,0,0,0,1.673-.964l1.221,2.114a3.493,3.493,0,0,0-.906.366" transform="translate(24.82 5.872)" fill="#fff" fill-rule="evenodd"/>
      <path id="Trazado_1015287" data-name="Trazado 1015287" d="M558.812,30.437h-8.994v-.9a1.13,1.13,0,0,0-1.129-1.129h-5.305a5.881,5.881,0,0,0-10.837,0H527.24a1.129,1.129,0,0,0-1.129,1.129v.9H515.2a3.9,3.9,0,0,0-3.961,3.821v28.3a13.7,13.7,0,0,0-.472,15.419L507.819,80.7a2.452,2.452,0,0,0-2.6.436l-7.588,7a2.286,2.286,0,0,0-.051,3.326l2.738,2.685a2.449,2.449,0,0,0,3.334.049l7.588-7a2.294,2.294,0,0,0,.7-1.237,4,4,0,0,0,3.265,1.661h43.609a3.9,3.9,0,0,0,3.961-3.821V34.258a3.9,3.9,0,0,0-3.961-3.821m-30.442.229h4.992a1.129,1.129,0,0,0,1.1-.863,3.615,3.615,0,0,1,7.011,0,1.128,1.128,0,0,0,1.1.863h4.991V35.6H528.369Zm20.319,7.191a1.129,1.129,0,0,0,1.113-.949h5.953V74.371l-5.777-.017h0a1.133,1.133,0,0,0-1.13,1.13v5.668h-15.2a13.952,13.952,0,0,0,4.876-10.534,14.106,14.106,0,0,0-6.6-11.832h4.943a2.122,2.122,0,0,0,2.168-2.067V43.594a1.13,1.13,0,0,0-1.129-1.129H522.315a1.13,1.13,0,0,0-1.129,1.129V56.533a15.449,15.449,0,0,0-2.927.748V36.909h7.867a1.129,1.129,0,0,0,1.113.949Zm6.333,38.77L551.1,80.163V76.617Zm-26.394-31.9h2.959V48.2h-2.959ZM527.5,50.461h5.217a1.13,1.13,0,0,0,1.129-1.129V44.723h2.923v11.8H525.923a15.68,15.68,0,0,0-2.353-.178h-.126V44.723h2.923v4.609a1.13,1.13,0,0,0,1.13,1.129M515.2,32.7h10.908V34.65H517.13A1.129,1.129,0,0,0,516,35.779V58.32a15.078,15.078,0,0,0-2.5,1.764V34.258a1.638,1.638,0,0,1,1.7-1.563m8.368,25.914c7,0,12.688,5.387,12.688,12.009s-5.691,12.009-12.688,12.009-12.688-5.387-12.688-12.009S516.574,58.609,523.571,58.609ZM512.918,80.617l-2.55,2.353-.812-.8,2.578-2.378q.375.424.784.822m-3.21,4.922-7.587,7a.18.18,0,0,1-.221,0l-2.74-2.686c-.015-.013-.015-.021-.015-.024s0-.012.016-.027l7.588-7a.181.181,0,0,1,.22,0l2.74,2.686c.015.013.013.021.013.024s0,.012-.016.027M560.514,83.8a1.64,1.64,0,0,1-1.7,1.563H515.2a1.639,1.639,0,0,1-1.7-1.563v-.649l1.168-1.079a15.517,15.517,0,0,0,15.517,1.336h20.257a1.13,1.13,0,0,0,.757-.291l6.441-5.812a1.129,1.129,0,0,0,.372-.839V35.779a1.13,1.13,0,0,0-1.129-1.129h-7.066V32.7h8.994a1.64,1.64,0,0,1,1.7,1.563Zm-19.17-40.427a1.129,1.129,0,0,1,1.129-1.129h9.4a1.13,1.13,0,0,1,0,2.26h-9.4a1.129,1.129,0,0,1-1.129-1.13m0,4.688a1.129,1.129,0,0,1,1.129-1.129h9.4a1.129,1.129,0,0,1,0,2.258h-9.4a1.129,1.129,0,0,1-1.129-1.129m0,4.687a1.129,1.129,0,0,1,1.129-1.129h9.4a1.13,1.13,0,0,1,0,2.26h-9.4a1.129,1.129,0,0,1-1.129-1.13M553.1,66.813a1.13,1.13,0,0,1-1.129,1.129h-9.4a1.129,1.129,0,1,1,0-2.258h9.4a1.13,1.13,0,0,1,1.129,1.129m0-4.687a1.13,1.13,0,0,1-1.129,1.129h-9.4a1.13,1.13,0,0,1,0-2.26h9.4a1.13,1.13,0,0,1,1.129,1.13m0-4.688a1.13,1.13,0,0,1-1.129,1.129h-9.4a1.129,1.129,0,1,1,0-2.258h9.4a1.13,1.13,0,0,1,1.129,1.129M539.376,29.592a1.252,1.252,0,1,1-1.252-1.244,1.25,1.25,0,0,1,1.252,1.244m-15.8,51.591a10.574,10.574,0,1,0-11.052-10.564,10.829,10.829,0,0,0,11.052,10.564m0-18.869a8.318,8.318,0,1,1-8.792,8.3,8.568,8.568,0,0,1,8.792-8.3" transform="translate(111.653 5.575)" fill="#334155"/>
      <path id="Trazado_1015288" data-name="Trazado 1015288" d="M695.343,85.789l7.739-7.739a2.683,2.683,0,0,1,2.882-.587l4.745-4.742a14.141,14.141,0,0,1,2.743-19.664V31.365a1.039,1.039,0,0,1,1.04-1.039h30.987a1.037,1.037,0,0,1,.787.363l7.914,7.9a1.021,1.021,0,0,1,.3.734l0,46.94a1.039,1.039,0,0,1-1.039,1.039H714.491a1.039,1.039,0,0,1-1.039-1.039V76.518l-4.218,4.218a2.668,2.668,0,0,1-.585,2.882l-7.738,7.738a2.672,2.672,0,0,1-3.766,0l-1.8-1.8a2.668,2.668,0,0,1,0-3.766m9.207-6.27-7.738,7.739a.589.589,0,0,0,0,.828l1.8,1.8a.585.585,0,0,0,.828,0l7.739-7.738a.587.587,0,0,0,0-.828l-1.8-1.8a.588.588,0,0,0-.829,0m8.318-7.419a12.057,12.057,0,1,1,.654.709Zm-.8,2.2-4.489,4.49.332.332,4.5-4.5c-.115-.105-.228-.214-.339-.326m9.98-24.152a14.072,14.072,0,0,0-6.522,1.591V32.4h28.91v6.922a1.038,1.038,0,0,0,1.039,1.039h6.932V85.226H715.53v-8.4a14.146,14.146,0,0,0,20.56-10.87h12.568a1.039,1.039,0,0,0,0-2.078H736.183a14.088,14.088,0,0,0-2.723-7.951h8.567a1.038,1.038,0,0,0,1.04-1.039V41.205a1.04,1.04,0,0,0-1.04-1.04H725.913a1.039,1.039,0,0,0-1.039,1.04v9.22a14.2,14.2,0,0,0-2.823-.282m4.9.873a14.127,14.127,0,0,1,4.645,2.835h9.392V42.244h-3.657v5.15a1.038,1.038,0,0,1-1.832.669L733.97,46.5l-1.586,1.618a1.036,1.036,0,0,1-1.773-.725l0-5.15h-3.656Zm5.734-8.773v2.609l.558-.569a1.035,1.035,0,0,1,1.465.011l.546.558V42.244Zm4.351,32.751h11.621a1.039,1.039,0,0,0,0-2.078H737.037a1.039,1.039,0,0,0,0,2.078m11.526-39.086-2.045-2.043v4.421h4.426Z" transform="translate(156.072 6.814)" fill="#fff" fill-rule="evenodd"/>
      <path id="Trazado_1015289" data-name="Trazado 1015289" d="M714.327,52.67v-.389a1.166,1.166,0,0,1,1.165-1.166h5.443a1.166,1.166,0,0,1,1.166,1.166v.389Zm8.317.746a1.163,1.163,0,0,1,.317.66L723.2,55.9l-2.065-2.064h-1.1l3.326,3.326.279,2.174-5.5-5.5h-1.1l6.762,6.762.281,2.175-8.923-8.935h-.434a.388.388,0,0,1-.388-.388h8.161a.4.4,0,0,0,.154-.032ZM722.1,65.887h-8.872l2.407-2.408,1.635,1.636h1.1l-2.185-2.186,1.394-1.394,3.578,3.579h.55a.388.388,0,0,1,.388.388h0Zm-.066.778a1.168,1.168,0,0,1-1.1.776H715.49a1.167,1.167,0,0,1-1.1-.776Zm-9.678-4,.281-2.174,4.033-4.033.947.947Zm.443-3.435.665-5.152a1.158,1.158,0,0,1,.246-.578l2.406,2.407Zm11.447,4.808.07.535a1.167,1.167,0,0,1-1.005,1.307,1.25,1.25,0,0,1-.152.01h-.12l-4.906-4.907,1.53-1.53Zm-11.79,1.522a.828.828,0,0,1-.064-.067,1.167,1.167,0,0,1-.282-.92l.083-.644,5.972-5.973.947.947Z" transform="translate(160.012 11.486)" fill="#fff" fill-rule="evenodd"/>
    </g>
  </g>
</svg>
